<<<<<<< HEAD
<mxfile host="app.diagrams.net" modified="2020-05-01T07:23:31.356Z" agent="5.0 (Windows NT 10.0; Win64; x64) AppleWebKit/537.36 (KHTML, like Gecko) Chrome/81.0.4044.129 Safari/537.36" etag="vKAUCTFyJB-UqEjhCSfm" version="13.0.4" type="github">
  <diagram id="1rv1xOvbKvWyrppsMtNo" name="Page-1">
    <mxGraphModel dx="599" dy="283" grid="1" gridSize="10" guides="1" tooltips="1" connect="1" arrows="1" fold="1" page="1" pageScale="1" pageWidth="3300" pageHeight="4681" background="#ffffff" math="0" shadow="0">
      <root>
        <mxCell id="0" />
        <mxCell id="1" parent="0" />
        <mxCell id="O92rZ5ZvlTnGVv4ENgCI-20" value="" style="endArrow=classic;html=1;exitX=0.513;exitY=0.989;exitDx=0;exitDy=0;exitPerimeter=0;fillColor=#0050ef;strokeColor=#001DBC;" parent="1" source="4u6Bk__YJ9N9gN4nhSER-43" edge="1">
          <mxGeometry width="50" height="50" relative="1" as="geometry">
            <mxPoint x="940" y="1853" as="sourcePoint" />
            <mxPoint x="1430" y="1823" as="targetPoint" />
            <Array as="points">
              <mxPoint x="940" y="1823" />
            </Array>
          </mxGeometry>
        </mxCell>
        <mxCell id="JGrU1U19Wn6LMI07_7Y3-49" value="" style="endArrow=classic;html=1;strokeColor=#000000;fontColor=#0000FF;exitX=0.353;exitY=0.313;exitDx=0;exitDy=0;exitPerimeter=0;entryX=0;entryY=0.951;entryDx=0;entryDy=0;entryPerimeter=0;" parent="1" target="4u6Bk__YJ9N9gN4nhSER-31" edge="1">
          <mxGeometry width="50" height="50" relative="1" as="geometry">
            <mxPoint x="1519.765" y="2346.565" as="sourcePoint" />
            <mxPoint x="2230" y="2400" as="targetPoint" />
            <Array as="points">
              <mxPoint x="1520" y="2400" />
            </Array>
          </mxGeometry>
        </mxCell>
        <mxCell id="joF-WAlRbkqWNDi0a5-E-44" value="Call[1-bits]" style="text;html=1;align=center;verticalAlign=middle;resizable=0;points=[];autosize=1;fontSize=7;fontColor=#3333FF;" parent="1" vertex="1">
          <mxGeometry x="975.0000000000002" y="1656.4100000000003" width="50" height="10" as="geometry" />
        </mxCell>
        <mxCell id="joF-WAlRbkqWNDi0a5-E-45" value="" style="endArrow=classic;html=1;fontSize=7;entryX=0;entryY=0.07;entryDx=0;entryDy=0;entryPerimeter=0;exitX=0.371;exitY=0.014;exitDx=0;exitDy=0;exitPerimeter=0;fillColor=#0050ef;strokeColor=#001DBC;" parent="1" source="4u6Bk__YJ9N9gN4nhSER-43" edge="1">
          <mxGeometry width="50" height="50" relative="1" as="geometry">
            <mxPoint x="880" y="1710" as="sourcePoint" />
            <mxPoint x="1439.9999999999998" y="1666.3899999999999" as="targetPoint" />
            <Array as="points">
              <mxPoint x="930" y="1666" />
            </Array>
          </mxGeometry>
        </mxCell>
        <mxCell id="joF-WAlRbkqWNDi0a5-E-1" value="" style="rounded=0;whiteSpace=wrap;html=1;" parent="1" vertex="1">
          <mxGeometry x="880" y="1920" width="130" height="160" as="geometry" />
        </mxCell>
        <mxCell id="djSDpx1OMvx2S-5FDEnU-72" value="&lt;b style=&quot;white-space: normal&quot;&gt;Data&lt;br&gt;Memory&lt;/b&gt;" style="rounded=0;whiteSpace=wrap;html=1;" parent="1" vertex="1">
          <mxGeometry x="2690" y="1930" width="130" height="170" as="geometry" />
        </mxCell>
        <mxCell id="4u6Bk__YJ9N9gN4nhSER-208" value="" style="rounded=0;whiteSpace=wrap;html=1;" parent="1" vertex="1">
          <mxGeometry x="1720" y="1840" width="120" height="40" as="geometry" />
        </mxCell>
        <mxCell id="4u6Bk__YJ9N9gN4nhSER-4" value="&lt;b&gt;PC&lt;/b&gt;" style="rounded=0;whiteSpace=wrap;html=1;" parent="1" vertex="1">
          <mxGeometry x="254" y="1880" width="50" height="80" as="geometry" />
        </mxCell>
        <mxCell id="4u6Bk__YJ9N9gN4nhSER-5" value="&lt;b&gt;Instruction&amp;nbsp;&lt;br&gt;Memory&lt;/b&gt;" style="whiteSpace=wrap;html=1;aspect=fixed;" parent="1" vertex="1">
          <mxGeometry x="370" y="1890" width="120" height="120" as="geometry" />
        </mxCell>
        <mxCell id="4u6Bk__YJ9N9gN4nhSER-8" value="" style="endArrow=classic;html=1;entryX=0;entryY=0.25;entryDx=0;entryDy=0;exitX=1;exitY=0.5;exitDx=0;exitDy=0;" parent="1" source="4u6Bk__YJ9N9gN4nhSER-4" target="4u6Bk__YJ9N9gN4nhSER-5" edge="1">
          <mxGeometry width="50" height="50" relative="1" as="geometry">
            <mxPoint x="340" y="1920" as="sourcePoint" />
            <mxPoint x="390" y="1870" as="targetPoint" />
          </mxGeometry>
        </mxCell>
        <mxCell id="4u6Bk__YJ9N9gN4nhSER-9" value="&lt;font style=&quot;font-size: 9px&quot;&gt;Address&lt;/font&gt;" style="text;html=1;strokeColor=none;fillColor=none;align=center;verticalAlign=middle;whiteSpace=wrap;rounded=0;" parent="1" vertex="1">
          <mxGeometry x="380" y="1912.5" width="40" height="15" as="geometry" />
        </mxCell>
        <mxCell id="4u6Bk__YJ9N9gN4nhSER-11" value="&lt;b&gt;Add&lt;/b&gt;" style="shape=step;perimeter=stepPerimeter;whiteSpace=wrap;html=1;fixedSize=1;" parent="1" vertex="1">
          <mxGeometry x="410" y="1800" width="70" height="40" as="geometry" />
        </mxCell>
        <mxCell id="4u6Bk__YJ9N9gN4nhSER-13" value="2" style="text;html=1;align=center;verticalAlign=middle;resizable=0;points=[];autosize=1;" parent="1" vertex="1">
          <mxGeometry x="370" y="1820" width="20" height="20" as="geometry" />
        </mxCell>
        <mxCell id="4u6Bk__YJ9N9gN4nhSER-14" value="" style="endArrow=classic;html=1;" parent="1" edge="1">
          <mxGeometry width="50" height="50" relative="1" as="geometry">
            <mxPoint x="390" y="1830" as="sourcePoint" />
            <mxPoint x="420" y="1830" as="targetPoint" />
          </mxGeometry>
        </mxCell>
        <mxCell id="4u6Bk__YJ9N9gN4nhSER-16" value="" style="endArrow=classic;html=1;entryX=0.142;entryY=0.248;entryDx=0;entryDy=0;entryPerimeter=0;" parent="1" target="4u6Bk__YJ9N9gN4nhSER-11" edge="1">
          <mxGeometry width="50" height="50" relative="1" as="geometry">
            <mxPoint x="350" y="1920" as="sourcePoint" />
            <mxPoint x="418.82000000000016" y="1810.08" as="targetPoint" />
            <Array as="points">
              <mxPoint x="350" y="1810" />
            </Array>
          </mxGeometry>
        </mxCell>
        <mxCell id="4u6Bk__YJ9N9gN4nhSER-18" value="" style="rounded=0;whiteSpace=wrap;html=1;" parent="1" vertex="1">
          <mxGeometry x="640" y="1630" width="40" height="810" as="geometry" />
        </mxCell>
        <mxCell id="4u6Bk__YJ9N9gN4nhSER-19" value="" style="endArrow=classic;html=1;exitX=0.5;exitY=0;exitDx=0;exitDy=0;" parent="1" source="JGrU1U19Wn6LMI07_7Y3-12" edge="1">
          <mxGeometry width="50" height="50" relative="1" as="geometry">
            <mxPoint x="580" y="1800" as="sourcePoint" />
            <mxPoint x="640" y="1799.92" as="targetPoint" />
          </mxGeometry>
        </mxCell>
        <mxCell id="4u6Bk__YJ9N9gN4nhSER-24" value="&lt;b&gt;IF/ID&lt;/b&gt;" style="text;html=1;strokeColor=none;fillColor=none;align=center;verticalAlign=middle;whiteSpace=wrap;rounded=0;" parent="1" vertex="1">
          <mxGeometry x="640" y="1580" width="40" height="20" as="geometry" />
        </mxCell>
        <mxCell id="4u6Bk__YJ9N9gN4nhSER-32" value="" style="rounded=0;whiteSpace=wrap;html=1;" parent="1" vertex="1">
          <mxGeometry x="2880" y="1630" width="40" height="810" as="geometry" />
        </mxCell>
        <mxCell id="4u6Bk__YJ9N9gN4nhSER-38" value="&lt;b&gt;ALU&lt;/b&gt;" style="shape=step;perimeter=stepPerimeter;whiteSpace=wrap;html=1;fixedSize=1;size=40;align=center;" parent="1" vertex="1">
          <mxGeometry x="1585" y="1940" width="120" height="100" as="geometry" />
        </mxCell>
        <mxCell id="4u6Bk__YJ9N9gN4nhSER-43" value="&lt;font style=&quot;font-size: 12px&quot; color=&quot;#3333ff&quot;&gt;&lt;b&gt;Control&lt;/b&gt;&lt;/font&gt;" style="ellipse;whiteSpace=wrap;html=1;fontSize=7;strokeColor=#3333FF;" parent="1" vertex="1">
          <mxGeometry x="900" y="1692" width="80" height="120" as="geometry" />
        </mxCell>
        <mxCell id="4u6Bk__YJ9N9gN4nhSER-44" value="&lt;b&gt;ID/IE&lt;/b&gt;" style="text;html=1;strokeColor=none;fillColor=none;align=center;verticalAlign=middle;whiteSpace=wrap;rounded=0;" parent="1" vertex="1">
          <mxGeometry x="1440" y="1580" width="40" height="20" as="geometry" />
        </mxCell>
        <mxCell id="4u6Bk__YJ9N9gN4nhSER-49" value="PC+2" style="text;html=1;align=center;verticalAlign=middle;resizable=0;points=[];autosize=1;fontSize=7;" parent="1" vertex="1">
          <mxGeometry x="680" y="2410" width="30" height="10" as="geometry" />
        </mxCell>
        <mxCell id="4u6Bk__YJ9N9gN4nhSER-50" value="PC" style="text;html=1;align=center;verticalAlign=middle;resizable=0;points=[];autosize=1;fontSize=7;" parent="1" vertex="1">
          <mxGeometry x="680" y="2400" width="30" height="10" as="geometry" />
        </mxCell>
        <mxCell id="4u6Bk__YJ9N9gN4nhSER-51" value="PC+1/2" style="text;html=1;align=center;verticalAlign=middle;resizable=0;points=[];autosize=1;fontSize=7;" parent="1" vertex="1">
          <mxGeometry x="1835" y="2410" width="40" height="10" as="geometry" />
        </mxCell>
        <mxCell id="4u6Bk__YJ9N9gN4nhSER-52" value="PC" style="text;html=1;align=center;verticalAlign=middle;resizable=0;points=[];autosize=1;fontSize=7;" parent="1" vertex="1">
          <mxGeometry x="1842" y="2400" width="30" height="10" as="geometry" />
        </mxCell>
        <mxCell id="4u6Bk__YJ9N9gN4nhSER-59" value="EX[4-bits]" style="text;html=1;align=center;verticalAlign=middle;resizable=0;points=[];autosize=1;fontSize=7;fontColor=#3333FF;" parent="1" vertex="1">
          <mxGeometry x="980" y="1750" width="50" height="10" as="geometry" />
        </mxCell>
        <mxCell id="4u6Bk__YJ9N9gN4nhSER-60" value="&lt;b&gt;IE/MEM&lt;/b&gt;" style="text;html=1;strokeColor=none;fillColor=none;align=center;verticalAlign=middle;whiteSpace=wrap;rounded=0;" parent="1" vertex="1">
          <mxGeometry x="2240" y="1580" width="40" height="20" as="geometry" />
        </mxCell>
        <mxCell id="4u6Bk__YJ9N9gN4nhSER-61" value="&lt;b&gt;MEM/WB&lt;/b&gt;" style="text;html=1;strokeColor=none;fillColor=none;align=center;verticalAlign=middle;whiteSpace=wrap;rounded=0;" parent="1" vertex="1">
          <mxGeometry x="2880" y="1580" width="40" height="20" as="geometry" />
        </mxCell>
        <mxCell id="4u6Bk__YJ9N9gN4nhSER-62" value="MEM [2-bits]" style="text;html=1;align=center;verticalAlign=middle;resizable=0;points=[];autosize=1;fontSize=7;fontColor=#3333FF;" parent="1" vertex="1">
          <mxGeometry x="980" y="1740" width="60" height="10" as="geometry" />
        </mxCell>
        <mxCell id="4u6Bk__YJ9N9gN4nhSER-63" value="WB[2-bits]" style="text;html=1;align=center;verticalAlign=middle;resizable=0;points=[];autosize=1;fontSize=7;fontColor=#3333FF;" parent="1" vertex="1">
          <mxGeometry x="980" y="1730" width="50" height="10" as="geometry" />
        </mxCell>
        <mxCell id="4u6Bk__YJ9N9gN4nhSER-71" value="WB[2-bits]" style="text;html=1;align=center;verticalAlign=middle;resizable=0;points=[];autosize=1;fontSize=7;fontColor=#3333FF;" parent="1" vertex="1">
          <mxGeometry x="1480" y="1740" width="50" height="10" as="geometry" />
        </mxCell>
        <mxCell id="4u6Bk__YJ9N9gN4nhSER-72" value="MEM[2-bits]" style="text;html=1;align=center;verticalAlign=middle;resizable=0;points=[];autosize=1;fontSize=7;fontColor=#3333FF;" parent="1" vertex="1">
          <mxGeometry x="1472" y="1750" width="60" height="10" as="geometry" />
        </mxCell>
        <mxCell id="4u6Bk__YJ9N9gN4nhSER-74" value="WB[2-bits]" style="text;html=1;align=center;verticalAlign=middle;resizable=0;points=[];autosize=1;fontSize=7;fontColor=#3333FF;" parent="1" vertex="1">
          <mxGeometry x="2311" y="1740" width="50" height="10" as="geometry" />
        </mxCell>
        <mxCell id="4u6Bk__YJ9N9gN4nhSER-77" value="OP-code [31-30]" style="text;html=1;align=center;verticalAlign=middle;resizable=0;points=[];autosize=1;fontSize=7;" parent="1" vertex="1">
          <mxGeometry x="800" y="1740" width="70" height="10" as="geometry" />
        </mxCell>
        <mxCell id="4u6Bk__YJ9N9gN4nhSER-92" value="" style="endArrow=classic;html=1;fontSize=7;exitX=0.999;exitY=0.481;exitDx=0;exitDy=0;exitPerimeter=0;entryX=-0.032;entryY=0.148;entryDx=0;entryDy=0;entryPerimeter=0;fillColor=#0050ef;strokeColor=#001DBC;" parent="1" source="4u6Bk__YJ9N9gN4nhSER-43" target="4u6Bk__YJ9N9gN4nhSER-30" edge="1">
          <mxGeometry width="50" height="50" relative="1" as="geometry">
            <mxPoint x="862" y="1750" as="sourcePoint" />
            <mxPoint x="1430" y="1750" as="targetPoint" />
          </mxGeometry>
        </mxCell>
        <mxCell id="4u6Bk__YJ9N9gN4nhSER-93" value="" style="endArrow=classic;html=1;fontSize=7;entryX=0;entryY=0.159;entryDx=0;entryDy=0;entryPerimeter=0;fillColor=#0050ef;strokeColor=#001DBC;" parent="1" target="4u6Bk__YJ9N9gN4nhSER-30" edge="1">
          <mxGeometry width="50" height="50" relative="1" as="geometry">
            <mxPoint x="980" y="1759" as="sourcePoint" />
            <mxPoint x="1430" y="1759" as="targetPoint" />
          </mxGeometry>
        </mxCell>
        <mxCell id="4u6Bk__YJ9N9gN4nhSER-94" value="" style="endArrow=classic;html=1;fontSize=7;entryX=0;entryY=0.136;entryDx=0;entryDy=0;entryPerimeter=0;exitX=1;exitY=0.401;exitDx=0;exitDy=0;exitPerimeter=0;fillColor=#0050ef;strokeColor=#001DBC;" parent="1" source="4u6Bk__YJ9N9gN4nhSER-43" target="4u6Bk__YJ9N9gN4nhSER-30" edge="1">
          <mxGeometry width="50" height="50" relative="1" as="geometry">
            <mxPoint x="1010" y="1740" as="sourcePoint" />
            <mxPoint x="1430" y="1740" as="targetPoint" />
          </mxGeometry>
        </mxCell>
        <mxCell id="4u6Bk__YJ9N9gN4nhSER-96" value="" style="endArrow=classic;html=1;fontSize=7;exitX=1.043;exitY=0.147;exitDx=0;exitDy=0;entryX=0;entryY=0.483;entryDx=0;entryDy=0;entryPerimeter=0;exitPerimeter=0;" parent="1" source="4u6Bk__YJ9N9gN4nhSER-18" target="4u6Bk__YJ9N9gN4nhSER-43" edge="1">
          <mxGeometry width="50" height="50" relative="1" as="geometry">
            <mxPoint x="720" y="1780" as="sourcePoint" />
            <mxPoint x="770" y="1730" as="targetPoint" />
          </mxGeometry>
        </mxCell>
        <mxCell id="4u6Bk__YJ9N9gN4nhSER-97" value="" style="endArrow=classic;html=1;fontSize=7;entryX=-0.008;entryY=0.963;entryDx=0;entryDy=0;entryPerimeter=0;" parent="1" target="4u6Bk__YJ9N9gN4nhSER-30" edge="1">
          <mxGeometry width="50" height="50" relative="1" as="geometry">
            <mxPoint x="680" y="2410" as="sourcePoint" />
            <mxPoint x="1430" y="2410" as="targetPoint" />
          </mxGeometry>
        </mxCell>
        <mxCell id="4u6Bk__YJ9N9gN4nhSER-98" value="" style="endArrow=classic;html=1;fontSize=7;entryX=0;entryY=0.975;entryDx=0;entryDy=0;entryPerimeter=0;" parent="1" target="4u6Bk__YJ9N9gN4nhSER-30" edge="1">
          <mxGeometry width="50" height="50" relative="1" as="geometry">
            <mxPoint x="680" y="2420" as="sourcePoint" />
            <mxPoint x="1430" y="2420" as="targetPoint" />
          </mxGeometry>
        </mxCell>
        <mxCell id="4u6Bk__YJ9N9gN4nhSER-101" value="" style="endArrow=classic;html=1;fontSize=7;entryX=0;entryY=0.962;entryDx=0;entryDy=0;entryPerimeter=0;" parent="1" target="4u6Bk__YJ9N9gN4nhSER-31" edge="1">
          <mxGeometry width="50" height="50" relative="1" as="geometry">
            <mxPoint x="1480" y="2410" as="sourcePoint" />
            <mxPoint x="2230" y="2409" as="targetPoint" />
          </mxGeometry>
        </mxCell>
        <mxCell id="4u6Bk__YJ9N9gN4nhSER-102" value="" style="endArrow=classic;html=1;fontSize=7;entryX=-0.028;entryY=0.975;entryDx=0;entryDy=0;entryPerimeter=0;" parent="1" target="4u6Bk__YJ9N9gN4nhSER-31" edge="1">
          <mxGeometry width="50" height="50" relative="1" as="geometry">
            <mxPoint x="1480" y="2420" as="sourcePoint" />
            <mxPoint x="2230" y="2420" as="targetPoint" />
          </mxGeometry>
        </mxCell>
        <mxCell id="4u6Bk__YJ9N9gN4nhSER-103" value="" style="endArrow=classic;html=1;fontSize=7;entryX=-0.025;entryY=0.148;entryDx=0;entryDy=0;entryPerimeter=0;strokeColor=#3333FF;" parent="1" target="4u6Bk__YJ9N9gN4nhSER-31" edge="1">
          <mxGeometry width="50" height="50" relative="1" as="geometry">
            <mxPoint x="1480" y="1750.0000000000002" as="sourcePoint" />
            <mxPoint x="2234" y="1750" as="targetPoint" />
          </mxGeometry>
        </mxCell>
        <mxCell id="4u6Bk__YJ9N9gN4nhSER-104" value="" style="endArrow=classic;html=1;fontSize=7;entryX=0;entryY=0.16;entryDx=0;entryDy=0;entryPerimeter=0;strokeColor=#3333FF;" parent="1" target="4u6Bk__YJ9N9gN4nhSER-31" edge="1">
          <mxGeometry width="50" height="50" relative="1" as="geometry">
            <mxPoint x="1480" y="1760" as="sourcePoint" />
            <mxPoint x="2230" y="1760" as="targetPoint" />
          </mxGeometry>
        </mxCell>
        <mxCell id="4u6Bk__YJ9N9gN4nhSER-106" value="" style="endArrow=classic;html=1;fontSize=7;entryX=0.141;entryY=-0.012;entryDx=0;entryDy=0;entryPerimeter=0;strokeColor=#3333FF;" parent="1" target="4u6Bk__YJ9N9gN4nhSER-38" edge="1">
          <mxGeometry width="50" height="50" relative="1" as="geometry">
            <mxPoint x="1480" y="1770" as="sourcePoint" />
            <mxPoint x="1590" y="1930" as="targetPoint" />
            <Array as="points">
              <mxPoint x="1640" y="1770" />
              <mxPoint x="1640" y="1880" />
              <mxPoint x="1602" y="1880" />
            </Array>
          </mxGeometry>
        </mxCell>
        <mxCell id="4u6Bk__YJ9N9gN4nhSER-107" value="EX [4-bits]" style="text;html=1;align=center;verticalAlign=middle;resizable=0;points=[];autosize=1;fontSize=7;fontColor=#3333FF;" parent="1" vertex="1">
          <mxGeometry x="1477.84" y="1760" width="50" height="10" as="geometry" />
        </mxCell>
        <mxCell id="4u6Bk__YJ9N9gN4nhSER-109" value="" style="endArrow=classic;html=1;fontSize=7;entryX=-0.015;entryY=0.145;entryDx=0;entryDy=0;entryPerimeter=0;fontColor=#3333FF;strokeColor=#3333FF;" parent="1" target="4u6Bk__YJ9N9gN4nhSER-32" edge="1">
          <mxGeometry width="50" height="50" relative="1" as="geometry">
            <mxPoint x="2280" y="1749.4300000000003" as="sourcePoint" />
            <mxPoint x="2870" y="1748" as="targetPoint" />
          </mxGeometry>
        </mxCell>
        <mxCell id="4u6Bk__YJ9N9gN4nhSER-111" value="" style="endArrow=classic;html=1;fontSize=7;entryX=0.526;entryY=0.002;entryDx=0;entryDy=0;entryPerimeter=0;fontColor=#3333FF;strokeColor=#3333FF;" parent="1" target="djSDpx1OMvx2S-5FDEnU-72" edge="1">
          <mxGeometry width="50" height="50" relative="1" as="geometry">
            <mxPoint x="2280" y="1760.0000000000002" as="sourcePoint" />
            <mxPoint x="2690" y="1920" as="targetPoint" />
            <Array as="points">
              <mxPoint x="2760" y="1760" />
            </Array>
          </mxGeometry>
        </mxCell>
        <mxCell id="4u6Bk__YJ9N9gN4nhSER-112" value="MEM[2-bits]" style="text;html=1;align=center;verticalAlign=middle;resizable=0;points=[];autosize=1;fontSize=7;fontColor=#3333FF;" parent="1" vertex="1">
          <mxGeometry x="2309" y="1750" width="60" height="10" as="geometry" />
        </mxCell>
        <mxCell id="4u6Bk__YJ9N9gN4nhSER-113" value="" style="endArrow=classic;html=1;fontSize=7;entryX=0.065;entryY=0.56;entryDx=0;entryDy=0;entryPerimeter=0;strokeColor=#3333FF;" parent="1" target="4u6Bk__YJ9N9gN4nhSER-241" edge="1">
          <mxGeometry width="50" height="50" relative="1" as="geometry">
            <mxPoint x="2920" y="1749.4300000000003" as="sourcePoint" />
            <mxPoint x="3040" y="1890" as="targetPoint" />
            <Array as="points">
              <mxPoint x="3055" y="1749" />
            </Array>
          </mxGeometry>
        </mxCell>
        <mxCell id="4u6Bk__YJ9N9gN4nhSER-114" value="WB[2-bits]" style="text;html=1;align=center;verticalAlign=middle;resizable=0;points=[];autosize=1;fontSize=7;fontColor=#3333FF;" parent="1" vertex="1">
          <mxGeometry x="2915" y="1740" width="50" height="10" as="geometry" />
        </mxCell>
        <mxCell id="4u6Bk__YJ9N9gN4nhSER-116" value="&lt;b&gt;&lt;font style=&quot;font-size: 12px&quot;&gt;AND&lt;/font&gt;&lt;/b&gt;" style="shape=or;whiteSpace=wrap;html=1;fontSize=7;" parent="1" vertex="1">
          <mxGeometry x="2350" y="2080" width="37.5" height="40" as="geometry" />
        </mxCell>
        <mxCell id="4u6Bk__YJ9N9gN4nhSER-117" value="" style="endArrow=classic;html=1;fontSize=7;exitX=1;exitY=0.25;exitDx=0;exitDy=0;entryX=0;entryY=0.358;entryDx=0;entryDy=0;entryPerimeter=0;" parent="1" source="4u6Bk__YJ9N9gN4nhSER-5" target="4u6Bk__YJ9N9gN4nhSER-18" edge="1">
          <mxGeometry width="50" height="50" relative="1" as="geometry">
            <mxPoint x="610" y="1920" as="sourcePoint" />
            <mxPoint x="630" y="1920" as="targetPoint" />
          </mxGeometry>
        </mxCell>
        <mxCell id="4u6Bk__YJ9N9gN4nhSER-132" value="Input port[32-bits]" style="text;html=1;align=center;verticalAlign=middle;resizable=0;points=[];autosize=1;fontSize=7;" parent="1" vertex="1">
          <mxGeometry x="2960" y="1910" width="70" height="10" as="geometry" />
        </mxCell>
        <mxCell id="4u6Bk__YJ9N9gN4nhSER-133" value="" style="endArrow=classic;html=1;fontSize=7;entryX=0.279;entryY=0.985;entryDx=0;entryDy=0;entryPerimeter=0;" parent="1" target="4u6Bk__YJ9N9gN4nhSER-241" edge="1">
          <mxGeometry width="50" height="50" relative="1" as="geometry">
            <mxPoint x="2960" y="1880" as="sourcePoint" />
            <mxPoint x="3020" y="1920" as="targetPoint" />
            <Array as="points">
              <mxPoint x="2960" y="1920" />
            </Array>
          </mxGeometry>
        </mxCell>
        <mxCell id="4u6Bk__YJ9N9gN4nhSER-134" value="&lt;b&gt;&lt;font style=&quot;font-size: 12px&quot;&gt;AND&lt;/font&gt;&lt;/b&gt;" style="shape=or;whiteSpace=wrap;html=1;fontSize=7;" parent="1" vertex="1">
          <mxGeometry x="2350" y="2130" width="37.5" height="40" as="geometry" />
        </mxCell>
        <mxCell id="4u6Bk__YJ9N9gN4nhSER-135" value="&lt;b&gt;&lt;font style=&quot;font-size: 12px&quot;&gt;AND&lt;/font&gt;&lt;/b&gt;" style="shape=or;whiteSpace=wrap;html=1;fontSize=7;" parent="1" vertex="1">
          <mxGeometry x="2350" y="2180" width="37.5" height="40" as="geometry" />
        </mxCell>
        <mxCell id="4u6Bk__YJ9N9gN4nhSER-187" style="edgeStyle=orthogonalEdgeStyle;rounded=0;orthogonalLoop=1;jettySize=auto;html=1;fontSize=7;entryX=0;entryY=0.75;entryDx=0;entryDy=0;" parent="1" source="4u6Bk__YJ9N9gN4nhSER-136" target="4u6Bk__YJ9N9gN4nhSER-186" edge="1">
          <mxGeometry relative="1" as="geometry">
            <mxPoint x="2560" y="2150" as="targetPoint" />
          </mxGeometry>
        </mxCell>
        <mxCell id="4u6Bk__YJ9N9gN4nhSER-136" value="&lt;b&gt;&lt;font style=&quot;font-size: 12px&quot;&gt;&amp;nbsp; OR&lt;/font&gt;&lt;/b&gt;" style="shape=xor;whiteSpace=wrap;html=1;fontSize=7;" parent="1" vertex="1">
          <mxGeometry x="2430" y="2110" width="40" height="80" as="geometry" />
        </mxCell>
        <mxCell id="4u6Bk__YJ9N9gN4nhSER-137" value="" style="endArrow=classic;html=1;fontSize=7;entryX=0.043;entryY=0.116;entryDx=0;entryDy=0;entryPerimeter=0;exitX=1;exitY=0.5;exitDx=0;exitDy=0;exitPerimeter=0;" parent="1" source="4u6Bk__YJ9N9gN4nhSER-116" target="4u6Bk__YJ9N9gN4nhSER-136" edge="1">
          <mxGeometry width="50" height="50" relative="1" as="geometry">
            <mxPoint x="2390" y="2100" as="sourcePoint" />
            <mxPoint x="2430" y="2080" as="targetPoint" />
            <Array as="points">
              <mxPoint x="2400" y="2100" />
              <mxPoint x="2400" y="2119" />
            </Array>
          </mxGeometry>
        </mxCell>
        <mxCell id="4u6Bk__YJ9N9gN4nhSER-138" value="" style="endArrow=classic;html=1;fontSize=7;exitX=1;exitY=0.5;exitDx=0;exitDy=0;exitPerimeter=0;entryX=0.25;entryY=0.5;entryDx=0;entryDy=0;entryPerimeter=0;" parent="1" source="4u6Bk__YJ9N9gN4nhSER-134" target="4u6Bk__YJ9N9gN4nhSER-136" edge="1">
          <mxGeometry width="50" height="50" relative="1" as="geometry">
            <mxPoint x="2380" y="2180" as="sourcePoint" />
            <mxPoint x="2430" y="2130" as="targetPoint" />
          </mxGeometry>
        </mxCell>
        <mxCell id="4u6Bk__YJ9N9gN4nhSER-139" value="" style="endArrow=classic;html=1;fontSize=7;exitX=1;exitY=0.5;exitDx=0;exitDy=0;exitPerimeter=0;entryX=0.072;entryY=0.869;entryDx=0;entryDy=0;entryPerimeter=0;" parent="1" target="4u6Bk__YJ9N9gN4nhSER-136" edge="1">
          <mxGeometry width="50" height="50" relative="1" as="geometry">
            <mxPoint x="2387.5" y="2199.8599999999997" as="sourcePoint" />
            <mxPoint x="2440" y="2199.8599999999997" as="targetPoint" />
            <Array as="points">
              <mxPoint x="2400" y="2200" />
              <mxPoint x="2400" y="2180" />
            </Array>
          </mxGeometry>
        </mxCell>
        <mxCell id="4u6Bk__YJ9N9gN4nhSER-150" value="" style="endArrow=classic;html=1;fontSize=7;exitX=1.003;exitY=0.691;exitDx=0;exitDy=0;exitPerimeter=0;entryX=0;entryY=0.25;entryDx=0;entryDy=0;entryPerimeter=0;" parent="1" source="4u6Bk__YJ9N9gN4nhSER-31" target="4u6Bk__YJ9N9gN4nhSER-135" edge="1">
          <mxGeometry width="50" height="50" relative="1" as="geometry">
            <mxPoint x="2310" y="2190" as="sourcePoint" />
            <mxPoint x="2360" y="2180" as="targetPoint" />
          </mxGeometry>
        </mxCell>
        <mxCell id="4u6Bk__YJ9N9gN4nhSER-152" value="ZF[1-bit]" style="text;html=1;align=center;verticalAlign=middle;resizable=0;points=[];autosize=1;fontSize=7;" parent="1" vertex="1">
          <mxGeometry x="2283" y="2180" width="40" height="10" as="geometry" />
        </mxCell>
        <mxCell id="4u6Bk__YJ9N9gN4nhSER-153" value="CF[1-bit]" style="text;html=1;align=center;verticalAlign=middle;resizable=0;points=[];autosize=1;fontSize=7;" parent="1" vertex="1">
          <mxGeometry x="2283" y="2130" width="40" height="10" as="geometry" />
        </mxCell>
        <mxCell id="4u6Bk__YJ9N9gN4nhSER-154" value="" style="endArrow=classic;html=1;fontSize=7;exitX=1.003;exitY=0.691;exitDx=0;exitDy=0;exitPerimeter=0;entryX=0;entryY=0.25;entryDx=0;entryDy=0;entryPerimeter=0;" parent="1" target="4u6Bk__YJ9N9gN4nhSER-134" edge="1">
          <mxGeometry width="50" height="50" relative="1" as="geometry">
            <mxPoint x="2280.18" y="2139.71" as="sourcePoint" />
            <mxPoint x="2320.06" y="2140" as="targetPoint" />
          </mxGeometry>
        </mxCell>
        <mxCell id="4u6Bk__YJ9N9gN4nhSER-155" value="" style="endArrow=classic;html=1;fontSize=7;exitX=1.003;exitY=0.691;exitDx=0;exitDy=0;exitPerimeter=0;entryX=0;entryY=0.75;entryDx=0;entryDy=0;entryPerimeter=0;" parent="1" target="4u6Bk__YJ9N9gN4nhSER-116" edge="1">
          <mxGeometry width="50" height="50" relative="1" as="geometry">
            <mxPoint x="2280" y="2109.71" as="sourcePoint" />
            <mxPoint x="2319.88" y="2110" as="targetPoint" />
          </mxGeometry>
        </mxCell>
        <mxCell id="4u6Bk__YJ9N9gN4nhSER-156" value="NF[1-bit]" style="text;html=1;align=center;verticalAlign=middle;resizable=0;points=[];autosize=1;fontSize=7;" parent="1" vertex="1">
          <mxGeometry x="2282.9999999999995" y="2100" width="40" height="10" as="geometry" />
        </mxCell>
        <mxCell id="4u6Bk__YJ9N9gN4nhSER-186" value="&lt;b&gt;&lt;font style=&quot;font-size: 21px&quot;&gt;MUX&lt;/font&gt;&lt;/b&gt;" style="shape=trapezoid;perimeter=trapezoidPerimeter;whiteSpace=wrap;html=1;rotation=90;" parent="1" vertex="1">
          <mxGeometry x="2530.25" y="2290" width="90.41" height="35.5" as="geometry" />
        </mxCell>
        <mxCell id="4u6Bk__YJ9N9gN4nhSER-194" value="&lt;b&gt;&lt;font style=&quot;font-size: 8px&quot;&gt;RDst[32-bits]&lt;/font&gt;&lt;/b&gt;" style="text;html=1;align=center;verticalAlign=middle;resizable=0;points=[];autosize=1;fontSize=7;" parent="1" vertex="1">
          <mxGeometry x="2477.5" y="2268.25" width="70" height="10" as="geometry" />
        </mxCell>
        <mxCell id="4u6Bk__YJ9N9gN4nhSER-197" value="" style="endArrow=classic;html=1;fontSize=7;exitX=1;exitY=0.346;exitDx=0;exitDy=0;exitPerimeter=0;entryX=0;entryY=0.6;entryDx=0;entryDy=0;entryPerimeter=0;" parent="1" target="4u6Bk__YJ9N9gN4nhSER-283" edge="1">
          <mxGeometry width="50" height="50" relative="1" as="geometry">
            <mxPoint x="681.33" y="1889.9399999999998" as="sourcePoint" />
            <mxPoint x="870" y="1930" as="targetPoint" />
            <Array as="points">
              <mxPoint x="840" y="1890" />
              <mxPoint x="840" y="1930" />
            </Array>
          </mxGeometry>
        </mxCell>
        <mxCell id="4u6Bk__YJ9N9gN4nhSER-198" value="" style="endArrow=classic;startArrow=none;html=1;fontSize=7;startFill=0;exitX=0.5;exitY=0;exitDx=0;exitDy=0;" parent="1" source="T4Knhte3SUwD-FYIo6XV-39" edge="1">
          <mxGeometry width="50" height="50" relative="1" as="geometry">
            <mxPoint x="2800" y="2320" as="sourcePoint" />
            <mxPoint x="250" y="1920" as="targetPoint" />
            <Array as="points">
              <mxPoint x="2787" y="2460" />
              <mxPoint x="2160" y="2460" />
              <mxPoint x="190" y="2460" />
              <mxPoint x="190" y="1920" />
            </Array>
          </mxGeometry>
        </mxCell>
        <mxCell id="4u6Bk__YJ9N9gN4nhSER-202" value="&lt;b&gt;&lt;font style=&quot;font-size: 12px&quot;&gt;PC+1/2&lt;/font&gt;&lt;/b&gt;" style="text;html=1;align=center;verticalAlign=middle;resizable=0;points=[];autosize=1;fontSize=7;" parent="1" vertex="1">
          <mxGeometry x="2485" y="2302.25" width="60" height="20" as="geometry" />
        </mxCell>
        <mxCell id="4u6Bk__YJ9N9gN4nhSER-203" value="" style="endArrow=classic;html=1;fontSize=7;entryX=0.008;entryY=0.31;entryDx=0;entryDy=0;entryPerimeter=0;" parent="1" target="4u6Bk__YJ9N9gN4nhSER-18" edge="1">
          <mxGeometry width="50" height="50" relative="1" as="geometry">
            <mxPoint x="350" y="1881" as="sourcePoint" />
            <mxPoint x="870" y="1850" as="targetPoint" />
          </mxGeometry>
        </mxCell>
        <mxCell id="4u6Bk__YJ9N9gN4nhSER-204" value="PC" style="text;html=1;align=center;verticalAlign=middle;resizable=0;points=[];autosize=1;fontSize=7;" parent="1" vertex="1">
          <mxGeometry x="420" y="1870" width="30" height="10" as="geometry" />
        </mxCell>
        <mxCell id="4u6Bk__YJ9N9gN4nhSER-205" value="PC+1/2" style="text;html=1;align=center;verticalAlign=middle;resizable=0;points=[];autosize=1;fontSize=7;" parent="1" vertex="1">
          <mxGeometry x="599" y="1788.41" width="40" height="10" as="geometry" />
        </mxCell>
        <mxCell id="4u6Bk__YJ9N9gN4nhSER-207" value="PC+2/PC+1" style="text;html=1;align=center;verticalAlign=middle;resizable=0;points=[];autosize=1;fontSize=7;" parent="1" vertex="1">
          <mxGeometry x="400" y="1707.51" width="50" height="10" as="geometry" />
        </mxCell>
        <mxCell id="4u6Bk__YJ9N9gN4nhSER-210" value="" style="endArrow=none;html=1;fontSize=7;entryX=0.333;entryY=0.002;entryDx=0;entryDy=0;entryPerimeter=0;" parent="1" edge="1">
          <mxGeometry width="50" height="50" relative="1" as="geometry">
            <mxPoint x="1800.04" y="1879.92" as="sourcePoint" />
            <mxPoint x="1800" y="1840" as="targetPoint" />
          </mxGeometry>
        </mxCell>
        <mxCell id="4u6Bk__YJ9N9gN4nhSER-211" value="&lt;b&gt; Condition code register&lt;/b&gt;" style="text;html=1;align=center;verticalAlign=middle;resizable=0;points=[];autosize=1;fontSize=7;" parent="1" vertex="1">
          <mxGeometry x="1730" y="1843" width="100" height="10" as="geometry" />
        </mxCell>
        <mxCell id="4u6Bk__YJ9N9gN4nhSER-212" value="&lt;b&gt;CF&lt;/b&gt;" style="text;html=1;align=center;verticalAlign=middle;resizable=0;points=[];autosize=1;fontSize=7;" parent="1" vertex="1">
          <mxGeometry x="1720" y="1855" width="30" height="10" as="geometry" />
        </mxCell>
        <mxCell id="4u6Bk__YJ9N9gN4nhSER-215" value="&lt;b&gt;ZF&lt;/b&gt;" style="text;html=1;align=center;verticalAlign=middle;resizable=0;points=[];autosize=1;fontSize=7;" parent="1" vertex="1">
          <mxGeometry x="1770" y="1855" width="20" height="10" as="geometry" />
        </mxCell>
        <mxCell id="4u6Bk__YJ9N9gN4nhSER-216" value="&lt;b&gt;NF&lt;/b&gt;" style="text;html=1;align=center;verticalAlign=middle;resizable=0;points=[];autosize=1;fontSize=7;" parent="1" vertex="1">
          <mxGeometry x="1800" y="1855" width="30" height="10" as="geometry" />
        </mxCell>
        <mxCell id="4u6Bk__YJ9N9gN4nhSER-218" value="" style="endArrow=classic;html=1;fontSize=7;exitX=1;exitY=0.5;exitDx=0;exitDy=0;entryX=0;entryY=0.444;entryDx=0;entryDy=0;entryPerimeter=0;" parent="1" source="4u6Bk__YJ9N9gN4nhSER-38" target="4u6Bk__YJ9N9gN4nhSER-31" edge="1">
          <mxGeometry width="50" height="50" relative="1" as="geometry">
            <mxPoint x="1690" y="2020" as="sourcePoint" />
            <mxPoint x="2220" y="1990" as="targetPoint" />
            <Array as="points">
              <mxPoint x="1719" y="1990" />
            </Array>
          </mxGeometry>
        </mxCell>
        <mxCell id="4u6Bk__YJ9N9gN4nhSER-235" style="edgeStyle=orthogonalEdgeStyle;rounded=0;orthogonalLoop=1;jettySize=auto;html=1;fontSize=7;entryX=0.104;entryY=1.046;entryDx=0;entryDy=0;entryPerimeter=0;" parent="1" source="4u6Bk__YJ9N9gN4nhSER-220" target="4u6Bk__YJ9N9gN4nhSER-208" edge="1">
          <mxGeometry relative="1" as="geometry">
            <mxPoint x="1732.5" y="1890" as="targetPoint" />
          </mxGeometry>
        </mxCell>
        <mxCell id="4u6Bk__YJ9N9gN4nhSER-220" value="&lt;b&gt;&lt;font style=&quot;font-size: 12px&quot;&gt;MUX&lt;/font&gt;&lt;/b&gt;" style="shape=trapezoid;perimeter=trapezoidPerimeter;whiteSpace=wrap;html=1;rotation=0;" parent="1" vertex="1">
          <mxGeometry x="1705" y="1930" width="55" height="20" as="geometry" />
        </mxCell>
        <mxCell id="4u6Bk__YJ9N9gN4nhSER-221" value="" style="endArrow=classic;html=1;fontSize=7;entryX=0.25;entryY=1;entryDx=0;entryDy=0;exitX=0.937;exitY=0.399;exitDx=0;exitDy=0;exitPerimeter=0;" parent="1" source="4u6Bk__YJ9N9gN4nhSER-38" target="4u6Bk__YJ9N9gN4nhSER-220" edge="1">
          <mxGeometry width="50" height="50" relative="1" as="geometry">
            <mxPoint x="1670" y="1980" as="sourcePoint" />
            <mxPoint x="1741.04" y="1959.44" as="targetPoint" />
            <Array as="points">
              <mxPoint x="1720" y="1980" />
            </Array>
          </mxGeometry>
        </mxCell>
        <mxCell id="4u6Bk__YJ9N9gN4nhSER-222" value="&lt;font style=&quot;font-size: 6px&quot;&gt;Carry-out&lt;/font&gt;" style="text;html=1;align=center;verticalAlign=middle;resizable=0;points=[];autosize=1;fontSize=7;" parent="1" vertex="1">
          <mxGeometry x="1680" y="1964.5" width="50" height="10" as="geometry" />
        </mxCell>
        <mxCell id="4u6Bk__YJ9N9gN4nhSER-224" value="" style="endArrow=classic;html=1;fontSize=7;entryX=0.417;entryY=1;entryDx=0;entryDy=0;entryPerimeter=0;exitX=1.005;exitY=0.566;exitDx=0;exitDy=0;exitPerimeter=0;" parent="1" source="4u6Bk__YJ9N9gN4nhSER-30" edge="1">
          <mxGeometry width="50" height="50" relative="1" as="geometry">
            <mxPoint x="1740" y="2090" as="sourcePoint" />
            <mxPoint x="1750.02" y="1950" as="targetPoint" />
            <Array as="points">
              <mxPoint x="1750" y="2090" />
            </Array>
          </mxGeometry>
        </mxCell>
        <mxCell id="4u6Bk__YJ9N9gN4nhSER-225" value="" style="endArrow=classic;html=1;fontSize=7;entryX=0.417;entryY=1;entryDx=0;entryDy=0;entryPerimeter=0;exitX=1;exitY=0.556;exitDx=0;exitDy=0;exitPerimeter=0;" parent="1" source="4u6Bk__YJ9N9gN4nhSER-30" edge="1">
          <mxGeometry width="50" height="50" relative="1" as="geometry">
            <mxPoint x="1720" y="2080" as="sourcePoint" />
            <mxPoint x="1734.9" y="1950" as="targetPoint" />
            <Array as="points">
              <mxPoint x="1735" y="2080" />
            </Array>
          </mxGeometry>
        </mxCell>
        <mxCell id="4u6Bk__YJ9N9gN4nhSER-226" value="Set 1" style="text;html=1;align=center;verticalAlign=middle;resizable=0;points=[];autosize=1;fontSize=7;rotation=-90;" parent="1" vertex="1">
          <mxGeometry x="1715" y="1965" width="30" height="10" as="geometry" />
        </mxCell>
        <mxCell id="4u6Bk__YJ9N9gN4nhSER-227" value="Set 0" style="text;html=1;align=center;verticalAlign=middle;resizable=0;points=[];autosize=1;fontSize=7;rotation=-90;" parent="1" vertex="1">
          <mxGeometry x="1730" y="1965" width="30" height="10" as="geometry" />
        </mxCell>
        <mxCell id="4u6Bk__YJ9N9gN4nhSER-228" value="" style="endArrow=classic;html=1;fontSize=7;entryX=0.072;entryY=0.445;entryDx=0;entryDy=0;entryPerimeter=0;exitX=0.998;exitY=0.358;exitDx=0;exitDy=0;exitPerimeter=0;" parent="1" source="4u6Bk__YJ9N9gN4nhSER-30" edge="1">
          <mxGeometry width="50" height="50" relative="1" as="geometry">
            <mxPoint x="1492" y="1920" as="sourcePoint" />
            <mxPoint x="1711.32" y="1938.9" as="targetPoint" />
            <Array as="points">
              <mxPoint x="1682" y="1920" />
              <mxPoint x="1682" y="1939" />
            </Array>
          </mxGeometry>
        </mxCell>
        <mxCell id="4u6Bk__YJ9N9gN4nhSER-229" value="selector for set the carry [2-bit]" style="text;html=1;align=center;verticalAlign=middle;resizable=0;points=[];autosize=1;fontSize=7;" parent="1" vertex="1">
          <mxGeometry x="1480" y="1910" width="120" height="10" as="geometry" />
        </mxCell>
        <mxCell id="4u6Bk__YJ9N9gN4nhSER-236" value="" style="endArrow=none;html=1;fontSize=7;entryX=0.333;entryY=0.002;entryDx=0;entryDy=0;entryPerimeter=0;" parent="1" edge="1">
          <mxGeometry width="50" height="50" relative="1" as="geometry">
            <mxPoint x="1759.95" y="1879.9999999999998" as="sourcePoint" />
            <mxPoint x="1759.91" y="1840.08" as="targetPoint" />
          </mxGeometry>
        </mxCell>
        <mxCell id="4u6Bk__YJ9N9gN4nhSER-237" value="Result-ALU [32-bits]" style="text;html=1;align=center;verticalAlign=middle;resizable=0;points=[];autosize=1;fontSize=7;" parent="1" vertex="1">
          <mxGeometry x="1984" y="1978.5" width="80" height="10" as="geometry" />
        </mxCell>
        <mxCell id="4u6Bk__YJ9N9gN4nhSER-239" value="" style="endArrow=classic;html=1;fontSize=7;entryX=0;entryY=0.986;entryDx=0;entryDy=0;entryPerimeter=0;" parent="1" edge="1">
          <mxGeometry width="50" height="50" relative="1" as="geometry">
            <mxPoint x="2280" y="2415.67" as="sourcePoint" />
            <mxPoint x="2879.88" y="2414.33" as="targetPoint" />
          </mxGeometry>
        </mxCell>
        <mxCell id="4u6Bk__YJ9N9gN4nhSER-240" value="Result-ALU" style="text;html=1;align=center;verticalAlign=middle;resizable=0;points=[];autosize=1;fontSize=7;" parent="1" vertex="1">
          <mxGeometry x="2320" y="2405" width="50" height="10" as="geometry" />
        </mxCell>
        <mxCell id="4u6Bk__YJ9N9gN4nhSER-241" value="&lt;b&gt;&lt;font style=&quot;font-size: 21px&quot;&gt;MUX&lt;/font&gt;&lt;/b&gt;" style="shape=trapezoid;perimeter=trapezoidPerimeter;whiteSpace=wrap;html=1;rotation=90;" parent="1" vertex="1">
          <mxGeometry x="3012" y="1922.25" width="90.41" height="35.5" as="geometry" />
        </mxCell>
        <mxCell id="4u6Bk__YJ9N9gN4nhSER-243" value="" style="endArrow=classic;html=1;fontSize=7;entryX=0.552;entryY=0.985;entryDx=0;entryDy=0;entryPerimeter=0;" parent="1" target="4u6Bk__YJ9N9gN4nhSER-241" edge="1">
          <mxGeometry width="50" height="50" relative="1" as="geometry">
            <mxPoint x="2920" y="1944.7100000000005" as="sourcePoint" />
            <mxPoint x="3020" y="1944.71" as="targetPoint" />
          </mxGeometry>
        </mxCell>
        <mxCell id="4u6Bk__YJ9N9gN4nhSER-244" value="Result-ALU[32-bits]" style="text;html=1;align=center;verticalAlign=middle;resizable=0;points=[];autosize=1;fontSize=7;" parent="1" vertex="1">
          <mxGeometry x="2920" y="1933" width="80" height="10" as="geometry" />
        </mxCell>
        <mxCell id="4u6Bk__YJ9N9gN4nhSER-245" value="" style="endArrow=classic;html=1;fontSize=7;entryX=0.826;entryY=0.985;entryDx=0;entryDy=0;entryPerimeter=0;" parent="1" target="4u6Bk__YJ9N9gN4nhSER-241" edge="1">
          <mxGeometry width="50" height="50" relative="1" as="geometry">
            <mxPoint x="2920" y="1969.4300000000005" as="sourcePoint" />
            <mxPoint x="3020" y="1969.43" as="targetPoint" />
          </mxGeometry>
        </mxCell>
        <mxCell id="4u6Bk__YJ9N9gN4nhSER-246" value="Data-MEM[32-bits]" style="text;html=1;align=center;verticalAlign=middle;resizable=0;points=[];autosize=1;fontSize=7;" parent="1" vertex="1">
          <mxGeometry x="2920" y="1957.75" width="80" height="10" as="geometry" />
        </mxCell>
        <mxCell id="4u6Bk__YJ9N9gN4nhSER-249" value="Rscr1out" style="text;html=1;align=center;verticalAlign=middle;resizable=0;points=[];autosize=1;fontSize=7;" parent="1" vertex="1">
          <mxGeometry x="960" y="1955.75" width="50" height="10" as="geometry" />
        </mxCell>
        <mxCell id="4u6Bk__YJ9N9gN4nhSER-250" value="Rscr2out" style="text;html=1;align=center;verticalAlign=middle;resizable=0;points=[];autosize=1;fontSize=7;" parent="1" vertex="1">
          <mxGeometry x="960" y="1995" width="50" height="10" as="geometry" />
        </mxCell>
        <mxCell id="4u6Bk__YJ9N9gN4nhSER-251" value="" style="endArrow=classic;html=1;fontSize=7;" parent="1" edge="1">
          <mxGeometry width="50" height="50" relative="1" as="geometry">
            <mxPoint x="1010" y="2000" as="sourcePoint" />
            <mxPoint x="1440" y="2000" as="targetPoint" />
          </mxGeometry>
        </mxCell>
        <mxCell id="4u6Bk__YJ9N9gN4nhSER-252" value="" style="endArrow=classic;html=1;fontSize=7;" parent="1" edge="1">
          <mxGeometry width="50" height="50" relative="1" as="geometry">
            <mxPoint x="1010" y="1960" as="sourcePoint" />
            <mxPoint x="1440" y="1960" as="targetPoint" />
          </mxGeometry>
        </mxCell>
        <mxCell id="4u6Bk__YJ9N9gN4nhSER-253" value="" style="endArrow=classic;html=1;fontSize=7;exitX=1.006;exitY=0.456;exitDx=0;exitDy=0;exitPerimeter=0;entryX=0.678;entryY=0.977;entryDx=0;entryDy=0;entryPerimeter=0;" parent="1" target="4u6Bk__YJ9N9gN4nhSER-289" edge="1">
          <mxGeometry width="50" height="50" relative="1" as="geometry">
            <mxPoint x="1480" y="2189.36" as="sourcePoint" />
            <mxPoint x="1561.4399999999998" y="2189.7" as="targetPoint" />
          </mxGeometry>
        </mxCell>
        <mxCell id="4u6Bk__YJ9N9gN4nhSER-254" value="" style="endArrow=classic;html=1;fontSize=7;exitX=1.021;exitY=0.456;exitDx=0;exitDy=0;exitPerimeter=0;entryX=0.659;entryY=0.972;entryDx=0;entryDy=0;entryPerimeter=0;" parent="1" target="J_n0-YOa4G56IStiHrvc-1" edge="1">
          <mxGeometry width="50" height="50" relative="1" as="geometry">
            <mxPoint x="1480" y="1959.9999999999998" as="sourcePoint" />
            <mxPoint x="1543.4456400000001" y="1959.7839999999997" as="targetPoint" />
          </mxGeometry>
        </mxCell>
        <mxCell id="4u6Bk__YJ9N9gN4nhSER-255" value="Rsrc1[32-bits]" style="text;html=1;align=center;verticalAlign=middle;resizable=0;points=[];autosize=1;fontSize=7;" parent="1" vertex="1">
          <mxGeometry x="1477.84" y="1949.3600000000001" width="60" height="10" as="geometry" />
        </mxCell>
        <mxCell id="4u6Bk__YJ9N9gN4nhSER-256" value="Rsrc2[32-bits]" style="text;html=1;align=center;verticalAlign=middle;resizable=0;points=[];autosize=1;fontSize=7;" parent="1" vertex="1">
          <mxGeometry x="1476" y="2177.25" width="60" height="10" as="geometry" />
        </mxCell>
        <mxCell id="4u6Bk__YJ9N9gN4nhSER-259" value="Cin" style="text;html=1;align=center;verticalAlign=middle;resizable=0;points=[];autosize=1;fontSize=7;" parent="1" vertex="1">
          <mxGeometry x="1535" y="1980" width="30" height="10" as="geometry" />
        </mxCell>
        <mxCell id="4u6Bk__YJ9N9gN4nhSER-265" style="edgeStyle=orthogonalEdgeStyle;rounded=0;orthogonalLoop=1;jettySize=auto;html=1;entryX=0.5;entryY=1;entryDx=0;entryDy=0;fontSize=7;" parent="1" target="4u6Bk__YJ9N9gN4nhSER-208" edge="1">
          <mxGeometry relative="1" as="geometry">
            <mxPoint x="1780" y="1900" as="sourcePoint" />
          </mxGeometry>
        </mxCell>
        <mxCell id="4u6Bk__YJ9N9gN4nhSER-261" value="" style="endArrow=classic;html=1;fontSize=7;" parent="1" edge="1">
          <mxGeometry width="50" height="50" relative="1" as="geometry">
            <mxPoint x="1800" y="1990" as="sourcePoint" />
            <mxPoint x="1800" y="1940" as="targetPoint" />
          </mxGeometry>
        </mxCell>
        <mxCell id="4u6Bk__YJ9N9gN4nhSER-269" style="edgeStyle=orthogonalEdgeStyle;rounded=0;orthogonalLoop=1;jettySize=auto;html=1;entryX=0.5;entryY=1;entryDx=0;entryDy=0;fontSize=7;" parent="1" edge="1">
          <mxGeometry relative="1" as="geometry">
            <mxPoint x="1820" y="1900" as="sourcePoint" />
            <mxPoint x="1820" y="1880" as="targetPoint" />
          </mxGeometry>
        </mxCell>
        <mxCell id="4u6Bk__YJ9N9gN4nhSER-272" value="Detecting the value of ZF and NF" style="rounded=0;whiteSpace=wrap;html=1;labelBackgroundColor=none;fontSize=7;" parent="1" vertex="1">
          <mxGeometry x="1760" y="1900" width="80" height="40" as="geometry" />
        </mxCell>
        <mxCell id="4u6Bk__YJ9N9gN4nhSER-274" value="" style="endArrow=classic;html=1;fontSize=7;entryX=0;entryY=0.867;entryDx=0;entryDy=0;entryPerimeter=0;exitX=0.5;exitY=0;exitDx=0;exitDy=0;" parent="1" source="4u6Bk__YJ9N9gN4nhSER-241" edge="1">
          <mxGeometry width="50" height="50" relative="1" as="geometry">
            <mxPoint x="3080" y="1940" as="sourcePoint" />
            <mxPoint x="880.0000000000001" y="2021.0099999999998" as="targetPoint" />
            <Array as="points">
              <mxPoint x="3160" y="1940" />
              <mxPoint x="3160" y="2520" />
              <mxPoint x="830" y="2520" />
              <mxPoint x="830" y="2020" />
            </Array>
          </mxGeometry>
        </mxCell>
        <mxCell id="4u6Bk__YJ9N9gN4nhSER-278" value="Output of the mux incase of the branch condition (JZ,JN,JC,JMP )" style="text;html=1;align=center;verticalAlign=middle;resizable=0;points=[];autosize=1;fontSize=7;rotation=0;" parent="1" vertex="1">
          <mxGeometry x="2492.5" y="2443" width="230" height="10" as="geometry" />
        </mxCell>
        <mxCell id="4u6Bk__YJ9N9gN4nhSER-282" value="&lt;h1 style=&quot;text-align: left&quot;&gt;&lt;span style=&quot;font-weight: normal&quot;&gt;&lt;font style=&quot;font-size: 8px&quot;&gt;Read register 2&lt;/font&gt;&lt;/span&gt;&lt;/h1&gt;" style="text;html=1;align=center;verticalAlign=middle;resizable=0;points=[];autosize=1;fontSize=7;" parent="1" vertex="1">
          <mxGeometry x="887" y="1943" width="56" height="6" as="geometry" />
        </mxCell>
        <mxCell id="4u6Bk__YJ9N9gN4nhSER-283" value="&lt;h1 style=&quot;text-align: left&quot;&gt;&lt;span style=&quot;font-weight: normal&quot;&gt;&lt;font style=&quot;font-size: 8px&quot;&gt;Read register 1&lt;/font&gt;&lt;/span&gt;&lt;/h1&gt;" style="text;html=1;align=center;verticalAlign=middle;resizable=0;points=[];autosize=1;fontSize=7;" parent="1" vertex="1">
          <mxGeometry x="880" y="1912" width="70" height="30" as="geometry" />
        </mxCell>
        <mxCell id="4u6Bk__YJ9N9gN4nhSER-286" value="" style="endArrow=classic;html=1;fontSize=7;exitX=1.065;exitY=0.11;exitDx=0;exitDy=0;exitPerimeter=0;fillColor=#0050ef;strokeColor=#001DBC;" parent="1" source="4u6Bk__YJ9N9gN4nhSER-32" edge="1">
          <mxGeometry width="50" height="50" relative="1" as="geometry">
            <mxPoint x="2960" y="1720" as="sourcePoint" />
            <mxPoint x="960" y="1919" as="targetPoint" />
            <Array as="points">
              <mxPoint x="2960" y="1719" />
              <mxPoint x="2960" y="1620" />
              <mxPoint x="1040" y="1620" />
              <mxPoint x="1040" y="1840" />
              <mxPoint x="960" y="1840" />
            </Array>
          </mxGeometry>
        </mxCell>
        <mxCell id="4u6Bk__YJ9N9gN4nhSER-288" value="Write Enable [1-bit]" style="text;html=1;align=center;verticalAlign=middle;resizable=0;points=[];autosize=1;fontSize=7;rotation=-90;fontColor=#3333FF;" parent="1" vertex="1">
          <mxGeometry x="915" y="1865" width="80" height="10" as="geometry" />
        </mxCell>
        <mxCell id="4u6Bk__YJ9N9gN4nhSER-289" value="&lt;b&gt;&lt;font style=&quot;font-size: 12px&quot;&gt;MUX&lt;/font&gt;&lt;/b&gt;" style="shape=trapezoid;perimeter=trapezoidPerimeter;whiteSpace=wrap;html=1;rotation=90;" parent="1" vertex="1">
          <mxGeometry x="1520" y="2170" width="55" height="20" as="geometry" />
        </mxCell>
        <mxCell id="4u6Bk__YJ9N9gN4nhSER-291" value="[31-0]" style="text;html=1;align=center;verticalAlign=middle;resizable=0;points=[];autosize=1;fontSize=7;" parent="1" vertex="1">
          <mxGeometry x="600" y="1910" width="30" height="10" as="geometry" />
        </mxCell>
        <mxCell id="4u6Bk__YJ9N9gN4nhSER-292" value="" style="endArrow=classic;html=1;fontSize=7;exitX=1.043;exitY=0.147;exitDx=0;exitDy=0;entryX=0;entryY=0.483;entryDx=0;entryDy=0;entryPerimeter=0;exitPerimeter=0;" parent="1" edge="1">
          <mxGeometry width="50" height="50" relative="1" as="geometry">
            <mxPoint x="681.72" y="1769.0700000000002" as="sourcePoint" />
            <mxPoint x="900" y="1769.9599999999998" as="targetPoint" />
          </mxGeometry>
        </mxCell>
        <mxCell id="4u6Bk__YJ9N9gN4nhSER-293" value="Function code [29-27]" style="text;html=1;align=center;verticalAlign=middle;resizable=0;points=[];autosize=1;fontSize=7;" parent="1" vertex="1">
          <mxGeometry x="790" y="1760" width="90" height="10" as="geometry" />
        </mxCell>
        <mxCell id="4u6Bk__YJ9N9gN4nhSER-296" value="IMM/EA &lt;br&gt;[32-bits]" style="text;html=1;align=center;verticalAlign=middle;resizable=0;points=[];autosize=1;fontSize=7;" parent="1" vertex="1">
          <mxGeometry x="1485" y="2140" width="40" height="20" as="geometry" />
        </mxCell>
        <mxCell id="4u6Bk__YJ9N9gN4nhSER-298" value="" style="endArrow=classic;html=1;fontSize=7;exitX=1.006;exitY=0.556;exitDx=0;exitDy=0;exitPerimeter=0;entryX=0;entryY=0.5;entryDx=0;entryDy=0;" parent="1" target="4u6Bk__YJ9N9gN4nhSER-299" edge="1">
          <mxGeometry width="50" height="50" relative="1" as="geometry">
            <mxPoint x="680.24" y="2160.36" as="sourcePoint" />
            <mxPoint x="1000" y="2160" as="targetPoint" />
          </mxGeometry>
        </mxCell>
        <mxCell id="4u6Bk__YJ9N9gN4nhSER-317" style="edgeStyle=orthogonalEdgeStyle;rounded=0;orthogonalLoop=1;jettySize=auto;html=1;fontSize=7;entryX=0;entryY=0.654;entryDx=0;entryDy=0;entryPerimeter=0;" parent="1" source="4u6Bk__YJ9N9gN4nhSER-299" target="4u6Bk__YJ9N9gN4nhSER-30" edge="1">
          <mxGeometry relative="1" as="geometry">
            <mxPoint x="1400" y="2160" as="targetPoint" />
          </mxGeometry>
        </mxCell>
        <mxCell id="4u6Bk__YJ9N9gN4nhSER-299" value="load control/sign extend" style="ellipse;whiteSpace=wrap;html=1;labelBackgroundColor=none;fontSize=7;" parent="1" vertex="1">
          <mxGeometry x="1020" y="2120" width="60" height="80" as="geometry" />
        </mxCell>
        <mxCell id="4u6Bk__YJ9N9gN4nhSER-300" value="IMM/EA [20-1]" style="text;html=1;align=center;verticalAlign=middle;resizable=0;points=[];autosize=1;fontSize=7;" parent="1" vertex="1">
          <mxGeometry x="855" y="2150" width="60" height="10" as="geometry" />
        </mxCell>
        <mxCell id="4u6Bk__YJ9N9gN4nhSER-303" value="" style="endArrow=classic;html=1;fontSize=7;entryX=0.136;entryY=1.009;entryDx=0;entryDy=0;entryPerimeter=0;exitX=1;exitY=0.654;exitDx=0;exitDy=0;exitPerimeter=0;" parent="1" source="4u6Bk__YJ9N9gN4nhSER-30" target="4u6Bk__YJ9N9gN4nhSER-289" edge="1">
          <mxGeometry width="50" height="50" relative="1" as="geometry">
            <mxPoint x="1490" y="2160" as="sourcePoint" />
            <mxPoint x="1530" y="2160" as="targetPoint" />
          </mxGeometry>
        </mxCell>
        <mxCell id="4u6Bk__YJ9N9gN4nhSER-304" value="" style="endArrow=classic;html=1;fontSize=7;exitX=0.5;exitY=0;exitDx=0;exitDy=0;entryX=0.838;entryY=1.072;entryDx=0;entryDy=0;entryPerimeter=0;" parent="1" source="4u6Bk__YJ9N9gN4nhSER-289" target="T4Knhte3SUwD-FYIo6XV-102" edge="1">
          <mxGeometry width="50" height="50" relative="1" as="geometry">
            <mxPoint x="1630" y="2200" as="sourcePoint" />
            <mxPoint x="1548" y="2010" as="targetPoint" />
            <Array as="points">
              <mxPoint x="1600" y="2180" />
              <mxPoint x="1600" y="2120" />
              <mxPoint x="1520" y="2120" />
              <mxPoint x="1520" y="2030" />
            </Array>
          </mxGeometry>
        </mxCell>
        <mxCell id="4u6Bk__YJ9N9gN4nhSER-305" value="" style="endArrow=classic;html=1;fontSize=7;exitX=0.875;exitY=0.817;exitDx=0;exitDy=0;exitPerimeter=0;entryX=0.5;entryY=0;entryDx=0;entryDy=0;fillColor=#0050ef;strokeColor=#001DBC;" parent="1" source="4u6Bk__YJ9N9gN4nhSER-43" target="4u6Bk__YJ9N9gN4nhSER-299" edge="1">
          <mxGeometry width="50" height="50" relative="1" as="geometry">
            <mxPoint x="1000" y="1790" as="sourcePoint" />
            <mxPoint x="1050" y="2110" as="targetPoint" />
            <Array as="points">
              <mxPoint x="1050" y="1790" />
            </Array>
          </mxGeometry>
        </mxCell>
        <mxCell id="4u6Bk__YJ9N9gN4nhSER-306" value="Rscr1-&lt;span style=&quot;text-align: left&quot;&gt;address&lt;/span&gt;[3-bits]" style="text;html=1;align=center;verticalAlign=middle;resizable=0;points=[];autosize=1;fontSize=7;" parent="1" vertex="1">
          <mxGeometry x="762" y="1880" width="80" height="10" as="geometry" />
        </mxCell>
        <mxCell id="4u6Bk__YJ9N9gN4nhSER-309" value="" style="endArrow=classic;html=1;fontSize=7;exitX=1.006;exitY=0.556;exitDx=0;exitDy=0;exitPerimeter=0;entryX=0;entryY=0.752;entryDx=0;entryDy=0;entryPerimeter=0;" parent="1" edge="1">
          <mxGeometry width="50" height="50" relative="1" as="geometry">
            <mxPoint x="680" y="2360" as="sourcePoint" />
            <mxPoint x="1440" y="2359.12" as="targetPoint" />
          </mxGeometry>
        </mxCell>
        <mxCell id="4u6Bk__YJ9N9gN4nhSER-311" value="" style="endArrow=classic;html=1;fontSize=7;exitX=1.006;exitY=0.556;exitDx=0;exitDy=0;exitPerimeter=0;" parent="1" edge="1">
          <mxGeometry width="50" height="50" relative="1" as="geometry">
            <mxPoint x="1479" y="2359.9999999999995" as="sourcePoint" />
            <mxPoint x="1760" y="2359" as="targetPoint" />
          </mxGeometry>
        </mxCell>
        <mxCell id="4u6Bk__YJ9N9gN4nhSER-312" value="&lt;span style=&quot;text-align: left&quot;&gt;Rdst-address&lt;/span&gt;&lt;span style=&quot;text-align: left&quot;&gt;[3-bits]&lt;/span&gt;" style="text;html=1;align=center;verticalAlign=middle;resizable=0;points=[];autosize=1;fontSize=7;rotation=0;" parent="1" vertex="1">
          <mxGeometry x="1537" y="2349" width="80" height="10" as="geometry" />
        </mxCell>
        <mxCell id="4u6Bk__YJ9N9gN4nhSER-314" value="" style="endArrow=classic;html=1;fontSize=7;exitX=1.006;exitY=0.556;exitDx=0;exitDy=0;exitPerimeter=0;" parent="1" edge="1">
          <mxGeometry width="50" height="50" relative="1" as="geometry">
            <mxPoint x="2279.9999999999995" y="2359.9999999999995" as="sourcePoint" />
            <mxPoint x="2880" y="2359" as="targetPoint" />
          </mxGeometry>
        </mxCell>
        <mxCell id="4u6Bk__YJ9N9gN4nhSER-316" value="" style="endArrow=classic;html=1;fontSize=7;entryX=0.009;entryY=0.181;entryDx=0;entryDy=0;entryPerimeter=0;" parent="1" edge="1">
          <mxGeometry width="50" height="50" relative="1" as="geometry">
            <mxPoint x="2921" y="2363" as="sourcePoint" />
            <mxPoint x="880.63" y="2000.4300000000003" as="targetPoint" />
            <Array as="points">
              <mxPoint x="3000" y="2363" />
              <mxPoint x="3000" y="2560" />
              <mxPoint x="760" y="2560" />
              <mxPoint x="760" y="2000" />
            </Array>
          </mxGeometry>
        </mxCell>
        <mxCell id="4u6Bk__YJ9N9gN4nhSER-318" value="" style="endArrow=classic;html=1;fontSize=7;entryX=0;entryY=0.605;entryDx=0;entryDy=0;entryPerimeter=0;exitX=0.962;exitY=0.735;exitDx=0;exitDy=0;exitPerimeter=0;fillColor=#0050ef;strokeColor=#001DBC;" parent="1" source="4u6Bk__YJ9N9gN4nhSER-43" target="4u6Bk__YJ9N9gN4nhSER-30" edge="1">
          <mxGeometry width="50" height="50" relative="1" as="geometry">
            <mxPoint x="990" y="1780" as="sourcePoint" />
            <mxPoint x="1400" y="2080" as="targetPoint" />
            <Array as="points">
              <mxPoint x="1080" y="1780" />
              <mxPoint x="1080" y="2080" />
              <mxPoint x="1400" y="2080" />
              <mxPoint x="1400" y="2120" />
            </Array>
          </mxGeometry>
        </mxCell>
        <mxCell id="4u6Bk__YJ9N9gN4nhSER-319" value="Regsrc control signal" style="text;html=1;align=center;verticalAlign=middle;resizable=0;points=[];autosize=1;fontSize=7;fontColor=#3333FF;" parent="1" vertex="1">
          <mxGeometry x="1205" y="2070" width="90" height="10" as="geometry" />
        </mxCell>
        <mxCell id="4u6Bk__YJ9N9gN4nhSER-320" value="" style="endArrow=classic;html=1;fontSize=7;exitX=1.034;exitY=0.605;exitDx=0;exitDy=0;exitPerimeter=0;entryX=0.087;entryY=0.409;entryDx=0;entryDy=0;entryPerimeter=0;strokeColor=#3333FF;" parent="1" source="4u6Bk__YJ9N9gN4nhSER-30" target="4u6Bk__YJ9N9gN4nhSER-289" edge="1">
          <mxGeometry width="50" height="50" relative="1" as="geometry">
            <mxPoint x="1500" y="2120" as="sourcePoint" />
            <mxPoint x="1550" y="2120" as="targetPoint" />
            <Array as="points">
              <mxPoint x="1520" y="2120" />
              <mxPoint x="1520" y="2140" />
              <mxPoint x="1549" y="2140" />
            </Array>
          </mxGeometry>
        </mxCell>
        <mxCell id="4u6Bk__YJ9N9gN4nhSER-323" value="Write enable [1-bit]" style="text;html=1;align=center;verticalAlign=middle;resizable=0;points=[];autosize=1;fontSize=7;fontColor=#3333FF;" parent="1" vertex="1">
          <mxGeometry x="970" y="1760" width="80" height="10" as="geometry" />
        </mxCell>
        <mxCell id="4u6Bk__YJ9N9gN4nhSER-324" value="" style="endArrow=classic;html=1;fontSize=7;entryX=0;entryY=0.159;entryDx=0;entryDy=0;entryPerimeter=0;fillColor=#0050ef;strokeColor=#001DBC;" parent="1" edge="1">
          <mxGeometry width="50" height="50" relative="1" as="geometry">
            <mxPoint x="980" y="1769" as="sourcePoint" />
            <mxPoint x="1440" y="1768.7900000000002" as="targetPoint" />
          </mxGeometry>
        </mxCell>
        <mxCell id="4u6Bk__YJ9N9gN4nhSER-325" value="Write enable[1-bits]" style="text;html=1;align=center;verticalAlign=middle;resizable=0;points=[];autosize=1;fontSize=7;fontColor=#3333FF;" parent="1" vertex="1">
          <mxGeometry x="1474.04" y="1710" width="80" height="10" as="geometry" />
        </mxCell>
        <mxCell id="4u6Bk__YJ9N9gN4nhSER-326" value="" style="endArrow=classic;html=1;fontSize=7;entryX=0;entryY=0.111;entryDx=0;entryDy=0;entryPerimeter=0;strokeColor=#3333FF;" parent="1" target="4u6Bk__YJ9N9gN4nhSER-31" edge="1">
          <mxGeometry width="50" height="50" relative="1" as="geometry">
            <mxPoint x="1479.76" y="1720.21" as="sourcePoint" />
            <mxPoint x="2230" y="1720" as="targetPoint" />
          </mxGeometry>
        </mxCell>
        <mxCell id="4u6Bk__YJ9N9gN4nhSER-327" value="" style="endArrow=classic;html=1;fontSize=7;fontColor=#3333FF;strokeColor=#3333FF;" parent="1" edge="1">
          <mxGeometry width="50" height="50" relative="1" as="geometry">
            <mxPoint x="2279.76" y="1720.21" as="sourcePoint" />
            <mxPoint x="2875" y="1720" as="targetPoint" />
          </mxGeometry>
        </mxCell>
        <mxCell id="4u6Bk__YJ9N9gN4nhSER-328" value="Write enable[1-bit]" style="text;html=1;align=center;verticalAlign=middle;resizable=0;points=[];autosize=1;fontSize=7;fontColor=#3333FF;" parent="1" vertex="1">
          <mxGeometry x="2310" y="1710" width="80" height="10" as="geometry" />
        </mxCell>
        <mxCell id="4u6Bk__YJ9N9gN4nhSER-331" value="Rscr1-address[3-bits]" style="text;html=1;align=center;verticalAlign=middle;resizable=0;points=[];autosize=1;fontSize=7;rotation=0;" parent="1" vertex="1">
          <mxGeometry x="835" y="2336" width="90" height="10" as="geometry" />
        </mxCell>
        <mxCell id="4u6Bk__YJ9N9gN4nhSER-332" value="" style="endArrow=classic;html=1;fontSize=7;exitX=1.006;exitY=0.556;exitDx=0;exitDy=0;exitPerimeter=0;entryX=0;entryY=0.752;entryDx=0;entryDy=0;entryPerimeter=0;" parent="1" edge="1">
          <mxGeometry width="50" height="50" relative="1" as="geometry">
            <mxPoint x="680" y="2346" as="sourcePoint" />
            <mxPoint x="1440" y="2345.12" as="targetPoint" />
          </mxGeometry>
        </mxCell>
        <mxCell id="4u6Bk__YJ9N9gN4nhSER-333" value="" style="endArrow=classic;html=1;fontSize=7;exitX=1.006;exitY=0.556;exitDx=0;exitDy=0;exitPerimeter=0;" parent="1" edge="1">
          <mxGeometry width="50" height="50" relative="1" as="geometry">
            <mxPoint x="1479" y="2345.9999999999995" as="sourcePoint" />
            <mxPoint x="1760" y="2345" as="targetPoint" />
          </mxGeometry>
        </mxCell>
        <mxCell id="4u6Bk__YJ9N9gN4nhSER-334" value="&lt;span style=&quot;text-align: left&quot;&gt;Rscr1-address&lt;/span&gt;&lt;span style=&quot;text-align: left&quot;&gt;[3-bits]&lt;/span&gt;" style="text;html=1;align=center;verticalAlign=middle;resizable=0;points=[];autosize=1;fontSize=7;rotation=0;" parent="1" vertex="1">
          <mxGeometry x="1532" y="2335" width="90" height="10" as="geometry" />
        </mxCell>
        <mxCell id="4u6Bk__YJ9N9gN4nhSER-337" value="" style="endArrow=classic;html=1;fontSize=7;exitX=0.554;exitY=-0.004;exitDx=0;exitDy=0;exitPerimeter=0;entryX=0.023;entryY=0.901;entryDx=0;entryDy=0;entryPerimeter=0;" parent="1" source="4u6Bk__YJ9N9gN4nhSER-340" target="4u6Bk__YJ9N9gN4nhSER-31" edge="1">
          <mxGeometry width="50" height="50" relative="1" as="geometry">
            <mxPoint x="1789.9999999999995" y="2349.9999999999995" as="sourcePoint" />
            <mxPoint x="2390.0000000000005" y="2349" as="targetPoint" />
          </mxGeometry>
        </mxCell>
        <mxCell id="4u6Bk__YJ9N9gN4nhSER-340" value="&lt;b&gt;&lt;font style=&quot;font-size: 21px&quot;&gt;MUX&lt;/font&gt;&lt;/b&gt;" style="shape=trapezoid;perimeter=trapezoidPerimeter;whiteSpace=wrap;html=1;rotation=90;" parent="1" vertex="1">
          <mxGeometry x="1740" y="2341" width="70.41" height="30" as="geometry" />
        </mxCell>
        <mxCell id="4u6Bk__YJ9N9gN4nhSER-342" value="Reg-Dst selector&amp;nbsp; &amp;nbsp; &amp;nbsp;[1-bit]" style="text;html=1;align=center;verticalAlign=middle;resizable=0;points=[];autosize=1;fontSize=7;fontColor=#3333FF;" parent="1" vertex="1">
          <mxGeometry x="970" y="1720.2" width="100" height="10" as="geometry" />
        </mxCell>
        <mxCell id="4u6Bk__YJ9N9gN4nhSER-343" value="" style="endArrow=classic;html=1;fontSize=7;entryX=0;entryY=0.136;entryDx=0;entryDy=0;entryPerimeter=0;exitX=0.038;exitY=0.997;exitDx=0;exitDy=0;exitPerimeter=0;fillColor=#0050ef;strokeColor=#001DBC;" parent="1" source="4u6Bk__YJ9N9gN4nhSER-342" edge="1">
          <mxGeometry width="50" height="50" relative="1" as="geometry">
            <mxPoint x="980" y="1729.4299999999998" as="sourcePoint" />
            <mxPoint x="1440" y="1729.4700000000003" as="targetPoint" />
          </mxGeometry>
        </mxCell>
        <mxCell id="4u6Bk__YJ9N9gN4nhSER-344" value="Reg-Dst selector&amp;nbsp; &amp;nbsp; &amp;nbsp;[1-bit]" style="text;html=1;align=center;verticalAlign=middle;resizable=0;points=[];autosize=1;fontSize=7;fontColor=#3333FF;" parent="1" vertex="1">
          <mxGeometry x="1477.84" y="1720.2" width="100" height="10" as="geometry" />
        </mxCell>
        <mxCell id="4u6Bk__YJ9N9gN4nhSER-345" value="" style="endArrow=classic;html=1;fontSize=7;exitX=1;exitY=0.401;exitDx=0;exitDy=0;exitPerimeter=0;entryX=0;entryY=0.5;entryDx=0;entryDy=0;strokeColor=#3333FF;" parent="1" target="4u6Bk__YJ9N9gN4nhSER-340" edge="1">
          <mxGeometry width="50" height="50" relative="1" as="geometry">
            <mxPoint x="1480" y="1730.12" as="sourcePoint" />
            <mxPoint x="1810" y="2230" as="targetPoint" />
            <Array as="points">
              <mxPoint x="1880" y="1730" />
              <mxPoint x="1880" y="2030" />
              <mxPoint x="1775" y="2030" />
            </Array>
          </mxGeometry>
        </mxCell>
        <mxCell id="4u6Bk__YJ9N9gN4nhSER-346" value="Reg-writeback-address[3-bits]" style="text;html=1;align=center;verticalAlign=middle;resizable=0;points=[];autosize=1;fontSize=7;rotation=0;" parent="1" vertex="1">
          <mxGeometry x="1955" y="2348" width="110" height="10" as="geometry" />
        </mxCell>
        <mxCell id="4u6Bk__YJ9N9gN4nhSER-347" value="IMM/EA [32-bits]" style="text;html=1;align=center;verticalAlign=middle;resizable=0;points=[];autosize=1;fontSize=7;" parent="1" vertex="1">
          <mxGeometry x="1245" y="2150" width="70" height="10" as="geometry" />
        </mxCell>
        <mxCell id="djSDpx1OMvx2S-5FDEnU-1" value="Regsrc control signal [1-bits]" style="text;html=1;align=center;verticalAlign=middle;resizable=0;points=[];autosize=1;fontSize=7;fontColor=#3333FF;" parent="1" vertex="1">
          <mxGeometry x="970" y="1770" width="110" height="10" as="geometry" />
        </mxCell>
        <mxCell id="djSDpx1OMvx2S-5FDEnU-2" value="" style="endArrow=classic;html=1;exitX=1.017;exitY=0.438;exitDx=0;exitDy=0;exitPerimeter=0;entryX=0.8;entryY=1;entryDx=0;entryDy=0;entryPerimeter=0;" parent="1" target="djSDpx1OMvx2S-5FDEnU-76" edge="1">
          <mxGeometry width="50" height="50" relative="1" as="geometry">
            <mxPoint x="2280.68" y="1988.7800000000002" as="sourcePoint" />
            <mxPoint x="2535.467" y="1987.27745" as="targetPoint" />
          </mxGeometry>
        </mxCell>
        <mxCell id="djSDpx1OMvx2S-5FDEnU-3" value="Address" style="text;html=1;align=center;verticalAlign=middle;resizable=0;points=[];autosize=1;" parent="1" vertex="1">
          <mxGeometry x="2690" y="1950" width="60" height="20" as="geometry" />
        </mxCell>
        <mxCell id="djSDpx1OMvx2S-5FDEnU-4" value="Read data" style="text;html=1;align=center;verticalAlign=middle;resizable=0;points=[];autosize=1;" parent="1" vertex="1">
          <mxGeometry x="2750" y="1949.43" width="70" height="20" as="geometry" />
        </mxCell>
        <mxCell id="djSDpx1OMvx2S-5FDEnU-6" value="&lt;font style=&quot;font-size: 6px&quot;&gt;Data-MEM&lt;br&gt;[32-bits]&lt;/font&gt;" style="text;html=1;align=center;verticalAlign=middle;resizable=0;points=[];autosize=1;fontSize=7;" parent="1" vertex="1">
          <mxGeometry x="2822.41" y="1937.75" width="50" height="20" as="geometry" />
        </mxCell>
        <mxCell id="djSDpx1OMvx2S-5FDEnU-8" value="" style="endArrow=classic;html=1;" parent="1" edge="1">
          <mxGeometry width="50" height="50" relative="1" as="geometry">
            <mxPoint x="2480" y="2110" as="sourcePoint" />
            <mxPoint x="2546" y="2110" as="targetPoint" />
            <Array as="points" />
          </mxGeometry>
        </mxCell>
        <mxCell id="djSDpx1OMvx2S-5FDEnU-9" value="Write data" style="text;html=1;align=center;verticalAlign=middle;resizable=0;points=[];autosize=1;" parent="1" vertex="1">
          <mxGeometry x="2690" y="2070" width="70" height="20" as="geometry" />
        </mxCell>
        <mxCell id="djSDpx1OMvx2S-5FDEnU-11" value="" style="endArrow=classic;html=1;entryX=0.19;entryY=1.044;entryDx=0;entryDy=0;entryPerimeter=0;exitX=1;exitY=0.531;exitDx=0;exitDy=0;exitPerimeter=0;" parent="1" source="4u6Bk__YJ9N9gN4nhSER-31" target="4u6Bk__YJ9N9gN4nhSER-186" edge="1">
          <mxGeometry width="50" height="50" relative="1" as="geometry">
            <mxPoint x="2290" y="2060" as="sourcePoint" />
            <mxPoint x="2520" y="2280" as="targetPoint" />
            <Array as="points">
              <mxPoint x="2480" y="2060" />
              <mxPoint x="2480" y="2280" />
            </Array>
          </mxGeometry>
        </mxCell>
        <mxCell id="djSDpx1OMvx2S-5FDEnU-15" value="JMP-NF[1-bit]" style="text;html=1;align=center;verticalAlign=middle;resizable=0;points=[];autosize=1;fontSize=7;fontColor=#3333FF;" parent="1" vertex="1">
          <mxGeometry x="965" y="1708.71" width="60" height="10" as="geometry" />
        </mxCell>
        <mxCell id="djSDpx1OMvx2S-5FDEnU-16" value="" style="endArrow=classic;html=1;fontSize=7;entryX=0;entryY=0.136;entryDx=0;entryDy=0;entryPerimeter=0;exitX=0.846;exitY=0.136;exitDx=0;exitDy=0;exitPerimeter=0;fillColor=#0050ef;strokeColor=#001DBC;" parent="1" source="4u6Bk__YJ9N9gN4nhSER-43" edge="1">
          <mxGeometry width="50" height="50" relative="1" as="geometry">
            <mxPoint x="980" y="1708.2299999999998" as="sourcePoint" />
            <mxPoint x="1440" y="1708.2700000000007" as="targetPoint" />
          </mxGeometry>
        </mxCell>
        <mxCell id="djSDpx1OMvx2S-5FDEnU-17" value="JMP-CF[1-bit]" style="text;html=1;align=center;verticalAlign=middle;resizable=0;points=[];autosize=1;fontSize=7;fontColor=#3333FF;" parent="1" vertex="1">
          <mxGeometry x="965" y="1698.1100000000001" width="60" height="10" as="geometry" />
        </mxCell>
        <mxCell id="djSDpx1OMvx2S-5FDEnU-18" value="" style="endArrow=classic;html=1;fontSize=7;entryX=0;entryY=0.136;entryDx=0;entryDy=0;entryPerimeter=0;exitX=0.702;exitY=0.047;exitDx=0;exitDy=0;exitPerimeter=0;fillColor=#0050ef;strokeColor=#001DBC;" parent="1" source="4u6Bk__YJ9N9gN4nhSER-43" edge="1">
          <mxGeometry width="50" height="50" relative="1" as="geometry">
            <mxPoint x="980" y="1697.6299999999997" as="sourcePoint" />
            <mxPoint x="1440" y="1697.670000000001" as="targetPoint" />
          </mxGeometry>
        </mxCell>
        <mxCell id="djSDpx1OMvx2S-5FDEnU-19" value="JMP-ZF[1-bit]" style="text;html=1;align=center;verticalAlign=middle;resizable=0;points=[];autosize=1;fontSize=7;fontColor=#3333FF;" parent="1" vertex="1">
          <mxGeometry x="965" y="1687.5100000000002" width="60" height="10" as="geometry" />
        </mxCell>
        <mxCell id="djSDpx1OMvx2S-5FDEnU-20" value="" style="endArrow=classic;html=1;fontSize=7;entryX=0;entryY=0.136;entryDx=0;entryDy=0;entryPerimeter=0;exitX=0.913;exitY=0.224;exitDx=0;exitDy=0;exitPerimeter=0;fillColor=#0050ef;strokeColor=#001DBC;" parent="1" edge="1">
          <mxGeometry width="50" height="50" relative="1" as="geometry">
            <mxPoint x="973.0400000000002" y="1718.7199999999998" as="sourcePoint" />
            <mxPoint x="1440" y="1718.7100000000003" as="targetPoint" />
          </mxGeometry>
        </mxCell>
        <mxCell id="djSDpx1OMvx2S-5FDEnU-21" value="" style="endArrow=classic;html=1;fontSize=7;exitX=0.022;exitY=0.995;exitDx=0;exitDy=0;exitPerimeter=0;entryX=0;entryY=0.096;entryDx=0;entryDy=0;entryPerimeter=0;strokeColor=#3333FF;" parent="1" target="4u6Bk__YJ9N9gN4nhSER-31" edge="1">
          <mxGeometry width="50" height="50" relative="1" as="geometry">
            <mxPoint x="1479.72" y="1707.8700000000001" as="sourcePoint" />
            <mxPoint x="2230" y="1708" as="targetPoint" />
          </mxGeometry>
        </mxCell>
        <mxCell id="djSDpx1OMvx2S-5FDEnU-22" value="" style="endArrow=classic;html=1;fontSize=7;exitX=0.015;exitY=0.989;exitDx=0;exitDy=0;exitPerimeter=0;entryX=-0.029;entryY=0.083;entryDx=0;entryDy=0;entryPerimeter=0;strokeColor=#3333FF;" parent="1" target="4u6Bk__YJ9N9gN4nhSER-31" edge="1">
          <mxGeometry width="50" height="50" relative="1" as="geometry">
            <mxPoint x="1479.44" y="1697.2100000000003" as="sourcePoint" />
            <mxPoint x="2230" y="1697" as="targetPoint" />
          </mxGeometry>
        </mxCell>
        <mxCell id="djSDpx1OMvx2S-5FDEnU-23" value="JMP-ZF[1-bits]" style="text;html=1;align=center;verticalAlign=middle;resizable=0;points=[];autosize=1;fontSize=7;fontColor=#3333FF;" parent="1" vertex="1">
          <mxGeometry x="1476.0000000000002" y="1676.7900000000002" width="60" height="10" as="geometry" />
        </mxCell>
        <mxCell id="djSDpx1OMvx2S-5FDEnU-24" value="" style="endArrow=classic;html=1;fontSize=7;exitX=0.991;exitY=0.07;exitDx=0;exitDy=0;exitPerimeter=0;entryX=0;entryY=0.07;entryDx=0;entryDy=0;entryPerimeter=0;strokeColor=#3333FF;" parent="1" source="4u6Bk__YJ9N9gN4nhSER-30" target="4u6Bk__YJ9N9gN4nhSER-31" edge="1">
          <mxGeometry width="50" height="50" relative="1" as="geometry">
            <mxPoint x="1470" y="1686.49" as="sourcePoint" />
            <mxPoint x="2230" y="1687" as="targetPoint" />
          </mxGeometry>
        </mxCell>
        <mxCell id="djSDpx1OMvx2S-5FDEnU-27" value="JMP-NF [1-bits]" style="text;html=1;align=center;verticalAlign=middle;resizable=0;points=[];autosize=1;fontSize=7;fontColor=#3333FF;" parent="1" vertex="1">
          <mxGeometry x="1473.0000000000002" y="1697.51" width="70" height="10" as="geometry" />
        </mxCell>
        <mxCell id="djSDpx1OMvx2S-5FDEnU-28" value="JMP-CF[1-bits]" style="text;html=1;align=center;verticalAlign=middle;resizable=0;points=[];autosize=1;fontSize=7;fontColor=#3333FF;" parent="1" vertex="1">
          <mxGeometry x="1472.5000000000002" y="1687.92" width="70" height="10" as="geometry" />
        </mxCell>
        <mxCell id="djSDpx1OMvx2S-5FDEnU-36" value="" style="endArrow=classic;html=1;fontSize=7;entryX=0;entryY=0.5;entryDx=0;entryDy=0;entryPerimeter=0;exitX=1;exitY=0.654;exitDx=0;exitDy=0;exitPerimeter=0;strokeColor=#3333FF;" parent="1" source="4u6Bk__YJ9N9gN4nhSER-31" edge="1">
          <mxGeometry width="50" height="50" relative="1" as="geometry">
            <mxPoint x="2320" y="2160" as="sourcePoint" />
            <mxPoint x="2350" y="2160" as="targetPoint" />
          </mxGeometry>
        </mxCell>
        <mxCell id="djSDpx1OMvx2S-5FDEnU-37" value="" style="endArrow=classic;html=1;fontSize=7;entryX=0;entryY=0.5;entryDx=0;entryDy=0;entryPerimeter=0;exitX=1;exitY=0.654;exitDx=0;exitDy=0;exitPerimeter=0;strokeColor=#3333FF;" parent="1" edge="1">
          <mxGeometry width="50" height="50" relative="1" as="geometry">
            <mxPoint x="2280" y="2210" as="sourcePoint" />
            <mxPoint x="2350" y="2210.26" as="targetPoint" />
          </mxGeometry>
        </mxCell>
        <mxCell id="djSDpx1OMvx2S-5FDEnU-39" value="" style="endArrow=classic;html=1;fontSize=7;entryX=0;entryY=0.5;entryDx=0;entryDy=0;entryPerimeter=0;exitX=1;exitY=0.654;exitDx=0;exitDy=0;exitPerimeter=0;strokeColor=#3333FF;" parent="1" edge="1">
          <mxGeometry width="50" height="50" relative="1" as="geometry">
            <mxPoint x="2280" y="2090" as="sourcePoint" />
            <mxPoint x="2350" y="2090.26" as="targetPoint" />
          </mxGeometry>
        </mxCell>
        <mxCell id="djSDpx1OMvx2S-5FDEnU-42" value="&lt;font style=&quot;font-size: 7px&quot;&gt;JMP-NF[1-bit]&lt;/font&gt;" style="text;html=1;align=center;verticalAlign=middle;resizable=0;points=[];autosize=1;spacing=0;fontColor=#3333FF;" parent="1" vertex="1">
          <mxGeometry x="2278" y="2070" width="60" height="20" as="geometry" />
        </mxCell>
        <mxCell id="djSDpx1OMvx2S-5FDEnU-43" value="&lt;font style=&quot;font-size: 7px&quot;&gt;JMP-CF&lt;/font&gt;&lt;span style=&quot;font-size: 7px&quot;&gt;[1-bit]&lt;/span&gt;" style="text;html=1;align=center;verticalAlign=middle;resizable=0;points=[];autosize=1;spacing=0;fontColor=#3333FF;" parent="1" vertex="1">
          <mxGeometry x="2278" y="2140" width="60" height="20" as="geometry" />
        </mxCell>
        <mxCell id="djSDpx1OMvx2S-5FDEnU-44" value="&lt;font style=&quot;font-size: 7px&quot;&gt;JMP-ZF&lt;/font&gt;&lt;span style=&quot;font-size: 7px&quot;&gt;[1-bit]&lt;/span&gt;" style="text;html=1;align=center;verticalAlign=middle;resizable=0;points=[];autosize=1;spacing=0;fontColor=#3333FF;" parent="1" vertex="1">
          <mxGeometry x="2276" y="2190" width="60" height="20" as="geometry" />
        </mxCell>
        <mxCell id="djSDpx1OMvx2S-5FDEnU-45" value="" style="endArrow=classic;html=1;fontSize=7;entryX=0;entryY=0.136;entryDx=0;entryDy=0;entryPerimeter=0;exitX=0.5;exitY=0;exitDx=0;exitDy=0;fillColor=#0050ef;strokeColor=#001DBC;" parent="1" source="4u6Bk__YJ9N9gN4nhSER-43" edge="1">
          <mxGeometry width="50" height="50" relative="1" as="geometry">
            <mxPoint x="940" y="1687" as="sourcePoint" />
            <mxPoint x="1440" y="1687.260000000001" as="targetPoint" />
            <Array as="points">
              <mxPoint x="940" y="1687" />
            </Array>
          </mxGeometry>
        </mxCell>
        <mxCell id="djSDpx1OMvx2S-5FDEnU-46" value="JMP[1-bit]" style="text;html=1;align=center;verticalAlign=middle;resizable=0;points=[];autosize=1;fontSize=7;fontColor=#3333FF;" parent="1" vertex="1">
          <mxGeometry x="970" y="1677.1000000000001" width="50" height="10" as="geometry" />
        </mxCell>
        <mxCell id="djSDpx1OMvx2S-5FDEnU-48" value="" style="endArrow=classic;html=1;fontSize=7;exitX=0.991;exitY=0.07;exitDx=0;exitDy=0;exitPerimeter=0;entryX=0;entryY=0.07;entryDx=0;entryDy=0;entryPerimeter=0;strokeColor=#3333FF;" parent="1" edge="1">
          <mxGeometry width="50" height="50" relative="1" as="geometry">
            <mxPoint x="1480.8000000000002" y="1676.77" as="sourcePoint" />
            <mxPoint x="2241.16" y="1676.77" as="targetPoint" />
          </mxGeometry>
        </mxCell>
        <mxCell id="djSDpx1OMvx2S-5FDEnU-49" value="JMP[1-bits]" style="text;html=1;align=center;verticalAlign=middle;resizable=0;points=[];autosize=1;fontSize=7;fontColor=#3333FF;" parent="1" vertex="1">
          <mxGeometry x="1475.0000000000002" y="1666.7900000000002" width="50" height="10" as="geometry" />
        </mxCell>
        <mxCell id="djSDpx1OMvx2S-5FDEnU-50" value="" style="endArrow=classic;html=1;exitX=1;exitY=0.75;exitDx=0;exitDy=0;entryX=0.25;entryY=0.625;entryDx=0;entryDy=0;entryPerimeter=0;strokeColor=#3333FF;" parent="1" source="4u6Bk__YJ9N9gN4nhSER-31" target="4u6Bk__YJ9N9gN4nhSER-136" edge="1">
          <mxGeometry width="50" height="50" relative="1" as="geometry">
            <mxPoint x="2330" y="2280" as="sourcePoint" />
            <mxPoint x="2400" y="2160" as="targetPoint" />
            <Array as="points">
              <mxPoint x="2410" y="2238" />
              <mxPoint x="2410" y="2160" />
            </Array>
          </mxGeometry>
        </mxCell>
        <mxCell id="djSDpx1OMvx2S-5FDEnU-51" value="&lt;font style=&quot;font-size: 7px&quot;&gt;JMP&lt;/font&gt;&lt;span style=&quot;font-size: 7px&quot;&gt;[1-bit]&lt;/span&gt;" style="text;html=1;align=center;verticalAlign=middle;resizable=0;points=[];autosize=1;spacing=0;fontColor=#3333FF;" parent="1" vertex="1">
          <mxGeometry x="2283" y="2219" width="50" height="20" as="geometry" />
        </mxCell>
        <mxCell id="djSDpx1OMvx2S-5FDEnU-54" value="&lt;span style=&quot;white-space: normal&quot;&gt;Stack CU&lt;/span&gt;" style="rounded=0;whiteSpace=wrap;html=1;" parent="1" vertex="1">
          <mxGeometry x="2320" y="1840" width="130" height="40" as="geometry" />
        </mxCell>
        <mxCell id="djSDpx1OMvx2S-5FDEnU-55" value="" style="endArrow=classic;html=1;fontSize=7;entryX=0;entryY=0.136;entryDx=0;entryDy=0;entryPerimeter=0;fillColor=#0050ef;strokeColor=#001DBC;" parent="1" edge="1">
          <mxGeometry width="50" height="50" relative="1" as="geometry">
            <mxPoint x="940" y="1690" as="sourcePoint" />
            <mxPoint x="1440" y="1676.9500000000007" as="targetPoint" />
            <Array as="points">
              <mxPoint x="940" y="1676.69" />
            </Array>
          </mxGeometry>
        </mxCell>
        <mxCell id="djSDpx1OMvx2S-5FDEnU-56" value="Stack-op[1-bit]" style="text;html=1;align=center;verticalAlign=middle;resizable=0;points=[];autosize=1;fontSize=7;" parent="1" vertex="1">
          <mxGeometry x="965" y="1666.7900000000002" width="60" height="10" as="geometry" />
        </mxCell>
        <mxCell id="djSDpx1OMvx2S-5FDEnU-59" value="" style="endArrow=classic;html=1;fontSize=7;exitX=0.991;exitY=0.07;exitDx=0;exitDy=0;exitPerimeter=0;entryX=0;entryY=0.07;entryDx=0;entryDy=0;entryPerimeter=0;strokeColor=#3333FF;" parent="1" edge="1">
          <mxGeometry width="50" height="50" relative="1" as="geometry">
            <mxPoint x="1478.84" y="1666.3899999999999" as="sourcePoint" />
            <mxPoint x="2239.2" y="1666.3899999999999" as="targetPoint" />
          </mxGeometry>
        </mxCell>
        <mxCell id="djSDpx1OMvx2S-5FDEnU-60" value="Stack-op[1-bits]" style="text;html=1;align=center;verticalAlign=middle;resizable=0;points=[];autosize=1;fontSize=7;fontColor=#3333FF;" parent="1" vertex="1">
          <mxGeometry x="1474.0400000000002" y="1656.41" width="70" height="10" as="geometry" />
        </mxCell>
        <mxCell id="djSDpx1OMvx2S-5FDEnU-62" value="Stack -op&lt;span style=&quot;font-size: 7px&quot;&gt;[1-bits]&lt;/span&gt;" style="text;html=1;align=center;verticalAlign=middle;resizable=0;points=[];autosize=1;fontColor=#3333FF;" parent="1" vertex="1">
          <mxGeometry x="2311" y="1652.41" width="90" height="20" as="geometry" />
        </mxCell>
        <mxCell id="djSDpx1OMvx2S-5FDEnU-65" value="SP[32-bits]" style="text;html=1;align=center;verticalAlign=middle;resizable=0;points=[];autosize=1;" parent="1" vertex="1">
          <mxGeometry x="2430" y="1937.5" width="70" height="20" as="geometry" />
        </mxCell>
        <mxCell id="djSDpx1OMvx2S-5FDEnU-68" value="" style="endArrow=classic;html=1;exitX=1.041;exitY=0.051;exitDx=0;exitDy=0;exitPerimeter=0;entryX=0.065;entryY=0.637;entryDx=0;entryDy=0;entryPerimeter=0;fontColor=#3333FF;strokeColor=#3333FF;" parent="1" edge="1">
          <mxGeometry width="50" height="50" relative="1" as="geometry">
            <mxPoint x="2280.6400000000003" y="1671.3100000000002" as="sourcePoint" />
            <mxPoint x="2559.3414999999995" y="1921.4216500000002" as="targetPoint" />
            <Array as="points">
              <mxPoint x="2559" y="1671" />
            </Array>
          </mxGeometry>
        </mxCell>
        <mxCell id="djSDpx1OMvx2S-5FDEnU-69" value="" style="endArrow=classic;html=1;entryX=0.5;entryY=1;entryDx=0;entryDy=0;" parent="1" target="djSDpx1OMvx2S-5FDEnU-76" edge="1">
          <mxGeometry width="50" height="50" relative="1" as="geometry">
            <mxPoint x="2360" y="1881" as="sourcePoint" />
            <mxPoint x="2537.4195" y="1959.79281" as="targetPoint" />
            <Array as="points">
              <mxPoint x="2360" y="1961" />
              <mxPoint x="2440" y="1960" />
            </Array>
          </mxGeometry>
        </mxCell>
        <mxCell id="djSDpx1OMvx2S-5FDEnU-70" value="&lt;b&gt;&lt;font style=&quot;font-size: 21px&quot;&gt;MUX&lt;/font&gt;&lt;/b&gt;" style="shape=trapezoid;perimeter=trapezoidPerimeter;whiteSpace=wrap;html=1;rotation=90;" parent="1" vertex="1">
          <mxGeometry x="2520" y="2061.5" width="90.41" height="35.5" as="geometry" />
        </mxCell>
        <mxCell id="djSDpx1OMvx2S-5FDEnU-74" value="" style="endArrow=classic;html=1;exitX=0.993;exitY=0.412;exitDx=0;exitDy=0;exitPerimeter=0;entryX=-0.019;entryY=0.457;entryDx=0;entryDy=0;entryPerimeter=0;" parent="1" edge="1">
          <mxGeometry width="50" height="50" relative="1" as="geometry">
            <mxPoint x="2819.8500000000004" y="1960" as="sourcePoint" />
            <mxPoint x="2880.0000000000005" y="1960.1299999999997" as="targetPoint" />
          </mxGeometry>
        </mxCell>
        <mxCell id="djSDpx1OMvx2S-5FDEnU-76" value="&lt;b&gt;&lt;font style=&quot;font-size: 21px&quot;&gt;MUX&lt;/font&gt;&lt;/b&gt;" style="shape=trapezoid;perimeter=trapezoidPerimeter;whiteSpace=wrap;html=1;rotation=90;" parent="1" vertex="1">
          <mxGeometry x="2520" y="1943" width="90.41" height="35.5" as="geometry" />
        </mxCell>
        <mxCell id="djSDpx1OMvx2S-5FDEnU-77" value="" style="endArrow=classic;html=1;fontColor=#3333FF;strokeColor=#3333FF;" parent="1" target="djSDpx1OMvx2S-5FDEnU-70" edge="1">
          <mxGeometry width="50" height="50" relative="1" as="geometry">
            <mxPoint x="2560" y="1880" as="sourcePoint" />
            <mxPoint x="2640" y="1980" as="targetPoint" />
            <Array as="points">
              <mxPoint x="2600" y="1880" />
              <mxPoint x="2600" y="2000" />
              <mxPoint x="2565" y="2010" />
            </Array>
          </mxGeometry>
        </mxCell>
        <mxCell id="djSDpx1OMvx2S-5FDEnU-78" value="" style="endArrow=classic;html=1;exitX=0.5;exitY=0;exitDx=0;exitDy=0;entryX=-0.001;entryY=0.174;entryDx=0;entryDy=0;entryPerimeter=0;" parent="1" source="djSDpx1OMvx2S-5FDEnU-76" target="djSDpx1OMvx2S-5FDEnU-72" edge="1">
          <mxGeometry width="50" height="50" relative="1" as="geometry">
            <mxPoint x="2640" y="1990" as="sourcePoint" />
            <mxPoint x="2690" y="1940" as="targetPoint" />
          </mxGeometry>
        </mxCell>
        <mxCell id="djSDpx1OMvx2S-5FDEnU-79" value="" style="endArrow=classic;html=1;exitX=0.5;exitY=0;exitDx=0;exitDy=0;entryX=0.25;entryY=1;entryDx=0;entryDy=0;" parent="1" target="djSDpx1OMvx2S-5FDEnU-103" edge="1">
          <mxGeometry width="50" height="50" relative="1" as="geometry">
            <mxPoint x="2583.085" y="2080.59" as="sourcePoint" />
            <mxPoint x="2690.0000000000005" y="2079.42" as="targetPoint" />
            <Array as="points">
              <mxPoint x="2600" y="2081" />
              <mxPoint x="2600" y="2120" />
            </Array>
          </mxGeometry>
        </mxCell>
        <mxCell id="djSDpx1OMvx2S-5FDEnU-80" value="" style="endArrow=classic;html=1;exitX=0.45;exitY=0.007;exitDx=0;exitDy=0;exitPerimeter=0;" parent="1" source="T4Knhte3SUwD-FYIo6XV-26" edge="1">
          <mxGeometry width="50" height="50" relative="1" as="geometry">
            <mxPoint x="2340" y="2280" as="sourcePoint" />
            <mxPoint x="2550" y="2060" as="targetPoint" />
            <Array as="points">
              <mxPoint x="2341" y="2280" />
              <mxPoint x="2440" y="2280" />
              <mxPoint x="2440" y="2240" />
              <mxPoint x="2520" y="2240" />
              <mxPoint x="2520" y="2060" />
            </Array>
          </mxGeometry>
        </mxCell>
        <mxCell id="djSDpx1OMvx2S-5FDEnU-84" value="" style="endArrow=classic;html=1;entryX=0.188;entryY=0.331;entryDx=0;entryDy=0;entryPerimeter=0;exitX=1;exitY=0.506;exitDx=0;exitDy=0;exitPerimeter=0;strokeColor=#3333FF;" parent="1" source="4u6Bk__YJ9N9gN4nhSER-31" target="4u6Bk__YJ9N9gN4nhSER-136" edge="1">
          <mxGeometry width="50" height="50" relative="1" as="geometry">
            <mxPoint x="2330" y="2000" as="sourcePoint" />
            <mxPoint x="2420" y="2140" as="targetPoint" />
            <Array as="points">
              <mxPoint x="2390" y="2040" />
              <mxPoint x="2390" y="2136" />
            </Array>
          </mxGeometry>
        </mxCell>
        <mxCell id="djSDpx1OMvx2S-5FDEnU-87" value="" style="shape=ellipse;fillColor=#3333FF;strokeColor=none;html=1" parent="1" vertex="1">
          <mxGeometry x="2558" y="1877" width="5" height="5" as="geometry" />
        </mxCell>
        <mxCell id="djSDpx1OMvx2S-5FDEnU-92" value="" style="endArrow=classic;html=1;entryX=0;entryY=0;entryDx=0;entryDy=0;strokeColor=#3333FF;" parent="1" edge="1">
          <mxGeometry width="50" height="50" relative="1" as="geometry">
            <mxPoint x="2330" y="1800" as="sourcePoint" />
            <mxPoint x="2330" y="1839.9999999999998" as="targetPoint" />
          </mxGeometry>
        </mxCell>
        <mxCell id="djSDpx1OMvx2S-5FDEnU-93" value="" style="endArrow=classic;html=1;entryX=0;entryY=0;entryDx=0;entryDy=0;strokeColor=#3333FF;" parent="1" edge="1">
          <mxGeometry width="50" height="50" relative="1" as="geometry">
            <mxPoint x="2380" y="1799.9999999999998" as="sourcePoint" />
            <mxPoint x="2380" y="1839.9999999999998" as="targetPoint" />
          </mxGeometry>
        </mxCell>
        <mxCell id="djSDpx1OMvx2S-5FDEnU-94" value="CAll[1-bit]" style="text;html=1;align=center;verticalAlign=middle;resizable=0;points=[];autosize=1;rotation=-90;fontColor=#3333FF;" parent="1" vertex="1">
          <mxGeometry x="2284" y="1796" width="70" height="20" as="geometry" />
        </mxCell>
        <mxCell id="djSDpx1OMvx2S-5FDEnU-95" value="POP[1-bit]" style="text;html=1;align=center;verticalAlign=middle;resizable=0;points=[];autosize=1;rotation=-90;fontColor=#3333FF;" parent="1" vertex="1">
          <mxGeometry x="2332" y="1794" width="70" height="20" as="geometry" />
        </mxCell>
        <mxCell id="djSDpx1OMvx2S-5FDEnU-96" value="&lt;b&gt;&lt;font style=&quot;font-size: 21px&quot;&gt;MUX&lt;/font&gt;&lt;/b&gt;" style="shape=trapezoid;perimeter=trapezoidPerimeter;whiteSpace=wrap;html=1;rotation=90;" parent="1" vertex="1">
          <mxGeometry x="2659.59" y="2290" width="90.41" height="35.5" as="geometry" />
        </mxCell>
        <mxCell id="djSDpx1OMvx2S-5FDEnU-97" value="" style="endArrow=classic;html=1;entryX=0.528;entryY=1.019;entryDx=0;entryDy=0;entryPerimeter=0;exitX=0.524;exitY=-0.023;exitDx=0;exitDy=0;exitPerimeter=0;" parent="1" source="4u6Bk__YJ9N9gN4nhSER-186" target="djSDpx1OMvx2S-5FDEnU-96" edge="1">
          <mxGeometry width="50" height="50" relative="1" as="geometry">
            <mxPoint x="2600" y="2310" as="sourcePoint" />
            <mxPoint x="2650" y="2280" as="targetPoint" />
          </mxGeometry>
        </mxCell>
        <mxCell id="djSDpx1OMvx2S-5FDEnU-98" value="" style="endArrow=classic;html=1;entryX=0.195;entryY=1.029;entryDx=0;entryDy=0;entryPerimeter=0;" parent="1" target="djSDpx1OMvx2S-5FDEnU-96" edge="1">
          <mxGeometry width="50" height="50" relative="1" as="geometry">
            <mxPoint x="2840" y="1960" as="sourcePoint" />
            <mxPoint x="2660" y="2280" as="targetPoint" />
            <Array as="points">
              <mxPoint x="2840" y="2200" />
              <mxPoint x="2640" y="2200" />
              <mxPoint x="2640" y="2280" />
            </Array>
          </mxGeometry>
        </mxCell>
        <mxCell id="djSDpx1OMvx2S-5FDEnU-99" value="" style="endArrow=classic;html=1;entryX=0;entryY=0;entryDx=0;entryDy=0;strokeColor=#3333FF;" parent="1" edge="1">
          <mxGeometry width="50" height="50" relative="1" as="geometry">
            <mxPoint x="2710" y="2230" as="sourcePoint" />
            <mxPoint x="2710" y="2270" as="targetPoint" />
          </mxGeometry>
        </mxCell>
        <mxCell id="djSDpx1OMvx2S-5FDEnU-100" value="&lt;font style=&quot;font-size: 8px&quot;&gt;RET/RTI&amp;nbsp;[1-bit]&lt;/font&gt;" style="text;html=1;align=center;verticalAlign=middle;resizable=0;points=[];autosize=1;rotation=-90;fontColor=#3333FF;" parent="1" vertex="1">
          <mxGeometry x="2664.59" y="2220" width="70" height="20" as="geometry" />
        </mxCell>
        <mxCell id="djSDpx1OMvx2S-5FDEnU-103" value="&lt;b&gt;&lt;font style=&quot;font-size: 21px&quot;&gt;MUX&lt;/font&gt;&lt;/b&gt;" style="shape=trapezoid;perimeter=trapezoidPerimeter;whiteSpace=wrap;html=1;rotation=90;" parent="1" vertex="1">
          <mxGeometry x="2599.5899999999997" y="2124.5" width="90.41" height="35.5" as="geometry" />
        </mxCell>
        <mxCell id="djSDpx1OMvx2S-5FDEnU-104" value="" style="endArrow=classic;html=1;entryX=0.691;entryY=1.022;entryDx=0;entryDy=0;entryPerimeter=0;" parent="1" target="djSDpx1OMvx2S-5FDEnU-103" edge="1">
          <mxGeometry width="50" height="50" relative="1" as="geometry">
            <mxPoint x="2490" y="2110" as="sourcePoint" />
            <mxPoint x="2600" y="2160" as="targetPoint" />
            <Array as="points">
              <mxPoint x="2490" y="2160" />
            </Array>
          </mxGeometry>
        </mxCell>
        <mxCell id="djSDpx1OMvx2S-5FDEnU-105" value="" style="shape=ellipse;fillColor=#000000;strokeColor=none;html=1" parent="1" vertex="1">
          <mxGeometry x="2487.5" y="2107" width="5" height="6" as="geometry" />
        </mxCell>
        <mxCell id="djSDpx1OMvx2S-5FDEnU-106" value="" style="endArrow=classic;html=1;entryX=0.055;entryY=0.628;entryDx=0;entryDy=0;entryPerimeter=0;fontColor=#3333FF;strokeColor=#3333FF;" parent="1" target="djSDpx1OMvx2S-5FDEnU-103" edge="1">
          <mxGeometry width="50" height="50" relative="1" as="geometry">
            <mxPoint x="2640" y="2030" as="sourcePoint" />
            <mxPoint x="2670" y="2040" as="targetPoint" />
          </mxGeometry>
        </mxCell>
        <mxCell id="djSDpx1OMvx2S-5FDEnU-107" value="Push/Pop&lt;span style=&quot;font-size: 7px&quot;&gt;[1-bits]&lt;/span&gt;" style="text;html=1;align=center;verticalAlign=middle;resizable=0;points=[];autosize=1;rotation=-90;fontColor=#3333FF;" parent="1" vertex="1">
          <mxGeometry x="2584.59" y="2046" width="90" height="20" as="geometry" />
        </mxCell>
        <mxCell id="djSDpx1OMvx2S-5FDEnU-108" value="" style="endArrow=classic;html=1;exitX=0.5;exitY=0;exitDx=0;exitDy=0;entryX=-0.014;entryY=0.517;entryDx=0;entryDy=0;entryPerimeter=0;" parent="1" source="djSDpx1OMvx2S-5FDEnU-103" target="djSDpx1OMvx2S-5FDEnU-9" edge="1">
          <mxGeometry width="50" height="50" relative="1" as="geometry">
            <mxPoint x="2670" y="2170" as="sourcePoint" />
            <mxPoint x="2720" y="2120" as="targetPoint" />
            <Array as="points">
              <mxPoint x="2670" y="2142" />
              <mxPoint x="2670" y="2080" />
            </Array>
          </mxGeometry>
        </mxCell>
        <mxCell id="djSDpx1OMvx2S-5FDEnU-109" value="RET[1-bit]" style="text;html=1;align=center;verticalAlign=middle;resizable=0;points=[];autosize=1;rotation=-90;fontColor=#3333FF;" parent="1" vertex="1">
          <mxGeometry x="2305" y="1795" width="70" height="20" as="geometry" />
        </mxCell>
        <mxCell id="djSDpx1OMvx2S-5FDEnU-110" value="" style="endArrow=classic;html=1;entryX=0;entryY=0;entryDx=0;entryDy=0;strokeColor=#3333FF;" parent="1" edge="1">
          <mxGeometry width="50" height="50" relative="1" as="geometry">
            <mxPoint x="2354" y="1800" as="sourcePoint" />
            <mxPoint x="2354" y="1840" as="targetPoint" />
          </mxGeometry>
        </mxCell>
        <mxCell id="djSDpx1OMvx2S-5FDEnU-111" value="PUSH[1-bit]" style="text;html=1;align=center;verticalAlign=middle;resizable=0;points=[];autosize=1;rotation=-90;fontColor=#3333FF;" parent="1" vertex="1">
          <mxGeometry x="2350" y="1790" width="80" height="20" as="geometry" />
        </mxCell>
        <mxCell id="djSDpx1OMvx2S-5FDEnU-112" value="" style="endArrow=classic;html=1;entryX=0;entryY=0;entryDx=0;entryDy=0;strokeColor=#3333FF;" parent="1" edge="1">
          <mxGeometry width="50" height="50" relative="1" as="geometry">
            <mxPoint x="2404" y="1801" as="sourcePoint" />
            <mxPoint x="2404" y="1841" as="targetPoint" />
          </mxGeometry>
        </mxCell>
        <mxCell id="T4Knhte3SUwD-FYIo6XV-3" value="" style="endArrow=classic;html=1;" parent="1" edge="1">
          <mxGeometry width="50" height="50" relative="1" as="geometry">
            <mxPoint x="800" y="1560" as="sourcePoint" />
            <mxPoint x="890" y="1720" as="targetPoint" />
            <Array as="points">
              <mxPoint x="800" y="1720" />
            </Array>
          </mxGeometry>
        </mxCell>
        <mxCell id="T4Knhte3SUwD-FYIo6XV-4" value="Interrupt-signal" style="text;html=1;align=center;verticalAlign=middle;resizable=0;points=[];autosize=1;rotation=90;" parent="1" vertex="1">
          <mxGeometry x="770" y="1610" width="100" height="20" as="geometry" />
        </mxCell>
        <mxCell id="T4Knhte3SUwD-FYIo6XV-22" value="" style="shape=ellipse;fillColor=#000000;strokeColor=none;html=1" parent="1" vertex="1">
          <mxGeometry x="347" y="1917" width="5" height="5" as="geometry" />
        </mxCell>
        <mxCell id="T4Knhte3SUwD-FYIo6XV-23" value="&lt;b&gt;&lt;font style=&quot;font-size: 12px&quot;&gt;PC&lt;/font&gt;&lt;/b&gt;" style="text;html=1;align=center;verticalAlign=middle;resizable=0;points=[];autosize=1;fontSize=7;rotation=-90;" parent="1" vertex="1">
          <mxGeometry x="2300" y="2341" width="30" height="10" as="geometry" />
        </mxCell>
        <mxCell id="T4Knhte3SUwD-FYIo6XV-24" value="" style="endArrow=classic;html=1;" parent="1" edge="1">
          <mxGeometry width="50" height="50" relative="1" as="geometry">
            <mxPoint x="2480" y="2340" as="sourcePoint" />
            <mxPoint x="2360" y="2320" as="targetPoint" />
            <Array as="points">
              <mxPoint x="2420" y="2340" />
              <mxPoint x="2410" y="2340" />
              <mxPoint x="2360" y="2340" />
            </Array>
          </mxGeometry>
        </mxCell>
        <mxCell id="T4Knhte3SUwD-FYIo6XV-26" value="&lt;b&gt;&lt;font style=&quot;font-size: 21px&quot;&gt;MUX&lt;/font&gt;&lt;/b&gt;" style="shape=trapezoid;perimeter=trapezoidPerimeter;whiteSpace=wrap;html=1;rotation=0;" parent="1" vertex="1">
          <mxGeometry x="2300" y="2283.25" width="90.41" height="35.5" as="geometry" />
        </mxCell>
        <mxCell id="T4Knhte3SUwD-FYIo6XV-27" value="Interrupt&lt;span style=&quot;font-size: 7px&quot;&gt;[1-bit]&lt;/span&gt;" style="text;html=1;align=center;verticalAlign=middle;resizable=0;points=[];autosize=1;rotation=-90;fontColor=#3333FF;" parent="1" vertex="1">
          <mxGeometry x="2247" y="2263.25" width="80" height="20" as="geometry" />
        </mxCell>
        <mxCell id="T4Knhte3SUwD-FYIo6XV-28" value="" style="endArrow=classic;html=1;entryX=0;entryY=0.5;entryDx=0;entryDy=0;fontColor=#3333FF;" parent="1" target="T4Knhte3SUwD-FYIo6XV-26" edge="1">
          <mxGeometry width="50" height="50" relative="1" as="geometry">
            <mxPoint x="2296" y="2258" as="sourcePoint" />
            <mxPoint x="2296" y="2298" as="targetPoint" />
            <Array as="points">
              <mxPoint x="2296" y="2301" />
            </Array>
          </mxGeometry>
        </mxCell>
        <mxCell id="T4Knhte3SUwD-FYIo6XV-32" value="{M[3],M[2]" style="text;html=1;align=center;verticalAlign=middle;resizable=0;points=[];autosize=1;rotation=-90;" parent="1" vertex="1">
          <mxGeometry x="2750" y="2150" width="70" height="20" as="geometry" />
        </mxCell>
        <mxCell id="T4Knhte3SUwD-FYIo6XV-34" value="{M[1],M[0]}" style="text;html=1;align=center;verticalAlign=middle;resizable=0;points=[];autosize=1;rotation=-90;" parent="1" vertex="1">
          <mxGeometry x="2730" y="2145" width="70" height="20" as="geometry" />
        </mxCell>
        <mxCell id="T4Knhte3SUwD-FYIo6XV-36" value="" style="endArrow=classic;html=1;" parent="1" edge="1">
          <mxGeometry width="50" height="50" relative="1" as="geometry">
            <mxPoint x="2780" y="2115" as="sourcePoint" />
            <mxPoint x="2780" y="2240" as="targetPoint" />
          </mxGeometry>
        </mxCell>
        <mxCell id="T4Knhte3SUwD-FYIo6XV-37" value="" style="endArrow=classic;html=1;" parent="1" edge="1">
          <mxGeometry width="50" height="50" relative="1" as="geometry">
            <mxPoint x="2800" y="2115" as="sourcePoint" />
            <mxPoint x="2800" y="2240" as="targetPoint" />
          </mxGeometry>
        </mxCell>
        <mxCell id="T4Knhte3SUwD-FYIo6XV-38" value="" style="endArrow=classic;html=1;exitX=0.5;exitY=0;exitDx=0;exitDy=0;" parent="1" source="djSDpx1OMvx2S-5FDEnU-96" edge="1">
          <mxGeometry width="50" height="50" relative="1" as="geometry">
            <mxPoint x="2730" y="2320" as="sourcePoint" />
            <mxPoint x="2760" y="2240" as="targetPoint" />
            <Array as="points">
              <mxPoint x="2740" y="2308" />
              <mxPoint x="2740" y="2210" />
              <mxPoint x="2760" y="2210" />
            </Array>
          </mxGeometry>
        </mxCell>
        <mxCell id="T4Knhte3SUwD-FYIo6XV-39" value="&lt;b&gt;&lt;font style=&quot;font-size: 21px&quot;&gt;MUX&lt;/font&gt;&lt;/b&gt;" style="shape=trapezoid;perimeter=trapezoidPerimeter;whiteSpace=wrap;html=1;rotation=-180;" parent="1" vertex="1">
          <mxGeometry x="2747" y="2240" width="80.41" height="31.57" as="geometry" />
        </mxCell>
        <mxCell id="T4Knhte3SUwD-FYIo6XV-40" value="Interrupt&lt;br&gt;&lt;span style=&quot;font-size: 7px&quot;&gt;[1-bit]&lt;/span&gt;" style="text;html=1;align=center;verticalAlign=middle;resizable=0;points=[];autosize=1;rotation=0;fontColor=#3333FF;" parent="1" vertex="1">
          <mxGeometry x="2822.41" y="2255.58" width="60" height="40" as="geometry" />
        </mxCell>
        <mxCell id="T4Knhte3SUwD-FYIo6XV-41" value="" style="endArrow=classic;html=1;strokeColor=#3333FF;" parent="1" edge="1">
          <mxGeometry width="50" height="50" relative="1" as="geometry">
            <mxPoint x="2870" y="2263.33" as="sourcePoint" />
            <mxPoint x="2820" y="2263.25" as="targetPoint" />
          </mxGeometry>
        </mxCell>
        <mxCell id="T4Knhte3SUwD-FYIo6XV-42" value="Reset&lt;br&gt;&lt;span style=&quot;font-size: 7px&quot;&gt;[1-bit]&lt;/span&gt;" style="text;html=1;align=center;verticalAlign=middle;resizable=0;points=[];autosize=1;rotation=0;fontColor=#3333FF;" parent="1" vertex="1">
          <mxGeometry x="2827.41" y="2215.58" width="50" height="40" as="geometry" />
        </mxCell>
        <mxCell id="T4Knhte3SUwD-FYIo6XV-43" value="" style="endArrow=classic;html=1;strokeColor=#3333FF;" parent="1" edge="1">
          <mxGeometry width="50" height="50" relative="1" as="geometry">
            <mxPoint x="2875" y="2252.08" as="sourcePoint" />
            <mxPoint x="2825" y="2252" as="targetPoint" />
          </mxGeometry>
        </mxCell>
        <mxCell id="T4Knhte3SUwD-FYIo6XV-45" value="&lt;font style=&quot;font-size: 6px&quot;&gt;Output-Port&lt;/font&gt;" style="whiteSpace=wrap;html=1;aspect=fixed;" parent="1" vertex="1">
          <mxGeometry x="1100" y="2240" width="40" height="40" as="geometry" />
        </mxCell>
        <mxCell id="T4Knhte3SUwD-FYIo6XV-46" value="" style="endArrow=classic;html=1;exitX=0.25;exitY=0.067;exitDx=0;exitDy=0;exitPerimeter=0;fillColor=#0050ef;strokeColor=#001DBC;" parent="1" source="4u6Bk__YJ9N9gN4nhSER-43" target="T4Knhte3SUwD-FYIo6XV-45" edge="1">
          <mxGeometry width="50" height="50" relative="1" as="geometry">
            <mxPoint x="920" y="1640" as="sourcePoint" />
            <mxPoint x="1120" y="2230" as="targetPoint" />
            <Array as="points">
              <mxPoint x="920" y="1640" />
              <mxPoint x="1120" y="1640" />
            </Array>
          </mxGeometry>
        </mxCell>
        <mxCell id="T4Knhte3SUwD-FYIo6XV-47" value="Output-enable[1-bit]" style="text;html=1;align=center;verticalAlign=middle;resizable=0;points=[];autosize=1;fontSize=7;fontColor=#3333FF;" parent="1" vertex="1">
          <mxGeometry x="930" y="1630.0000000000002" width="80" height="10" as="geometry" />
        </mxCell>
        <mxCell id="T4Knhte3SUwD-FYIo6XV-48" value="" style="endArrow=classic;html=1;entryX=0;entryY=1;entryDx=0;entryDy=0;" parent="1" edge="1">
          <mxGeometry width="50" height="50" relative="1" as="geometry">
            <mxPoint x="1100" y="1960" as="sourcePoint" />
            <mxPoint x="1100" y="2260" as="targetPoint" />
            <Array as="points">
              <mxPoint x="1100" y="2200" />
              <mxPoint x="1080" y="2200" />
              <mxPoint x="1080" y="2260" />
            </Array>
          </mxGeometry>
        </mxCell>
        <mxCell id="T4Knhte3SUwD-FYIo6XV-49" value="" style="endArrow=classic;html=1;exitX=1;exitY=0.5;exitDx=0;exitDy=0;" parent="1" source="T4Knhte3SUwD-FYIo6XV-45" edge="1">
          <mxGeometry width="50" height="50" relative="1" as="geometry">
            <mxPoint x="1180" y="2290" as="sourcePoint" />
            <mxPoint x="1230" y="2260" as="targetPoint" />
          </mxGeometry>
        </mxCell>
        <mxCell id="T4Knhte3SUwD-FYIo6XV-50" value="" style="shape=ellipse;fillColor=#000000;strokeColor=none;html=1" parent="1" vertex="1">
          <mxGeometry x="1097" y="1957.5" width="5" height="5" as="geometry" />
        </mxCell>
        <mxCell id="T4Knhte3SUwD-FYIo6XV-51" value="Output[32-bits]" style="text;html=1;align=center;verticalAlign=middle;resizable=0;points=[];autosize=1;fontSize=7;" parent="1" vertex="1">
          <mxGeometry x="1145" y="2250.78" width="60" height="10" as="geometry" />
        </mxCell>
        <mxCell id="T4Knhte3SUwD-FYIo6XV-62" value="RTI[1-bit]" style="text;html=1;align=center;verticalAlign=middle;resizable=0;points=[];autosize=1;rotation=-90;fontColor=#3333FF;" parent="1" vertex="1">
          <mxGeometry x="2381" y="1793" width="60" height="20" as="geometry" />
        </mxCell>
        <mxCell id="T4Knhte3SUwD-FYIo6XV-65" value="" style="endArrow=classic;html=1;entryX=0;entryY=0;entryDx=0;entryDy=0;strokeColor=#3333FF;" parent="1" edge="1">
          <mxGeometry width="50" height="50" relative="1" as="geometry">
            <mxPoint x="2420" y="1799.9999999999998" as="sourcePoint" />
            <mxPoint x="2420" y="1839.9999999999998" as="targetPoint" />
          </mxGeometry>
        </mxCell>
        <mxCell id="T4Knhte3SUwD-FYIo6XV-86" value="&amp;nbsp;&lt;font style=&quot;font-size: 23px&quot;&gt;HDU&lt;/font&gt;" style="whiteSpace=wrap;html=1;aspect=fixed;" parent="1" vertex="1">
          <mxGeometry x="955" y="1400" width="90" height="90" as="geometry" />
        </mxCell>
        <mxCell id="T4Knhte3SUwD-FYIo6XV-87" value="" style="endArrow=classic;html=1;" parent="1" edge="1">
          <mxGeometry width="50" height="50" relative="1" as="geometry">
            <mxPoint x="800" y="1940" as="sourcePoint" />
            <mxPoint x="950" y="1440" as="targetPoint" />
            <Array as="points">
              <mxPoint x="800" y="1900" />
              <mxPoint x="760" y="1900" />
              <mxPoint x="760" y="1440" />
            </Array>
          </mxGeometry>
        </mxCell>
        <mxCell id="T4Knhte3SUwD-FYIo6XV-88" value="" style="endArrow=classic;html=1;" parent="1" edge="1">
          <mxGeometry width="50" height="50" relative="1" as="geometry">
            <mxPoint x="720" y="1890" as="sourcePoint" />
            <mxPoint x="950" y="1470" as="targetPoint" />
            <Array as="points">
              <mxPoint x="720" y="1470" />
            </Array>
          </mxGeometry>
        </mxCell>
        <mxCell id="T4Knhte3SUwD-FYIo6XV-90" value="" style="shape=ellipse;fillColor=#000000;strokeColor=none;html=1" parent="1" vertex="1">
          <mxGeometry x="718" y="1886" width="5" height="5" as="geometry" />
        </mxCell>
        <mxCell id="T4Knhte3SUwD-FYIo6XV-92" value="" style="endArrow=classic;html=1;entryX=0.5;entryY=1;entryDx=0;entryDy=0;" parent="1" target="T4Knhte3SUwD-FYIo6XV-86" edge="1">
          <mxGeometry width="50" height="50" relative="1" as="geometry">
            <mxPoint x="1600" y="1760" as="sourcePoint" />
            <mxPoint x="1130" y="1530" as="targetPoint" />
            <Array as="points">
              <mxPoint x="1600" y="1520" />
              <mxPoint x="1000" y="1520" />
            </Array>
          </mxGeometry>
        </mxCell>
        <mxCell id="T4Knhte3SUwD-FYIo6XV-93" value="" style="endArrow=classic;html=1;" parent="1" edge="1">
          <mxGeometry width="50" height="50" relative="1" as="geometry">
            <mxPoint x="1520" y="2346" as="sourcePoint" />
            <mxPoint x="1050" y="1440" as="targetPoint" />
            <Array as="points">
              <mxPoint x="1520" y="2276" />
              <mxPoint x="1600" y="2276" />
              <mxPoint x="1600" y="2196" />
              <mxPoint x="1890" y="2196" />
              <mxPoint x="1890" y="1440" />
            </Array>
          </mxGeometry>
        </mxCell>
        <mxCell id="T4Knhte3SUwD-FYIo6XV-94" value="&lt;b&gt;&lt;font style=&quot;font-size: 12px&quot;&gt;MUX&lt;/font&gt;&lt;/b&gt;" style="shape=trapezoid;perimeter=trapezoidPerimeter;whiteSpace=wrap;html=1;rotation=90;" parent="1" vertex="1">
          <mxGeometry x="1180" y="1692" width="182.63" height="66.41" as="geometry" />
        </mxCell>
        <mxCell id="T4Knhte3SUwD-FYIo6XV-96" value="" style="endArrow=classic;html=1;" parent="1" edge="1">
          <mxGeometry width="50" height="50" relative="1" as="geometry">
            <mxPoint x="1140" y="1800" as="sourcePoint" />
            <mxPoint x="1230" y="1800" as="targetPoint" />
          </mxGeometry>
        </mxCell>
        <mxCell id="T4Knhte3SUwD-FYIo6XV-97" value="0" style="text;html=1;align=center;verticalAlign=middle;resizable=0;points=[];autosize=1;" parent="1" vertex="1">
          <mxGeometry x="1175" y="1780" width="20" height="20" as="geometry" />
        </mxCell>
        <mxCell id="T4Knhte3SUwD-FYIo6XV-98" value="" style="endArrow=classic;html=1;exitX=0.5;exitY=0;exitDx=0;exitDy=0;entryX=0.125;entryY=0.369;entryDx=0;entryDy=0;entryPerimeter=0;" parent="1" source="T4Knhte3SUwD-FYIo6XV-86" target="T4Knhte3SUwD-FYIo6XV-94" edge="1">
          <mxGeometry width="50" height="50" relative="1" as="geometry">
            <mxPoint x="1000" y="1280" as="sourcePoint" />
            <mxPoint x="1280" y="1630" as="targetPoint" />
            <Array as="points">
              <mxPoint x="1000" y="1360" />
              <mxPoint x="1280" y="1360" />
            </Array>
          </mxGeometry>
        </mxCell>
        <mxCell id="T4Knhte3SUwD-FYIo6XV-100" value="" style="endArrow=classic;html=1;exitX=0.25;exitY=0;exitDx=0;exitDy=0;entryX=0.5;entryY=0;entryDx=0;entryDy=0;" parent="1" source="T4Knhte3SUwD-FYIo6XV-86" target="4u6Bk__YJ9N9gN4nhSER-4" edge="1">
          <mxGeometry width="50" height="50" relative="1" as="geometry">
            <mxPoint x="440" y="1410" as="sourcePoint" />
            <mxPoint x="280" y="1820" as="targetPoint" />
            <Array as="points">
              <mxPoint x="978" y="1360" />
              <mxPoint x="280" y="1360" />
            </Array>
          </mxGeometry>
        </mxCell>
        <mxCell id="T4Knhte3SUwD-FYIo6XV-101" value="&lt;font style=&quot;font-size: 18px&quot;&gt;FU&lt;/font&gt;" style="whiteSpace=wrap;html=1;aspect=fixed;" parent="1" vertex="1">
          <mxGeometry x="1959" y="2200" width="80" height="80" as="geometry" />
        </mxCell>
        <mxCell id="T4Knhte3SUwD-FYIo6XV-102" value="&lt;b&gt;&lt;font style=&quot;font-size: 5px&quot;&gt;MUX&lt;/font&gt;&lt;/b&gt;" style="shape=trapezoid;perimeter=trapezoidPerimeter;whiteSpace=wrap;html=1;rotation=90;align=center;spacingTop=-5;" parent="1" vertex="1">
          <mxGeometry x="1538" y="2013.36" width="32" height="11.64" as="geometry" />
        </mxCell>
        <mxCell id="T4Knhte3SUwD-FYIo6XV-104" value="" style="endArrow=classic;html=1;exitX=0.5;exitY=0;exitDx=0;exitDy=0;entryX=1;entryY=0.5;entryDx=0;entryDy=0;" parent="1" source="T4Knhte3SUwD-FYIo6XV-101" target="T4Knhte3SUwD-FYIo6XV-102" edge="1">
          <mxGeometry width="50" height="50" relative="1" as="geometry">
            <mxPoint x="2050" y="2180" as="sourcePoint" />
            <mxPoint x="1560" y="2040" as="targetPoint" />
            <Array as="points">
              <mxPoint x="1999" y="2160" />
              <mxPoint x="1570" y="2160" />
              <mxPoint x="1570" y="2070" />
              <mxPoint x="1554" y="2070" />
            </Array>
          </mxGeometry>
        </mxCell>
        <mxCell id="T4Knhte3SUwD-FYIo6XV-107" value="" style="endArrow=classic;html=1;" parent="1" edge="1">
          <mxGeometry width="50" height="50" relative="1" as="geometry">
            <mxPoint x="1515" y="1949" as="sourcePoint" />
            <mxPoint x="1548" y="1949.43" as="targetPoint" />
          </mxGeometry>
        </mxCell>
        <mxCell id="T4Knhte3SUwD-FYIo6XV-108" value="" style="endArrow=classic;html=1;" parent="1" edge="1">
          <mxGeometry width="50" height="50" relative="1" as="geometry">
            <mxPoint x="1515" y="1940" as="sourcePoint" />
            <mxPoint x="1548" y="1939.7700000000002" as="targetPoint" />
          </mxGeometry>
        </mxCell>
        <mxCell id="T4Knhte3SUwD-FYIo6XV-109" value="" style="endArrow=classic;html=1;" parent="1" edge="1">
          <mxGeometry width="50" height="50" relative="1" as="geometry">
            <mxPoint x="1515" y="2009.92" as="sourcePoint" />
            <mxPoint x="1548" y="2009.8400000000004" as="targetPoint" />
          </mxGeometry>
        </mxCell>
        <mxCell id="T4Knhte3SUwD-FYIo6XV-110" value="" style="endArrow=classic;html=1;" parent="1" edge="1">
          <mxGeometry width="50" height="50" relative="1" as="geometry">
            <mxPoint x="1515" y="2020.22" as="sourcePoint" />
            <mxPoint x="1547.5" y="2020.1000000000001" as="targetPoint" />
          </mxGeometry>
        </mxCell>
        <mxCell id="T4Knhte3SUwD-FYIo6XV-111" value="&lt;font style=&quot;font-size: 6px&quot;&gt;ALU -result&lt;/font&gt;" style="text;html=1;align=center;verticalAlign=middle;resizable=0;points=[];autosize=1;fontSize=7;" parent="1" vertex="1">
          <mxGeometry x="1496" y="1929.4300000000003" width="50" height="10" as="geometry" />
        </mxCell>
        <mxCell id="T4Knhte3SUwD-FYIo6XV-112" value="&lt;font style=&quot;font-size: 6px&quot;&gt;WB&lt;/font&gt;" style="text;html=1;align=center;verticalAlign=middle;resizable=0;points=[];autosize=1;fontSize=7;" parent="1" vertex="1">
          <mxGeometry x="1510" y="1939.4300000000003" width="30" height="10" as="geometry" />
        </mxCell>
        <mxCell id="T4Knhte3SUwD-FYIo6XV-113" value="&lt;font style=&quot;font-size: 6px&quot;&gt;ALU -result&lt;/font&gt;" style="text;html=1;align=center;verticalAlign=middle;resizable=0;points=[];autosize=1;fontSize=7;" parent="1" vertex="1">
          <mxGeometry x="1503" y="1995.0000000000002" width="50" height="10" as="geometry" />
        </mxCell>
        <mxCell id="T4Knhte3SUwD-FYIo6XV-114" value="&lt;font style=&quot;font-size: 6px&quot;&gt;WB&lt;/font&gt;" style="text;html=1;align=center;verticalAlign=middle;resizable=0;points=[];autosize=1;fontSize=7;" parent="1" vertex="1">
          <mxGeometry x="1514" y="2010.0000000000002" width="30" height="10" as="geometry" />
        </mxCell>
        <mxCell id="T4Knhte3SUwD-FYIo6XV-119" value="" style="endArrow=classic;html=1;exitX=0.526;exitY=-0.059;exitDx=0;exitDy=0;exitPerimeter=0;entryX=0.117;entryY=0.801;entryDx=0;entryDy=0;entryPerimeter=0;" parent="1" source="T4Knhte3SUwD-FYIo6XV-102" target="4u6Bk__YJ9N9gN4nhSER-38" edge="1">
          <mxGeometry width="50" height="50" relative="1" as="geometry">
            <mxPoint x="1567" y="2000.1100000000001" as="sourcePoint" />
            <mxPoint x="1580" y="2020" as="targetPoint" />
          </mxGeometry>
        </mxCell>
        <mxCell id="T4Knhte3SUwD-FYIo6XV-120" value="" style="endArrow=classic;html=1;entryX=0.126;entryY=0.197;entryDx=0;entryDy=0;entryPerimeter=0;" parent="1" target="4u6Bk__YJ9N9gN4nhSER-38" edge="1">
          <mxGeometry width="50" height="50" relative="1" as="geometry">
            <mxPoint x="1554" y="1959.6600000000005" as="sourcePoint" />
            <mxPoint x="1579" y="1959" as="targetPoint" />
          </mxGeometry>
        </mxCell>
        <mxCell id="T4Knhte3SUwD-FYIo6XV-121" value="" style="endArrow=classic;html=1;" parent="1" edge="1">
          <mxGeometry width="50" height="50" relative="1" as="geometry">
            <mxPoint x="1890" y="2240" as="sourcePoint" />
            <mxPoint x="1960" y="2240" as="targetPoint" />
          </mxGeometry>
        </mxCell>
        <mxCell id="T4Knhte3SUwD-FYIo6XV-122" value="" style="endArrow=classic;html=1;" parent="1" edge="1">
          <mxGeometry width="50" height="50" relative="1" as="geometry">
            <mxPoint x="1890" y="2268.08" as="sourcePoint" />
            <mxPoint x="1960" y="2268.08" as="targetPoint" />
          </mxGeometry>
        </mxCell>
        <mxCell id="T4Knhte3SUwD-FYIo6XV-123" value="Rscr1" style="text;html=1;align=center;verticalAlign=middle;resizable=0;points=[];autosize=1;" parent="1" vertex="1">
          <mxGeometry x="1900" y="2220" width="50" height="20" as="geometry" />
        </mxCell>
        <mxCell id="T4Knhte3SUwD-FYIo6XV-124" value="Rscr2" style="text;html=1;align=center;verticalAlign=middle;resizable=0;points=[];autosize=1;" parent="1" vertex="1">
          <mxGeometry x="1900" y="2250" width="50" height="20" as="geometry" />
        </mxCell>
        <mxCell id="T4Knhte3SUwD-FYIo6XV-125" value="Ex/MEM Rdst1" style="text;html=1;align=center;verticalAlign=middle;resizable=0;points=[];autosize=1;" parent="1" vertex="1">
          <mxGeometry x="2035" y="2225.58" width="100" height="20" as="geometry" />
        </mxCell>
        <mxCell id="T4Knhte3SUwD-FYIo6XV-126" value="" style="endArrow=classic;html=1;" parent="1" edge="1">
          <mxGeometry width="50" height="50" relative="1" as="geometry">
            <mxPoint x="2120" y="2245.58" as="sourcePoint" />
            <mxPoint x="2040" y="2245.58" as="targetPoint" />
          </mxGeometry>
        </mxCell>
        <mxCell id="T4Knhte3SUwD-FYIo6XV-127" value="MEM/WB Rdst1" style="text;html=1;align=center;verticalAlign=middle;resizable=0;points=[];autosize=1;" parent="1" vertex="1">
          <mxGeometry x="2035" y="2245.5800000000004" width="100" height="20" as="geometry" />
        </mxCell>
        <mxCell id="T4Knhte3SUwD-FYIo6XV-128" value="" style="endArrow=classic;html=1;" parent="1" edge="1">
          <mxGeometry width="50" height="50" relative="1" as="geometry">
            <mxPoint x="2120" y="2265.5800000000004" as="sourcePoint" />
            <mxPoint x="2040" y="2265.5800000000004" as="targetPoint" />
          </mxGeometry>
        </mxCell>
        <mxCell id="T4Knhte3SUwD-FYIo6XV-130" value="&lt;span style=&quot;color: rgb(32 , 33 , 36) ; font-family: &amp;#34;roboto&amp;#34; , &amp;#34;arial&amp;#34; , sans-serif ; text-align: left ; background-color: rgb(255 , 255 , 255)&quot;&gt;&lt;font style=&quot;font-size: 5px&quot;&gt;EX/MEM WB value&lt;/font&gt;&lt;/span&gt;" style="text;html=1;align=center;verticalAlign=middle;resizable=0;points=[];autosize=1;rotation=-90;" parent="1" vertex="1">
          <mxGeometry x="1935" y="2303.25" width="60" height="20" as="geometry" />
        </mxCell>
        <mxCell id="T4Knhte3SUwD-FYIo6XV-131" value="" style="endArrow=classic;html=1;entryX=0.5;entryY=1;entryDx=0;entryDy=0;" parent="1" edge="1">
          <mxGeometry width="50" height="50" relative="1" as="geometry">
            <mxPoint x="1980" y="2340" as="sourcePoint" />
            <mxPoint x="1980" y="2280" as="targetPoint" />
          </mxGeometry>
        </mxCell>
        <mxCell id="T4Knhte3SUwD-FYIo6XV-132" value="" style="endArrow=classic;html=1;entryX=0.5;entryY=1;entryDx=0;entryDy=0;" parent="1" edge="1">
          <mxGeometry width="50" height="50" relative="1" as="geometry">
            <mxPoint x="2010" y="2340" as="sourcePoint" />
            <mxPoint x="2010" y="2280" as="targetPoint" />
          </mxGeometry>
        </mxCell>
        <mxCell id="T4Knhte3SUwD-FYIo6XV-133" value="&lt;span style=&quot;color: rgb(32 , 33 , 36) ; font-family: &amp;#34;roboto&amp;#34; , &amp;#34;arial&amp;#34; , sans-serif ; text-align: left ; background-color: rgb(255 , 255 , 255)&quot;&gt;&lt;font style=&quot;font-size: 6px&quot;&gt;MEM/WB WB value&lt;/font&gt;&lt;/span&gt;" style="text;html=1;align=center;verticalAlign=middle;resizable=0;points=[];autosize=1;rotation=-90;" parent="1" vertex="1">
          <mxGeometry x="1960" y="2305.5" width="80" height="20" as="geometry" />
        </mxCell>
        <mxCell id="T4Knhte3SUwD-FYIo6XV-134" value="WB value&lt;span style=&quot;font-size: 7px&quot;&gt;[32-bits]&lt;/span&gt;" style="text;html=1;align=center;verticalAlign=middle;resizable=0;points=[];autosize=1;" parent="1" vertex="1">
          <mxGeometry x="3090" y="1917.5" width="90" height="20" as="geometry" />
        </mxCell>
        <mxCell id="T4Knhte3SUwD-FYIo6XV-137" value="" style="endArrow=classic;html=1;fontSize=7;entryX=0;entryY=0.284;entryDx=0;entryDy=0;entryPerimeter=0;" parent="1" target="4u6Bk__YJ9N9gN4nhSER-31" edge="1">
          <mxGeometry width="50" height="50" relative="1" as="geometry">
            <mxPoint x="1840" y="1860.1099999999997" as="sourcePoint" />
            <mxPoint x="2220" y="1860" as="targetPoint" />
            <Array as="points" />
          </mxGeometry>
        </mxCell>
        <mxCell id="J_n0-YOa4G56IStiHrvc-1" value="&lt;b&gt;&lt;font style=&quot;font-size: 5px&quot;&gt;MUX&lt;/font&gt;&lt;/b&gt;" style="shape=trapezoid;perimeter=trapezoidPerimeter;whiteSpace=wrap;html=1;rotation=90;align=center;spacingTop=-5;" parent="1" vertex="1">
          <mxGeometry x="1537" y="1948.36" width="34" height="11.64" as="geometry" />
        </mxCell>
        <mxCell id="J_n0-YOa4G56IStiHrvc-4" value="" style="shape=ellipse;fillColor=#000000;strokeColor=none;html=1" parent="1" vertex="1">
          <mxGeometry x="1517" y="2344" width="5" height="5" as="geometry" />
        </mxCell>
        <mxCell id="O92rZ5ZvlTnGVv4ENgCI-2" value="" style="endArrow=classic;html=1;exitX=1.055;exitY=0.951;exitDx=0;exitDy=0;exitPerimeter=0;" parent="1" source="4u6Bk__YJ9N9gN4nhSER-31" edge="1">
          <mxGeometry width="50" height="50" relative="1" as="geometry">
            <mxPoint x="2310" y="2410" as="sourcePoint" />
            <mxPoint x="2320" y="2320" as="targetPoint" />
            <Array as="points">
              <mxPoint x="2320" y="2400" />
            </Array>
          </mxGeometry>
        </mxCell>
        <mxCell id="O92rZ5ZvlTnGVv4ENgCI-4" value="" style="endArrow=classic;html=1;entryX=0.638;entryY=1.064;entryDx=0;entryDy=0;entryPerimeter=0;exitX=0.033;exitY=1.114;exitDx=0;exitDy=0;exitPerimeter=0;" parent="1" source="4u6Bk__YJ9N9gN4nhSER-205" target="4u6Bk__YJ9N9gN4nhSER-186" edge="1">
          <mxGeometry width="50" height="50" relative="1" as="geometry">
            <mxPoint x="600" y="1720" as="sourcePoint" />
            <mxPoint x="2470" y="2370" as="targetPoint" />
            <Array as="points">
              <mxPoint x="600" y="1720" />
              <mxPoint x="160" y="1720" />
              <mxPoint x="160" y="2490" />
              <mxPoint x="2480" y="2490" />
              <mxPoint x="2480" y="2320" />
            </Array>
          </mxGeometry>
        </mxCell>
        <mxCell id="O92rZ5ZvlTnGVv4ENgCI-5" value="" style="rounded=0;whiteSpace=wrap;html=1;" parent="1" vertex="1">
          <mxGeometry x="1939" y="1920" width="120" height="40" as="geometry" />
        </mxCell>
        <mxCell id="O92rZ5ZvlTnGVv4ENgCI-6" value="" style="endArrow=classic;html=1;entryX=0;entryY=0.5;entryDx=0;entryDy=0;" parent="1" target="O92rZ5ZvlTnGVv4ENgCI-5" edge="1">
          <mxGeometry width="50" height="50" relative="1" as="geometry">
            <mxPoint x="1920" y="1860" as="sourcePoint" />
            <mxPoint x="1920" y="1940" as="targetPoint" />
            <Array as="points">
              <mxPoint x="1920" y="1940" />
            </Array>
          </mxGeometry>
        </mxCell>
        <mxCell id="O92rZ5ZvlTnGVv4ENgCI-7" value="&lt;b&gt;CF&lt;/b&gt;" style="text;html=1;align=center;verticalAlign=middle;resizable=0;points=[];autosize=1;fontSize=7;" parent="1" vertex="1">
          <mxGeometry x="1944" y="1935" width="30" height="10" as="geometry" />
        </mxCell>
        <mxCell id="O92rZ5ZvlTnGVv4ENgCI-8" value="&lt;b&gt;ZF&lt;/b&gt;" style="text;html=1;align=center;verticalAlign=middle;resizable=0;points=[];autosize=1;fontSize=7;" parent="1" vertex="1">
          <mxGeometry x="1994" y="1935" width="20" height="10" as="geometry" />
        </mxCell>
        <mxCell id="O92rZ5ZvlTnGVv4ENgCI-9" value="&lt;b&gt;NF&lt;/b&gt;" style="text;html=1;align=center;verticalAlign=middle;resizable=0;points=[];autosize=1;fontSize=7;" parent="1" vertex="1">
          <mxGeometry x="2024" y="1935" width="30" height="10" as="geometry" />
        </mxCell>
        <mxCell id="O92rZ5ZvlTnGVv4ENgCI-10" value="" style="endArrow=none;html=1;fontSize=7;entryX=0.333;entryY=0.002;entryDx=0;entryDy=0;entryPerimeter=0;" parent="1" edge="1">
          <mxGeometry width="50" height="50" relative="1" as="geometry">
            <mxPoint x="1974.04" y="1959.43" as="sourcePoint" />
            <mxPoint x="1974" y="1919.51" as="targetPoint" />
          </mxGeometry>
        </mxCell>
        <mxCell id="O92rZ5ZvlTnGVv4ENgCI-11" value="" style="endArrow=none;html=1;fontSize=7;entryX=0.333;entryY=0.002;entryDx=0;entryDy=0;entryPerimeter=0;" parent="1" edge="1">
          <mxGeometry width="50" height="50" relative="1" as="geometry">
            <mxPoint x="2014.04" y="1960.0000000000002" as="sourcePoint" />
            <mxPoint x="2014" y="1920.0800000000002" as="targetPoint" />
          </mxGeometry>
        </mxCell>
        <mxCell id="O92rZ5ZvlTnGVv4ENgCI-12" value="" style="endArrow=classic;html=1;" parent="1" edge="1">
          <mxGeometry width="50" height="50" relative="1" as="geometry">
            <mxPoint x="1989" y="1880" as="sourcePoint" />
            <mxPoint x="1989.43" y="1920" as="targetPoint" />
          </mxGeometry>
        </mxCell>
        <mxCell id="O92rZ5ZvlTnGVv4ENgCI-13" value="Inter" style="text;html=1;align=center;verticalAlign=middle;resizable=0;points=[];autosize=1;rotation=-90;" parent="1" vertex="1">
          <mxGeometry x="1959" y="1882" width="40" height="20" as="geometry" />
        </mxCell>
        <mxCell id="O92rZ5ZvlTnGVv4ENgCI-14" value="RTI" style="text;html=1;align=center;verticalAlign=middle;resizable=0;points=[];autosize=1;rotation=-90;" parent="1" vertex="1">
          <mxGeometry x="1989" y="1882" width="30" height="20" as="geometry" />
        </mxCell>
        <mxCell id="O92rZ5ZvlTnGVv4ENgCI-15" value="" style="endArrow=classic;html=1;" parent="1" edge="1">
          <mxGeometry width="50" height="50" relative="1" as="geometry">
            <mxPoint x="2014" y="1880" as="sourcePoint" />
            <mxPoint x="2014.4300000000003" y="1920" as="targetPoint" />
          </mxGeometry>
        </mxCell>
        <mxCell id="O92rZ5ZvlTnGVv4ENgCI-17" value="" style="endArrow=classic;html=1;exitX=0.157;exitY=-0.009;exitDx=0;exitDy=0;exitPerimeter=0;entryX=1;entryY=0.25;entryDx=0;entryDy=0;" parent="1" target="4u6Bk__YJ9N9gN4nhSER-208" edge="1">
          <mxGeometry width="50" height="50" relative="1" as="geometry">
            <mxPoint x="1959.8400000000001" y="1919.6399999999999" as="sourcePoint" />
            <mxPoint x="1833" y="1836.92" as="targetPoint" />
            <Array as="points">
              <mxPoint x="1960" y="1850" />
            </Array>
          </mxGeometry>
        </mxCell>
        <mxCell id="O92rZ5ZvlTnGVv4ENgCI-18" value="" style="endArrow=classic;html=1;entryX=0.905;entryY=-0.107;entryDx=0;entryDy=0;entryPerimeter=0;strokeColor=#3333FF;" parent="1" edge="1">
          <mxGeometry width="50" height="50" relative="1" as="geometry">
            <mxPoint x="2440" y="1793" as="sourcePoint" />
            <mxPoint x="2439.65" y="1838.7199999999998" as="targetPoint" />
            <Array as="points">
              <mxPoint x="2440" y="1839" />
            </Array>
          </mxGeometry>
        </mxCell>
        <mxCell id="O92rZ5ZvlTnGVv4ENgCI-19" value="Inter[1-bit]" style="text;html=1;align=center;verticalAlign=middle;resizable=0;points=[];autosize=1;rotation=-90;fontColor=#3333FF;" parent="1" vertex="1">
          <mxGeometry x="2395" y="1790" width="70" height="20" as="geometry" />
        </mxCell>
        <mxCell id="O92rZ5ZvlTnGVv4ENgCI-21" value="&lt;font style=&quot;font-size: 7px&quot;&gt;Interrupt-signal&lt;/font&gt;" style="text;html=1;align=center;verticalAlign=middle;resizable=0;points=[];autosize=1;rotation=0;fontColor=#3333FF;" parent="1" vertex="1">
          <mxGeometry x="1310" y="1803" width="60" height="20" as="geometry" />
        </mxCell>
        <mxCell id="O92rZ5ZvlTnGVv4ENgCI-22" value="" style="endArrow=classic;html=1;fontSize=7;exitX=0.991;exitY=0.07;exitDx=0;exitDy=0;exitPerimeter=0;entryX=0;entryY=0.07;entryDx=0;entryDy=0;entryPerimeter=0;strokeColor=#3333FF;" parent="1" edge="1">
          <mxGeometry width="50" height="50" relative="1" as="geometry">
            <mxPoint x="1478.8400000000001" y="1656.3899999999999" as="sourcePoint" />
            <mxPoint x="2239.2" y="1656.3899999999999" as="targetPoint" />
          </mxGeometry>
        </mxCell>
        <mxCell id="O92rZ5ZvlTnGVv4ENgCI-23" value="&lt;font style=&quot;font-size: 6px&quot;&gt;Interrupt-signal&lt;/font&gt;" style="text;html=1;align=center;verticalAlign=middle;resizable=0;points=[];autosize=1;fontSize=7;fontColor=#3333FF;" parent="1" vertex="1">
          <mxGeometry x="1470.0000000000002" y="1646.41" width="70" height="10" as="geometry" />
        </mxCell>
        <mxCell id="O92rZ5ZvlTnGVv4ENgCI-26" value="Ex/MEM Rdst2" style="text;html=1;align=center;verticalAlign=middle;resizable=0;points=[];autosize=1;" parent="1" vertex="1">
          <mxGeometry x="2035" y="2190" width="100" height="20" as="geometry" />
        </mxCell>
        <mxCell id="O92rZ5ZvlTnGVv4ENgCI-27" value="" style="endArrow=classic;html=1;" parent="1" edge="1">
          <mxGeometry width="50" height="50" relative="1" as="geometry">
            <mxPoint x="2120" y="2209.67" as="sourcePoint" />
            <mxPoint x="2040" y="2209.67" as="targetPoint" />
          </mxGeometry>
        </mxCell>
        <mxCell id="O92rZ5ZvlTnGVv4ENgCI-28" value="MEM/WB Rdst2" style="text;html=1;align=center;verticalAlign=middle;resizable=0;points=[];autosize=1;" parent="1" vertex="1">
          <mxGeometry x="2040" y="2210.0000000000005" width="100" height="20" as="geometry" />
        </mxCell>
        <mxCell id="O92rZ5ZvlTnGVv4ENgCI-29" value="" style="endArrow=classic;html=1;" parent="1" edge="1">
          <mxGeometry width="50" height="50" relative="1" as="geometry">
            <mxPoint x="2120" y="2227.8300000000004" as="sourcePoint" />
            <mxPoint x="2040" y="2227.8300000000004" as="targetPoint" />
          </mxGeometry>
        </mxCell>
        <mxCell id="joF-WAlRbkqWNDi0a5-E-4" value="&lt;h1&gt;&lt;span style=&quot;font-weight: normal&quot;&gt;&lt;font style=&quot;font-size: 8px&quot;&gt;Write data 1&lt;/font&gt;&lt;/span&gt;&lt;/h1&gt;" style="text;html=1;strokeColor=none;fillColor=none;spacing=0;spacingTop=-34;whiteSpace=wrap;overflow=hidden;rounded=0;" parent="1" vertex="1">
          <mxGeometry x="885" y="2015" width="45" height="11" as="geometry" />
        </mxCell>
        <mxCell id="joF-WAlRbkqWNDi0a5-E-5" value="&lt;h1&gt;&lt;span style=&quot;font-weight: normal&quot;&gt;&lt;font style=&quot;font-size: 8px&quot;&gt;Write register 1&lt;/font&gt;&lt;/span&gt;&lt;/h1&gt;" style="text;html=1;strokeColor=none;fillColor=none;spacing=0;spacingTop=-34;whiteSpace=wrap;overflow=hidden;rounded=0;" parent="1" vertex="1">
          <mxGeometry x="887" y="1995" width="53" height="11" as="geometry" />
        </mxCell>
        <mxCell id="joF-WAlRbkqWNDi0a5-E-9" value="&lt;b&gt;Register File&lt;/b&gt;" style="text;html=1;align=center;verticalAlign=middle;resizable=0;points=[];autosize=1;" parent="1" vertex="1">
          <mxGeometry x="900" y="1973.5" width="90" height="20" as="geometry" />
        </mxCell>
        <mxCell id="joF-WAlRbkqWNDi0a5-E-10" value="&lt;h1&gt;&lt;span style=&quot;font-weight: normal&quot;&gt;&lt;font style=&quot;font-size: 8px&quot;&gt;Write data 2&lt;/font&gt;&lt;/span&gt;&lt;/h1&gt;" style="text;html=1;strokeColor=none;fillColor=none;spacing=0;spacingTop=-34;whiteSpace=wrap;overflow=hidden;rounded=0;" parent="1" vertex="1">
          <mxGeometry x="885" y="2055.5" width="45" height="11" as="geometry" />
        </mxCell>
        <mxCell id="joF-WAlRbkqWNDi0a5-E-11" value="&lt;h1&gt;&lt;span style=&quot;font-weight: normal&quot;&gt;&lt;font style=&quot;font-size: 8px&quot;&gt;Write register 2&lt;/font&gt;&lt;/span&gt;&lt;/h1&gt;" style="text;html=1;strokeColor=none;fillColor=none;spacing=0;spacingTop=-34;whiteSpace=wrap;overflow=hidden;rounded=0;" parent="1" vertex="1">
          <mxGeometry x="887" y="2035.5" width="53" height="11" as="geometry" />
        </mxCell>
        <mxCell id="joF-WAlRbkqWNDi0a5-E-15" value="" style="endArrow=classic;html=1;entryX=0.325;entryY=0.499;entryDx=0;entryDy=0;entryPerimeter=0;" parent="1" target="4u6Bk__YJ9N9gN4nhSER-38" edge="1">
          <mxGeometry width="50" height="50" relative="1" as="geometry">
            <mxPoint x="1530" y="1990" as="sourcePoint" />
            <mxPoint x="1610" y="1960" as="targetPoint" />
          </mxGeometry>
        </mxCell>
        <mxCell id="joF-WAlRbkqWNDi0a5-E-16" value="&lt;b&gt;&lt;font style=&quot;font-size: 12px&quot;&gt;PC+1/2&lt;/font&gt;&lt;/b&gt;" style="text;html=1;align=center;verticalAlign=middle;resizable=0;points=[];autosize=1;fontSize=7;" parent="1" vertex="1">
          <mxGeometry x="2415" y="2323.25" width="60" height="20" as="geometry" />
        </mxCell>
        <mxCell id="joF-WAlRbkqWNDi0a5-E-17" value="" style="shape=ellipse;fillColor=#000000;strokeColor=none;html=1" parent="1" vertex="1">
          <mxGeometry x="2477.5" y="2107" width="5" height="6" as="geometry" />
        </mxCell>
        <mxCell id="joF-WAlRbkqWNDi0a5-E-20" value="Rscr1out[32-bits]" style="text;html=1;align=center;verticalAlign=middle;resizable=0;points=[];autosize=1;fontSize=7;" parent="1" vertex="1">
          <mxGeometry x="1185" y="1947.5" width="70" height="10" as="geometry" />
        </mxCell>
        <mxCell id="joF-WAlRbkqWNDi0a5-E-21" value="Rscr2out[32-bits]" style="text;html=1;align=center;verticalAlign=middle;resizable=0;points=[];autosize=1;fontSize=7;" parent="1" vertex="1">
          <mxGeometry x="1185" y="1988.5" width="70" height="10" as="geometry" />
        </mxCell>
        <mxCell id="joF-WAlRbkqWNDi0a5-E-24" value="&lt;font style=&quot;font-size: 7px&quot;&gt;&lt;span style=&quot;text-align: left ; font-size: 7px&quot;&gt;Rdst-address&lt;/span&gt;&lt;span style=&quot;text-align: left ; font-size: 7px&quot;&gt;[3-bits]&lt;/span&gt;&lt;/font&gt;" style="text;html=1;align=center;verticalAlign=middle;resizable=0;points=[];autosize=1;fontSize=7;rotation=0;" parent="1" vertex="1">
          <mxGeometry x="840" y="2349" width="80" height="10" as="geometry" />
        </mxCell>
        <mxCell id="joF-WAlRbkqWNDi0a5-E-25" value="" style="endArrow=classic;html=1;entryX=0;entryY=0.531;entryDx=0;entryDy=0;entryPerimeter=0;" parent="1" target="4u6Bk__YJ9N9gN4nhSER-31" edge="1">
          <mxGeometry width="50" height="50" relative="1" as="geometry">
            <mxPoint x="1500" y="1960" as="sourcePoint" />
            <mxPoint x="2170" y="2060" as="targetPoint" />
            <Array as="points">
              <mxPoint x="1500" y="2060" />
            </Array>
          </mxGeometry>
        </mxCell>
        <mxCell id="joF-WAlRbkqWNDi0a5-E-26" value="" style="shape=ellipse;fillColor=#000000;strokeColor=none;html=1" parent="1" vertex="1">
          <mxGeometry x="1497.5" y="1957.5" width="5" height="5" as="geometry" />
        </mxCell>
        <mxCell id="joF-WAlRbkqWNDi0a5-E-29" value="Rsrc1[32-bits]" style="text;html=1;align=center;verticalAlign=middle;resizable=0;points=[];autosize=1;fontSize=7;" parent="1" vertex="1">
          <mxGeometry x="1994" y="2045.5000000000002" width="60" height="10" as="geometry" />
        </mxCell>
        <mxCell id="joF-WAlRbkqWNDi0a5-E-30" value="RDst[32-bits]" style="text;html=1;align=center;verticalAlign=middle;resizable=0;points=[];autosize=1;fontSize=7;" parent="1" vertex="1">
          <mxGeometry x="2305" y="2049.5" width="60" height="10" as="geometry" />
        </mxCell>
        <mxCell id="joF-WAlRbkqWNDi0a5-E-31" value="RDst[32-bits]" style="text;html=1;align=center;verticalAlign=middle;resizable=0;points=[];autosize=1;fontSize=7;" parent="1" vertex="1">
          <mxGeometry x="2563" y="2160" width="60" height="10" as="geometry" />
        </mxCell>
        <mxCell id="joF-WAlRbkqWNDi0a5-E-32" value="&lt;font style=&quot;font-size: 6px&quot;&gt;RDst&lt;br&gt;[32-bits]&lt;/font&gt;" style="text;html=1;align=center;verticalAlign=middle;resizable=0;points=[];autosize=1;fontSize=7;" parent="1" vertex="1">
          <mxGeometry x="2483" y="2090" width="40" height="20" as="geometry" />
        </mxCell>
        <mxCell id="joF-WAlRbkqWNDi0a5-E-33" value="&lt;b&gt;&lt;font style=&quot;font-size: 8px&quot;&gt;PC/PC+2 [32-bits]&lt;/font&gt;&lt;/b&gt;" style="text;html=1;align=center;verticalAlign=middle;resizable=0;points=[];autosize=1;fontSize=7;" parent="1" vertex="1">
          <mxGeometry x="2318" y="2268.25" width="80" height="10" as="geometry" />
        </mxCell>
        <mxCell id="joF-WAlRbkqWNDi0a5-E-34" value="Stack -op&lt;span style=&quot;font-size: 7px&quot;&gt;[1-bits]&lt;/span&gt;" style="text;html=1;align=center;verticalAlign=middle;resizable=0;points=[];autosize=1;rotation=-90;fontColor=#3333FF;" parent="1" vertex="1">
          <mxGeometry x="2504.59" y="1812" width="90" height="20" as="geometry" />
        </mxCell>
        <mxCell id="joF-WAlRbkqWNDi0a5-E-36" value="Result-ALU [32-bits]" style="text;html=1;align=center;verticalAlign=middle;resizable=0;points=[];autosize=1;fontSize=7;" parent="1" vertex="1">
          <mxGeometry x="2425" y="1975" width="80" height="10" as="geometry" />
        </mxCell>
        <mxCell id="joF-WAlRbkqWNDi0a5-E-37" value="&lt;font style=&quot;font-size: 10px&quot;&gt;[1-bit]&lt;/font&gt;" style="text;html=1;align=center;verticalAlign=middle;resizable=0;points=[];autosize=1;spacing=0;rotation=-90;" parent="1" vertex="1">
          <mxGeometry x="2529.59" y="2201" width="40" height="20" as="geometry" />
        </mxCell>
        <mxCell id="joF-WAlRbkqWNDi0a5-E-38" value="[32-bits]" style="text;html=1;align=center;verticalAlign=middle;resizable=0;points=[];autosize=1;" parent="1" vertex="1">
          <mxGeometry x="2609.59" y="1939.43" width="60" height="20" as="geometry" />
        </mxCell>
        <mxCell id="joF-WAlRbkqWNDi0a5-E-40" value="&lt;font style=&quot;font-size: 7px&quot;&gt;Call&lt;/font&gt;&lt;span style=&quot;font-size: 7px&quot;&gt;[1-bit]&lt;/span&gt;" style="text;html=1;align=center;verticalAlign=middle;resizable=0;points=[];autosize=1;spacing=0;fontColor=#3333FF;" parent="1" vertex="1">
          <mxGeometry x="2310" y="2022" width="50" height="20" as="geometry" />
        </mxCell>
        <mxCell id="joF-WAlRbkqWNDi0a5-E-41" value="&lt;font style=&quot;font-size: 12px&quot;&gt;MEM Enable &lt;br&gt;[1-bit ReadEnable]&lt;br&gt;[1-bit WriteEnable]&lt;br&gt;&lt;/font&gt;" style="text;html=1;align=center;verticalAlign=middle;resizable=0;points=[];autosize=1;fontSize=7;rotation=-90;fontColor=#3333FF;" parent="1" vertex="1">
          <mxGeometry x="2706.59" y="1818" width="120" height="30" as="geometry" />
        </mxCell>
        <mxCell id="joF-WAlRbkqWNDi0a5-E-42" value="Call[1-bits]" style="text;html=1;align=center;verticalAlign=middle;resizable=0;points=[];autosize=1;fontSize=7;fontColor=#3333FF;" parent="1" vertex="1">
          <mxGeometry x="1474.8400000000001" y="1730.2000000000003" width="50" height="10" as="geometry" />
        </mxCell>
        <mxCell id="joF-WAlRbkqWNDi0a5-E-43" value="" style="endArrow=classic;html=1;fontSize=7;exitX=0.991;exitY=0.07;exitDx=0;exitDy=0;exitPerimeter=0;entryX=0;entryY=0.07;entryDx=0;entryDy=0;entryPerimeter=0;strokeColor=#3333FF;" parent="1" edge="1">
          <mxGeometry width="50" height="50" relative="1" as="geometry">
            <mxPoint x="1480.64" y="1740.1799999999998" as="sourcePoint" />
            <mxPoint x="2241" y="1740.1799999999998" as="targetPoint" />
          </mxGeometry>
        </mxCell>
        <mxCell id="joF-WAlRbkqWNDi0a5-E-46" value="EX [1-bit] Enable&lt;br&gt;[3-bits]Func" style="text;html=1;align=center;verticalAlign=middle;resizable=0;points=[];autosize=1;rotation=-90;fontColor=#3333FF;" parent="1" vertex="1">
          <mxGeometry x="1584" y="1814" width="110" height="30" as="geometry" />
        </mxCell>
        <mxCell id="joF-WAlRbkqWNDi0a5-E-47" value="&lt;span&gt;Sign extend enable&lt;br&gt;&lt;/span&gt;[1-bits]" style="text;html=1;align=center;verticalAlign=middle;resizable=0;points=[];autosize=1;fontSize=7;fontColor=#3333FF;" parent="1" vertex="1">
          <mxGeometry x="967" y="1780" width="80" height="20" as="geometry" />
        </mxCell>
        <mxCell id="joF-WAlRbkqWNDi0a5-E-48" value="&lt;span&gt;Sign extend enable&lt;br&gt;&lt;/span&gt;[1-bits]" style="text;html=1;align=center;verticalAlign=middle;resizable=0;points=[];autosize=1;fontSize=7;rotation=-90;fontColor=#3333FF;" parent="1" vertex="1">
          <mxGeometry x="1009" y="2060" width="80" height="20" as="geometry" />
        </mxCell>
        <mxCell id="joF-WAlRbkqWNDi0a5-E-49" value="Output-enable[1-bit]" style="text;html=1;align=center;verticalAlign=middle;resizable=0;points=[];autosize=1;fontSize=7;rotation=-90;fontColor=#3333FF;" parent="1" vertex="1">
          <mxGeometry x="1074" y="2190.58" width="80" height="10" as="geometry" />
        </mxCell>
        <mxCell id="joF-WAlRbkqWNDi0a5-E-50" value="Rscr1out[32-bits]" style="text;html=1;align=center;verticalAlign=middle;resizable=0;points=[];autosize=1;fontSize=7;rotation=-90;" parent="1" vertex="1">
          <mxGeometry x="1038" y="2221" width="70" height="10" as="geometry" />
        </mxCell>
        <mxCell id="joF-WAlRbkqWNDi0a5-E-51" value="Stack-op[1-bit]" style="text;html=1;align=center;verticalAlign=middle;resizable=0;points=[];autosize=1;fontSize=7;fontColor=#3333FF;" parent="1" vertex="1">
          <mxGeometry x="965" y="1666.7900000000002" width="60" height="10" as="geometry" />
        </mxCell>
        <mxCell id="JGrU1U19Wn6LMI07_7Y3-1" value="" style="shape=ellipse;fillColor=#000000;strokeColor=none;html=1" parent="1" vertex="1">
          <mxGeometry x="348" y="1877.5" width="5" height="5" as="geometry" />
        </mxCell>
        <mxCell id="JGrU1U19Wn6LMI07_7Y3-2" value="&lt;b&gt;Add&lt;/b&gt;" style="shape=step;perimeter=stepPerimeter;whiteSpace=wrap;html=1;fixedSize=1;" parent="1" vertex="1">
          <mxGeometry x="410" y="1758.41" width="70" height="40" as="geometry" />
        </mxCell>
        <mxCell id="JGrU1U19Wn6LMI07_7Y3-3" value="" style="endArrow=classic;html=1;entryX=0;entryY=0.04;entryDx=0;entryDy=0;entryPerimeter=0;" parent="1" target="JGrU1U19Wn6LMI07_7Y3-2" edge="1">
          <mxGeometry width="50" height="50" relative="1" as="geometry">
            <mxPoint x="350" y="1820" as="sourcePoint" />
            <mxPoint x="400" y="1760" as="targetPoint" />
            <Array as="points">
              <mxPoint x="350" y="1760" />
            </Array>
          </mxGeometry>
        </mxCell>
        <mxCell id="JGrU1U19Wn6LMI07_7Y3-4" value="" style="shape=ellipse;fillColor=#000000;strokeColor=none;html=1" parent="1" vertex="1">
          <mxGeometry x="348" y="1812" width="5" height="5" as="geometry" />
        </mxCell>
        <mxCell id="JGrU1U19Wn6LMI07_7Y3-5" value="2" style="text;html=1;align=center;verticalAlign=middle;resizable=0;points=[];autosize=1;" parent="1" vertex="1">
          <mxGeometry x="370" y="1820" width="20" height="20" as="geometry" />
        </mxCell>
        <mxCell id="JGrU1U19Wn6LMI07_7Y3-7" value="" style="endArrow=classic;html=1;" parent="1" edge="1">
          <mxGeometry width="50" height="50" relative="1" as="geometry">
            <mxPoint x="388" y="1790" as="sourcePoint" />
            <mxPoint x="418" y="1790" as="targetPoint" />
          </mxGeometry>
        </mxCell>
        <mxCell id="JGrU1U19Wn6LMI07_7Y3-8" value="1" style="text;html=1;align=center;verticalAlign=middle;resizable=0;points=[];autosize=1;" parent="1" vertex="1">
          <mxGeometry x="368" y="1780" width="20" height="20" as="geometry" />
        </mxCell>
        <mxCell id="JGrU1U19Wn6LMI07_7Y3-9" value="" style="endArrow=classic;html=1;" parent="1" source="4u6Bk__YJ9N9gN4nhSER-11" edge="1">
          <mxGeometry width="50" height="50" relative="1" as="geometry">
            <mxPoint x="490" y="1820" as="sourcePoint" />
            <mxPoint x="530" y="1820" as="targetPoint" />
          </mxGeometry>
        </mxCell>
        <mxCell id="JGrU1U19Wn6LMI07_7Y3-11" value="" style="endArrow=classic;html=1;" parent="1" edge="1">
          <mxGeometry width="50" height="50" relative="1" as="geometry">
            <mxPoint x="480" y="1778.36" as="sourcePoint" />
            <mxPoint x="530" y="1778.36" as="targetPoint" />
          </mxGeometry>
        </mxCell>
        <mxCell id="JGrU1U19Wn6LMI07_7Y3-12" value="&lt;b&gt;&lt;font style=&quot;font-size: 21px&quot;&gt;MUX&lt;/font&gt;&lt;/b&gt;" style="shape=trapezoid;perimeter=trapezoidPerimeter;whiteSpace=wrap;html=1;rotation=90;" parent="1" vertex="1">
          <mxGeometry x="502.99999999999994" y="1782.25" width="90.41" height="35.5" as="geometry" />
        </mxCell>
        <mxCell id="JGrU1U19Wn6LMI07_7Y3-13" value="" style="endArrow=classic;html=1;" parent="1" target="JGrU1U19Wn6LMI07_7Y3-12" edge="1">
          <mxGeometry width="50" height="50" relative="1" as="geometry">
            <mxPoint x="548" y="1920" as="sourcePoint" />
            <mxPoint x="548" y="1850" as="targetPoint" />
          </mxGeometry>
        </mxCell>
        <mxCell id="JGrU1U19Wn6LMI07_7Y3-14" value="&lt;font style=&quot;font-size: 6px&quot;&gt;least significant bit[0]&lt;/font&gt;" style="text;html=1;align=center;verticalAlign=middle;resizable=0;points=[];autosize=1;rotation=-90;" parent="1" vertex="1">
          <mxGeometry x="503" y="1871" width="70" height="20" as="geometry" />
        </mxCell>
        <mxCell id="JGrU1U19Wn6LMI07_7Y3-15" value="PC+1" style="text;html=1;align=center;verticalAlign=middle;resizable=0;points=[];autosize=1;fontSize=7;" parent="1" vertex="1">
          <mxGeometry x="486" y="1767" width="30" height="10" as="geometry" />
        </mxCell>
        <mxCell id="JGrU1U19Wn6LMI07_7Y3-16" value="PC+2" style="text;html=1;align=center;verticalAlign=middle;resizable=0;points=[];autosize=1;fontSize=7;" parent="1" vertex="1">
          <mxGeometry x="486" y="1809.5" width="30" height="10" as="geometry" />
        </mxCell>
        <mxCell id="JGrU1U19Wn6LMI07_7Y3-29" value="" style="endArrow=classic;html=1;strokeColor=#000000;fontColor=#0000FF;entryX=0.5;entryY=0;entryDx=0;entryDy=0;" parent="1" target="4u6Bk__YJ9N9gN4nhSER-208" edge="1">
          <mxGeometry width="50" height="50" relative="1" as="geometry">
            <mxPoint x="2400" y="2193" as="sourcePoint" />
            <mxPoint x="1780" y="1800" as="targetPoint" />
            <Array as="points">
              <mxPoint x="2400" y="2450" />
              <mxPoint x="2160" y="2450" />
              <mxPoint x="2160" y="1780" />
              <mxPoint x="1780" y="1780" />
            </Array>
          </mxGeometry>
        </mxCell>
        <mxCell id="T4Knhte3SUwD-FYIo6XV-25" value="" style="shape=ellipse;fillColor=#000000;strokeColor=none;html=1" parent="1" vertex="1">
          <mxGeometry x="2478" y="2335" width="5" height="6" as="geometry" />
        </mxCell>
        <mxCell id="JGrU1U19Wn6LMI07_7Y3-33" value="" style="shape=ellipse;fillColor=#000000;strokeColor=none;html=1" parent="1" vertex="1">
          <mxGeometry x="2397" y="2191.5" width="5" height="6" as="geometry" />
        </mxCell>
        <mxCell id="JGrU1U19Wn6LMI07_7Y3-34" value="" style="endArrow=classic;html=1;strokeColor=#000000;fontColor=#0000FF;entryX=0.824;entryY=-0.063;entryDx=0;entryDy=0;entryPerimeter=0;" parent="1" target="4u6Bk__YJ9N9gN4nhSER-208" edge="1">
          <mxGeometry width="50" height="50" relative="1" as="geometry">
            <mxPoint x="2400" y="2110" as="sourcePoint" />
            <mxPoint x="1840" y="1800" as="targetPoint" />
            <Array as="points">
              <mxPoint x="2400" y="2020" />
              <mxPoint x="2290" y="2020" />
              <mxPoint x="2290" y="1610" />
              <mxPoint x="2200" y="1610" />
              <mxPoint x="2200" y="1800" />
              <mxPoint x="1819" y="1800" />
            </Array>
          </mxGeometry>
        </mxCell>
        <mxCell id="JGrU1U19Wn6LMI07_7Y3-35" value="" style="endArrow=classic;html=1;strokeColor=#000000;fontColor=#0000FF;entryX=0.146;entryY=-0.063;entryDx=0;entryDy=0;entryPerimeter=0;" parent="1" target="4u6Bk__YJ9N9gN4nhSER-208" edge="1">
          <mxGeometry width="50" height="50" relative="1" as="geometry">
            <mxPoint x="2420" y="2150" as="sourcePoint" />
            <mxPoint x="1740" y="1810" as="targetPoint" />
            <Array as="points">
              <mxPoint x="2420" y="2480" />
              <mxPoint x="2200" y="2480" />
              <mxPoint x="2200" y="1810" />
              <mxPoint x="1738" y="1810" />
            </Array>
          </mxGeometry>
        </mxCell>
        <mxCell id="JGrU1U19Wn6LMI07_7Y3-37" value="&lt;font color=&quot;#000000&quot; style=&quot;font-size: 6px&quot;&gt;Reset CF[1-bit]&lt;/font&gt;" style="text;html=1;align=center;verticalAlign=middle;resizable=0;points=[];autosize=1;fontColor=#0000FF;spacing=0;rotation=-90;" parent="1" vertex="1">
          <mxGeometry x="1700" y="1794.5" width="60" height="20" as="geometry" />
        </mxCell>
        <mxCell id="JGrU1U19Wn6LMI07_7Y3-38" value="&lt;font color=&quot;#000000&quot;&gt;&lt;font style=&quot;font-size: 6px&quot;&gt;Reset&amp;nbsp; ZF&lt;/font&gt;&lt;span style=&quot;font-size: 6px&quot;&gt;[1-bit]&lt;/span&gt;&lt;/font&gt;" style="text;html=1;align=center;verticalAlign=middle;resizable=0;points=[];autosize=1;fontColor=#0000FF;spacing=0;rotation=-90;" parent="1" vertex="1">
          <mxGeometry x="1742.2" y="1796.5" width="60" height="20" as="geometry" />
        </mxCell>
        <mxCell id="JGrU1U19Wn6LMI07_7Y3-39" value="&lt;font color=&quot;#000000&quot; style=&quot;font-size: 6px&quot;&gt;Reset&amp;nbsp; NF&lt;/font&gt;&lt;span style=&quot;font-size: 6px&quot;&gt;&lt;font color=&quot;#000000&quot;&gt;[1-bit]&lt;/font&gt;&lt;/span&gt;" style="text;html=1;align=center;verticalAlign=middle;resizable=0;points=[];autosize=1;fontColor=#0000FF;spacing=0;rotation=-90;" parent="1" vertex="1">
          <mxGeometry x="1782" y="1797" width="60" height="20" as="geometry" />
        </mxCell>
        <mxCell id="JGrU1U19Wn6LMI07_7Y3-40" value="" style="endArrow=classic;html=1;strokeColor=#000000;fontColor=#0000FF;" parent="1" edge="1">
          <mxGeometry width="50" height="50" relative="1" as="geometry">
            <mxPoint x="700" y="2360" as="sourcePoint" />
            <mxPoint x="770" y="1940" as="targetPoint" />
            <Array as="points">
              <mxPoint x="700" y="1940" />
            </Array>
          </mxGeometry>
        </mxCell>
        <mxCell id="JGrU1U19Wn6LMI07_7Y3-41" value="Rscr2-&lt;span style=&quot;text-align: left&quot;&gt;address&lt;/span&gt;[3-bits]" style="text;html=1;align=center;verticalAlign=middle;resizable=0;points=[];autosize=1;fontSize=7;" parent="1" vertex="1">
          <mxGeometry x="680" y="1910" width="80" height="10" as="geometry" />
        </mxCell>
        <mxCell id="JGrU1U19Wn6LMI07_7Y3-42" value="" style="endArrow=classic;html=1;strokeColor=#000000;fontColor=#0000FF;exitX=1.02;exitY=0.36;exitDx=0;exitDy=0;exitPerimeter=0;" parent="1" edge="1">
          <mxGeometry width="50" height="50" relative="1" as="geometry">
            <mxPoint x="680.8" y="1920.6" as="sourcePoint" />
            <mxPoint x="770" y="1921" as="targetPoint" />
          </mxGeometry>
        </mxCell>
        <mxCell id="JGrU1U19Wn6LMI07_7Y3-43" value="&lt;font style=&quot;font-size: 7px&quot;&gt;&lt;span style=&quot;text-align: left ; font-size: 7px&quot;&gt;Rdst-address&lt;/span&gt;&lt;span style=&quot;text-align: left ; font-size: 7px&quot;&gt;[3-bits]&lt;/span&gt;&lt;/font&gt;" style="text;html=1;align=center;verticalAlign=middle;resizable=0;points=[];autosize=1;fontSize=7;rotation=0;" parent="1" vertex="1">
          <mxGeometry x="676" y="1928.25" width="80" height="10" as="geometry" />
        </mxCell>
        <mxCell id="JGrU1U19Wn6LMI07_7Y3-44" value="&lt;b&gt;&lt;font style=&quot;font-size: 5px&quot;&gt;MUX&lt;/font&gt;&lt;/b&gt;" style="shape=trapezoid;perimeter=trapezoidPerimeter;whiteSpace=wrap;html=1;rotation=90;align=center;spacingTop=-5;" parent="1" vertex="1">
          <mxGeometry x="760" y="1926.11" width="34" height="11.64" as="geometry" />
        </mxCell>
        <mxCell id="JGrU1U19Wn6LMI07_7Y3-45" value="" style="endArrow=classic;html=1;strokeColor=#000000;fontColor=#0000FF;entryX=0;entryY=0.188;entryDx=0;entryDy=0;entryPerimeter=0;exitX=0.5;exitY=0;exitDx=0;exitDy=0;" parent="1" source="JGrU1U19Wn6LMI07_7Y3-44" target="joF-WAlRbkqWNDi0a5-E-1" edge="1">
          <mxGeometry width="50" height="50" relative="1" as="geometry">
            <mxPoint x="810" y="1980" as="sourcePoint" />
            <mxPoint x="860" y="1930" as="targetPoint" />
            <Array as="points">
              <mxPoint x="800" y="1932" />
              <mxPoint x="800" y="1950" />
            </Array>
          </mxGeometry>
        </mxCell>
        <mxCell id="JGrU1U19Wn6LMI07_7Y3-46" value="" style="endArrow=classic;html=1;strokeColor=#3333FF;fontColor=#0000FF;entryX=1;entryY=0.25;entryDx=0;entryDy=0;exitX=0.19;exitY=0.898;exitDx=0;exitDy=0;exitPerimeter=0;" parent="1" source="4u6Bk__YJ9N9gN4nhSER-43" target="JGrU1U19Wn6LMI07_7Y3-44" edge="1">
          <mxGeometry width="50" height="50" relative="1" as="geometry">
            <mxPoint x="890" y="1800" as="sourcePoint" />
            <mxPoint x="800" y="1950" as="targetPoint" />
            <Array as="points">
              <mxPoint x="860" y="1800" />
              <mxPoint x="860" y="1990" />
              <mxPoint x="779" y="1990" />
            </Array>
          </mxGeometry>
        </mxCell>
        <mxCell id="JGrU1U19Wn6LMI07_7Y3-47" value="&lt;font style=&quot;font-size: 5px&quot;&gt;swap-selector[1-bit]&lt;/font&gt;" style="text;html=1;align=center;verticalAlign=middle;resizable=0;points=[];autosize=1;fontColor=#0000FF;rotation=-90;" parent="1" vertex="1">
          <mxGeometry x="737" y="1964.5" width="60" height="20" as="geometry" />
        </mxCell>
        <mxCell id="T4Knhte3SUwD-FYIo6XV-91" value="" style="shape=ellipse;fillColor=#000000;strokeColor=none;html=1" parent="1" vertex="1">
          <mxGeometry x="797" y="1934" width="5" height="5" as="geometry" />
        </mxCell>
        <mxCell id="JGrU1U19Wn6LMI07_7Y3-48" value="" style="shape=ellipse;fillColor=#000000;strokeColor=none;html=1" parent="1" vertex="1">
          <mxGeometry x="697.5" y="2357.75" width="5" height="5" as="geometry" />
        </mxCell>
        <mxCell id="JGrU1U19Wn6LMI07_7Y3-50" value="&lt;span style=&quot;text-align: left&quot;&gt;Rscr1-address&lt;/span&gt;&lt;span style=&quot;text-align: left&quot;&gt;[3-bits]&lt;/span&gt;" style="text;html=1;align=center;verticalAlign=middle;resizable=0;points=[];autosize=1;fontSize=7;rotation=0;" parent="1" vertex="1">
          <mxGeometry x="1814" y="2390" width="90" height="10" as="geometry" />
        </mxCell>
        <mxCell id="JGrU1U19Wn6LMI07_7Y3-51" value="" style="endArrow=classic;html=1;strokeColor=#000000;fontColor=#0000FF;entryX=0;entryY=0.988;entryDx=0;entryDy=0;entryPerimeter=0;" parent="1" target="4u6Bk__YJ9N9gN4nhSER-31" edge="1">
          <mxGeometry width="50" height="50" relative="1" as="geometry">
            <mxPoint x="1490" y="2190" as="sourcePoint" />
            <mxPoint x="2230" y="2430" as="targetPoint" />
            <Array as="points">
              <mxPoint x="1490" y="2430" />
            </Array>
          </mxGeometry>
        </mxCell>
        <mxCell id="JGrU1U19Wn6LMI07_7Y3-52" value="" style="shape=ellipse;fillColor=#000000;strokeColor=none;html=1" parent="1" vertex="1">
          <mxGeometry x="1488" y="2187.25" width="5" height="5" as="geometry" />
        </mxCell>
        <mxCell id="JGrU1U19Wn6LMI07_7Y3-53" value="Rsrc2[32-bits]" style="text;html=1;align=center;verticalAlign=middle;resizable=0;points=[];autosize=1;fontSize=7;" parent="1" vertex="1">
          <mxGeometry x="2318" y="2427" width="60" height="10" as="geometry" />
        </mxCell>
        <mxCell id="JGrU1U19Wn6LMI07_7Y3-54" value="" style="endArrow=classic;html=1;fontSize=7;entryX=0;entryY=0.986;entryDx=0;entryDy=0;entryPerimeter=0;" parent="1" edge="1">
          <mxGeometry width="50" height="50" relative="1" as="geometry">
            <mxPoint x="2280.12" y="2425.6700000000005" as="sourcePoint" />
            <mxPoint x="2880" y="2424.3299999999995" as="targetPoint" />
          </mxGeometry>
        </mxCell>
        <mxCell id="JGrU1U19Wn6LMI07_7Y3-55" value="" style="endArrow=classic;html=1;fontSize=7;entryX=0;entryY=0.986;entryDx=0;entryDy=0;entryPerimeter=0;" parent="1" edge="1">
          <mxGeometry width="50" height="50" relative="1" as="geometry">
            <mxPoint x="2280.12" y="2437.0000000000005" as="sourcePoint" />
            <mxPoint x="2880" y="2435.6599999999994" as="targetPoint" />
          </mxGeometry>
        </mxCell>
        <mxCell id="JGrU1U19Wn6LMI07_7Y3-56" value="&lt;span style=&quot;text-align: left&quot;&gt;Rscr1-address&lt;/span&gt;&lt;span style=&quot;text-align: left&quot;&gt;[3-bits]&lt;/span&gt;" style="text;html=1;align=center;verticalAlign=middle;resizable=0;points=[];autosize=1;fontSize=7;rotation=0;" parent="1" vertex="1">
          <mxGeometry x="2299" y="2415" width="90" height="10" as="geometry" />
        </mxCell>
        <mxCell id="JGrU1U19Wn6LMI07_7Y3-57" value="Reg-writeback-address1[3-bits]" style="text;html=1;align=center;verticalAlign=middle;resizable=0;points=[];autosize=1;fontSize=7;rotation=0;" parent="1" vertex="1">
          <mxGeometry x="2580" y="2347.75" width="110" height="10" as="geometry" />
        </mxCell>
        <mxCell id="JGrU1U19Wn6LMI07_7Y3-58" value="Reg-writeback-address1[3-bits]" style="text;html=1;align=center;verticalAlign=middle;resizable=0;points=[];autosize=1;fontSize=7;rotation=90;" parent="1" vertex="1">
          <mxGeometry x="2952" y="2433" width="110" height="10" as="geometry" />
        </mxCell>
        <mxCell id="JGrU1U19Wn6LMI07_7Y3-59" value="&lt;span style=&quot;text-align: left&quot;&gt;Rscr1-address&lt;/span&gt;&lt;span style=&quot;text-align: left&quot;&gt;[3-bits]&lt;/span&gt;" style="text;html=1;align=center;verticalAlign=middle;resizable=0;points=[];autosize=1;fontSize=7;rotation=0;" parent="1" vertex="1">
          <mxGeometry x="2779.59" y="2414" width="90" height="10" as="geometry" />
        </mxCell>
        <mxCell id="JGrU1U19Wn6LMI07_7Y3-60" value="Rsrc2[32-bits]" style="text;html=1;align=center;verticalAlign=middle;resizable=0;points=[];autosize=1;fontSize=7;" parent="1" vertex="1">
          <mxGeometry x="2798.59" y="2426" width="60" height="10" as="geometry" />
        </mxCell>
        <mxCell id="JGrU1U19Wn6LMI07_7Y3-61" value="Result-ALU" style="text;html=1;align=center;verticalAlign=middle;resizable=0;points=[];autosize=1;fontSize=7;" parent="1" vertex="1">
          <mxGeometry x="2800.59" y="2404" width="50" height="10" as="geometry" />
        </mxCell>
        <mxCell id="JGrU1U19Wn6LMI07_7Y3-63" value="" style="endArrow=classic;html=1;fontSize=7;entryX=0;entryY=0.75;entryDx=0;entryDy=0;" parent="1" target="joF-WAlRbkqWNDi0a5-E-1" edge="1">
          <mxGeometry width="50" height="50" relative="1" as="geometry">
            <mxPoint x="2922" y="2420" as="sourcePoint" />
            <mxPoint x="880.6300000000001" y="2059.4300000000003" as="targetPoint" />
            <Array as="points">
              <mxPoint x="2970" y="2420" />
              <mxPoint x="2970" y="2600" />
              <mxPoint x="800" y="2600" />
              <mxPoint x="800" y="2040" />
            </Array>
          </mxGeometry>
        </mxCell>
        <mxCell id="JGrU1U19Wn6LMI07_7Y3-64" value="Reg-writeback-address2[3-bits]" style="text;html=1;align=center;verticalAlign=middle;resizable=0;points=[];autosize=1;fontSize=7;rotation=90;" parent="1" vertex="1">
          <mxGeometry x="2922" y="2455" width="110" height="10" as="geometry" />
        </mxCell>
        <mxCell id="JGrU1U19Wn6LMI07_7Y3-66" value="" style="endArrow=classic;html=1;fontSize=7;entryX=-0.002;entryY=0.9;entryDx=0;entryDy=0;entryPerimeter=0;" parent="1" target="joF-WAlRbkqWNDi0a5-E-1" edge="1">
          <mxGeometry width="50" height="50" relative="1" as="geometry">
            <mxPoint x="2920" y="2434.5" as="sourcePoint" />
            <mxPoint x="878" y="2054.5" as="targetPoint" />
            <Array as="points">
              <mxPoint x="2950" y="2435" />
              <mxPoint x="2950" y="2614" />
              <mxPoint x="810" y="2615" />
              <mxPoint x="810" y="2064" />
            </Array>
          </mxGeometry>
        </mxCell>
        <mxCell id="JGrU1U19Wn6LMI07_7Y3-67" value="Reg-writeback-2[32-bits]" style="text;html=1;align=center;verticalAlign=middle;resizable=0;points=[];autosize=1;fontSize=7;rotation=90;" parent="1" vertex="1">
          <mxGeometry x="2912" y="2468" width="90" height="10" as="geometry" />
        </mxCell>
        <mxCell id="JGrU1U19Wn6LMI07_7Y3-68" value="Reg-writeback-1[32-bits]" style="text;html=1;align=center;verticalAlign=middle;resizable=0;points=[];autosize=1;fontSize=7;rotation=90;" parent="1" vertex="1">
          <mxGeometry x="3120" y="2341.5" width="90" height="10" as="geometry" />
        </mxCell>
        <mxCell id="JGrU1U19Wn6LMI07_7Y3-70" value="&lt;font style=&quot;font-size: 7px&quot;&gt;swap-enable[1-bit]&lt;/font&gt;" style="text;html=1;align=center;verticalAlign=middle;resizable=0;points=[];autosize=1;fontColor=#0000FF;rotation=-90;" parent="1" vertex="1">
          <mxGeometry x="814" y="1839" width="70" height="20" as="geometry" />
        </mxCell>
        <mxCell id="_6MAN86CtqND2G4DpBEy-1" value="" style="endArrow=classic;html=1;fillColor=#0050ef;strokeColor=#3333FF;" edge="1" parent="1">
          <mxGeometry width="50" height="50" relative="1" as="geometry">
            <mxPoint x="860" y="1835" as="sourcePoint" />
            <mxPoint x="1430" y="1835.16" as="targetPoint" />
          </mxGeometry>
        </mxCell>
        <mxCell id="_6MAN86CtqND2G4DpBEy-2" value="" style="shape=ellipse;fillColor=#3333FF;strokeColor=none;html=1" vertex="1" parent="1">
          <mxGeometry x="857" y="1832.5" width="5" height="5" as="geometry" />
        </mxCell>
        <mxCell id="_6MAN86CtqND2G4DpBEy-4" value="&lt;font style=&quot;font-size: 7px&quot;&gt;swap-enable[1-bit]&lt;/font&gt;" style="text;html=1;align=center;verticalAlign=middle;resizable=0;points=[];autosize=1;fontColor=#0000FF;rotation=0;" vertex="1" parent="1">
          <mxGeometry x="1305" y="1816.5" width="70" height="20" as="geometry" />
        </mxCell>
        <mxCell id="_6MAN86CtqND2G4DpBEy-6" value="&lt;span style=&quot;color: rgb(0 , 0 , 255)&quot;&gt;swap-enable[1-bit]&lt;/span&gt;" style="text;html=1;align=center;verticalAlign=middle;resizable=0;points=[];autosize=1;fontSize=7;fontColor=#3333FF;" vertex="1" parent="1">
          <mxGeometry x="1480.0000000000002" y="1636.2" width="70" height="10" as="geometry" />
        </mxCell>
        <mxCell id="_6MAN86CtqND2G4DpBEy-7" value="" style="endArrow=classic;html=1;fontSize=7;exitX=0.991;exitY=0.07;exitDx=0;exitDy=0;exitPerimeter=0;entryX=0;entryY=0.07;entryDx=0;entryDy=0;entryPerimeter=0;strokeColor=#3333FF;" edge="1" parent="1">
          <mxGeometry width="50" height="50" relative="1" as="geometry">
            <mxPoint x="1478.8400000000001" y="1646.1799999999998" as="sourcePoint" />
            <mxPoint x="2239.2" y="1646.1799999999998" as="targetPoint" />
          </mxGeometry>
        </mxCell>
        <mxCell id="4u6Bk__YJ9N9gN4nhSER-30" value="" style="rounded=0;whiteSpace=wrap;html=1;" parent="1" vertex="1">
          <mxGeometry x="1440" y="1630" width="40" height="810" as="geometry" />
        </mxCell>
        <mxCell id="_6MAN86CtqND2G4DpBEy-8" value="&lt;span style=&quot;color: rgb(0 , 0 , 255)&quot;&gt;swap-enable[1-bit]&lt;/span&gt;" style="text;html=1;align=center;verticalAlign=middle;resizable=0;points=[];autosize=1;fontSize=7;fontColor=#3333FF;" vertex="1" parent="1">
          <mxGeometry x="2314.41" y="1689.67" width="70" height="10" as="geometry" />
        </mxCell>
        <mxCell id="_6MAN86CtqND2G4DpBEy-9" value="" style="endArrow=classic;html=1;fontSize=7;fontColor=#3333FF;strokeColor=#3333FF;" edge="1" parent="1">
          <mxGeometry width="50" height="50" relative="1" as="geometry">
            <mxPoint x="2279.17" y="1699.88" as="sourcePoint" />
            <mxPoint x="2874.41" y="1699.67" as="targetPoint" />
          </mxGeometry>
        </mxCell>
        <mxCell id="4u6Bk__YJ9N9gN4nhSER-31" value="" style="rounded=0;whiteSpace=wrap;html=1;" parent="1" vertex="1">
          <mxGeometry x="2240" y="1630" width="40" height="810" as="geometry" />
        </mxCell>
        <mxCell id="_6MAN86CtqND2G4DpBEy-10" value="" style="endArrow=classic;html=1;fontSize=7;exitX=1.065;exitY=0.11;exitDx=0;exitDy=0;exitPerimeter=0;fillColor=#0050ef;strokeColor=#001DBC;entryX=0.922;entryY=-0.015;entryDx=0;entryDy=0;entryPerimeter=0;" edge="1" parent="1" target="joF-WAlRbkqWNDi0a5-E-1">
          <mxGeometry width="50" height="50" relative="1" as="geometry">
            <mxPoint x="2922.6000000000004" y="1699.6000000000001" as="sourcePoint" />
            <mxPoint x="1000" y="1910" as="targetPoint" />
            <Array as="points">
              <mxPoint x="2950" y="1700" />
              <mxPoint x="2950" y="1601" />
              <mxPoint x="1100" y="1601" />
              <mxPoint x="1100" y="1810" />
              <mxPoint x="1000" y="1810" />
            </Array>
          </mxGeometry>
        </mxCell>
        <mxCell id="_6MAN86CtqND2G4DpBEy-11" value="&lt;font style=&quot;font-size: 7px&quot;&gt;swap-enable[1-bit]&lt;/font&gt;" style="text;html=1;align=center;verticalAlign=middle;resizable=0;points=[];autosize=1;fontColor=#0000FF;rotation=-90;" vertex="1" parent="1">
          <mxGeometry x="955" y="1862.5" width="70" height="20" as="geometry" />
        </mxCell>
      </root>
    </mxGraphModel>
  </diagram>
</mxfile>
=======
<mxfile host="Electron" modified="2020-05-01T18:48:53.003Z" agent="5.0 (Windows NT 10.0; Win64; x64) AppleWebKit/537.36 (KHTML, like Gecko) draw.io/12.9.9 Chrome/80.0.3987.163 Electron/8.2.1 Safari/537.36" etag="sqIuY00TDkEGua39x6Ld" version="12.9.9" type="device"><diagram id="1rv1xOvbKvWyrppsMtNo" name="Page-1">7V1Zc9tGtv41qrrzQBR6AdD9aEtW4ky8lBUnTl5StETLHMukhqRsZ379RZMECJxzQCzsboKLHxKbElpQn337zoW4/Prjp9nw8fOr6d3o4YKHdz8uxNUF55yJMP2f+eSf1SeMx+tP7mfju/Vnmw9uxv8brT/Mvu1pfDeal75xMZ0+LMaP5Q9vp5PJ6HZR+mw4m02/l7/t0/Sh/FMfh/cj9MHN7fABf/rH+G7xefWpEGG4+cLPo/H95/WPlrFaP/JxePvlfjZ9mqx/4AUXn5Z/Vl/+OswOW580/zy8m34vfCReXIjL2XS6WP3t64/L0YO53ezeVs9dV3w1f/HZaLJo8sAbzWd/RX99e/ht8tPv3+SL1/eXLwfZy30bPjyNst9j+baLf7IrGk3unpmbTv91+zCcz8e3F+L558XXh/QDlv519GO8+JD+PQwiJtb//nP5b630+t9XhmPC7B//FP7xdjQbfx0tRrP1Z5/GDw+X04fpbPnDUzpE4ehT+vl8MZt+GZW+wq6eX6ZfwRexvpv59Gl2u/4l5FP8/Mvff//5i36t71/LyeebF+8GUqy+cXRXYpL1/f00mqYvNvsn/YbvG9aI1jf2ucAU2Wez0cNwMf5WZq3hmkPv8+Pyn/B2Ok5fmYdrcdJyfU4mTCoS5TNWv9H6sSKtwUlMCngUB0cthrP70QIdlVJ6+E/h2x7NN8zbvPP6B63PS/+yOjL7V+FeNx8tWZVm219+mr1n75n+YxL/+uplmPyd/CkGUu/OtgRDmT+GBaeTBfj8+rrE6CIqM7rIGb85o6fcOvvnQ/Efa6GJWPbB5rDlv/4p/gseVykFK0JvkQLBeiUFLGI6SOKoxFZcyDiIsg/bikP6eJlLucz0u2VxYBGv+Em25OE/0+vBH88e3n388t8/Xl+Nw2E0eDGQEsnD5TB9LHrOBh/H6QtHV0g+FqMfi7JEDB/G9xMjLikLGb56/m00W4xTW/ls/YWv47s78/jz2Wg+/t/w4/Iow3zra0nPjZ6bn5We9bSYzlfWnq1Fam38Eyxh5s9SwiqZ2LzJ6MdW7swUUhIFYeEPL6unOIoDyTZfXmvFGtZmgFuKXFygbAfCRbsrMnC3VXolTLqolYLOS1hJ54VMno17c7WmFDCUCWSqFsZdB7rwRwEWj+NAqMLX3Rh+6GGkP9a9osvUwRZxWbrko7s1x33/PF6Mbh6HS1b5ngYxZdmxoHAQYXVmAgqMlQdKJa0SW1Ard/+5uXr8wd68+vaD3wyi66sXk/eDhBP3FD8Yff+xdFvxf59M/LG6psF8dU/P0m+ZTGdfhw+bb0j/dm/+fzVcDPOjZtmnr0Zfp+a1V5+nr/wx+8reycNjDekjmtInsUAfUjfxUPWPkVnCoS8viZvixE1JVxeF/ZoCH6847O1lP/kukuAyFb5Myt4oV3dJuRrgLl9OUkv8dLsYTyfpR8Ov5lomH+ePKwXQXehrrns4f1zldj6NfxgS2bh/kUBm1g2ZOf/QOgUaCH1tsqXCu+NRnXe3duTKTly01YWrJEO983XRLPZc82RPfDQBkxkaskJTH01Ao6OgLalwwzo4SuTFUgmSlaCacIH0AcwXBquYzXgA+vEHNv/P7u7S2G9eEPrVcRVyj2PMsqc/mU5GICxYf9Q8FqV0S1nZ29AmyMljPIiQPpGUOomq2XAnbcIoZxgo9JRejRT0/PPw0fx1vhiZ+3ssxG3mo0IcV2c6lyr8ZhP5W7h8yaAwhViVJz7dEibQ1WNV7jXB4sRiEoEMZTCd2UtGuX8tDWblxfTF5iBLITraHIncd3iSY5vDYpv+TcAkBz6OVH4z46xnrBLZck8kU0Eq3fmfjHI557AwyEJUy3kj9EsoZjdBTlOyh/F2DL3NmEhMUB6FspGOpq/JQl2tUA4uhhq7BxpkJZDxXoloBP1EBQtNTUUUcUeidaC5V4XOG6RfXl6nR7+8auRlHk04gIgTEckdSnSduUqZ6uiTgmOyfxpOUEHTnu9pcwc9uifew3tCpZYe3BPlWMAg/Nf3ew7C14GiDClVakPSI1Xu12C6aemAQQNpr3aAg/S2OTDGy0mw8DYvUW8+XLYvmLY/mCxDjHCZnj6bPtDM0Cyjlv7e48d5laGr7gpAFXarPRchlMvMUSlQX1HEd2YPiY4Y7LpcGdflxWm5Ltgo7913Ibr5TFHvObY4++xZsnD3MbBfm8xm4erJSrSzmiB2G83VH/u1E/ljv9eOvdAlx6cfXx8d1zMlQDMnxfZk6cTZ/WPv9vjYninJ+8b3WNO/+JDeiDy5LlXUDRhh0rjqRCVJE2NLgB2m1Fe6fvXi1Wl5TDg837vHFDco/S7pdP3H8xMjFsoR7J9Y2NgsaROmaoifFR+RKIi9Kj6cJkiF5kyalDREds2rTUqwmjtN0jDZRGz80obWaidJnOwutjlzXnVagrNfpyk4XGQ9HP0RnATR5s3bwe30brRyCQQzxbyekcgCKRRMElOUoLr4nFFCYxWGLr3t8F3e/GDmroqd1lJlzREdRoQHYRAK0A3FunVD7WMEr34EeU3innRxqMxlRwp990F8dJTrRnCqCrYjk1fMILBI75kjD43RiDSQtsdozQY/rTGahWbdpowm4i6MRo/AyLC9Yj4r0QY4DiFs209gP/4OzA2Pcs3cFlqbK1wFFoSyjCaSBhTbObJCLKQSXcWicc90Lbtmnba17Nqz+Xw0/JrAQcym3JrAOYrEcx++xhGGNU1sPNFQlflOx5347miseHVZf2dFh49yzTsWZlQbWnGd1M6snhjbdB3nINgGHuV69Cds0Fdri29i7plv+jUGhJLB3fUNBYzlN2pgGUCTK2PFobHyrnV6zz1d1Q7BPd7VjsPsxpJ7ojL3dEy6dei+PXi+MpkuComtA5dJdLBnLvOY2uiU2ThN/oLwWZ31Fj7KOUc5yCcUJ6dZkauMImOdfCYnfKX6zlcQqqWxGx5VQo3ZhhnF06Hrl658N/RE1ihV/QTEzgRPOJrUDnH24sWHi2Vp9OTaRJlMkkBB85cpq31VsFkWI7jyuhjyujr57FWEcaLVeK+02mbcapMx14EUCPi2te1UKLspmwFFWFMQJO6RNdsZ8bjMfMZx7Q/zbYX77C/zxXZCAYzl2TDgbGtgea5kodZ1a/wyOItzV13qo2tAgX131TEC9sui5gljYPai3sSCXPYrGOQaVevsmDcRIjdZu9EwIowi9Cv40DDn1tCMhxgiwL4daxJBDcz17IphsMakeH1VCTnQAqpi2gSMwnorKQIR4yEx5COSDKHTDyYkc1B2JzuW+HbU3qrUoog65a4r6VXbChI1tC6sXxmhGPYtdYbZi2Gesam7ak3bEzA+LyePT+YdH6ezhWk376fit6LgoQ+viblzrx3nTDj1IHmiyyKvlediZ/8cRcgDqmtblwihz+ks+MSMy30EnwK7hmfvo4n3wYhBSd/eh2iw3uFMPIp4PXAdVYKtQKpAb9b/TC315+n9dDJ8eLH5FMzOb77n1+n0cX1//xktFv+sL9DY24aGpGxEahtmKslS3yws4oaGham4oWHZ1WJEMWQQ3+0GwlsUiJe8hG/e2RDuH3uSbtQIyRpCDTnbusOEw27sMJsdKNTKunWQdFkPY3lwgDXWBaKpLvDkZEIMfwxq2bjCgRg4hJxpy8mUYcVLV78beoL5yFiSEKsu8irtub0Ye8Hkvd9cS+68H6D0wIZU1jVEI9S/7xUYwkFrhH1mDRMwTK7iTqO7lfx6iFyY+/w582gdqGizRzXpypUScuX2g51peN5ew3tp+SJQSK0JTWBqgUXBifUOQAwgNKrfumdXy4vm4tWvzXpcMCQDXZW8QAFaQxfJHr9yxK9/XWfL1o8xk86VqLjyfSG4sghn0i9PjAYNlx84pIGDuYhD1NsN1LHslzrmKgyYgvykgwQc1Vwpc9PABA70DNLAIioHfgj86HsmMc+19IgfAe+EuzAjS/1ryN2eB+lZhLO4r4/cQPFAF/7AaIoAH/drrpSDvDpnVF791fsPNrLoi1n6//9NzW9V2gaUf95iJdBsuhgu97qLK71VebRZcS+WprQcYxJr1nUYZH0BRUqLKHC2G5lEo9qR1ooi9burOWyj6U74Q1cBZlwJ8kOsch7ZW9uNC0QcMisnZGzNKehUx+nuE+TxRU98glixQJRDHqaUDrTYmBgwedTUQUAzTK7mNFVVN3nlm8EHsjdzm4DrjPozTy9qkX283giwbQlZ+t3XY/NypaKj9VWxv8l/Tz4vRuLm/ferwfWfL6fxh98HWWq+J/yNAHFNDNWNn3kEucbZWFTWqZK9s4y3M7QZI273BIPF1LYP+OmW4yRwjZMujeJqqBP2LcCKSdOQSXkW1EiYs90e3CUADQG1J3JgB0+Jgn615uPl8apjjgC5AMpzlxcnQGWObweZhD3T+b3vawUZD3GS8Hh370UaDtEqlcfi+0rEcALiI1v4eZ3R4rjoAAvrLAnTSBnTweu4YX5yQ+NV698XLJcQoC+xI4xC5d33xCKx1IsPMlW+UXJpmMq7GSaG9mQoz2UUTgJsIM82vJxO7sbLlKLZi71cXzIb3Y/nhngn4JBuYJ03hBJIoPOstyeJbhCUXF6fBnmQ6xHhYMGv68EazOj8dSLUwf43pg73S50G5aHXp0EdbIP2Lzs96QKv2r0gpVX3pr4VsOmehb7heEIMJx52TntyqOK1I7AWljBN/yS3Ocasi7Mnc4GBQcItsL1ZXWK3SlXL9jnJ6+tZYdPc1a4cnQgOqp6NUYOscQqnQjkn2eh+9zZYam1I43NAUU0twyWGhN2lmjkVlu1oAavml2rTzJs9hyIzpesMdb730MfQYGMrmNOlN2YQ1aC7Tj2xRDKUgtCRTn0SR8YQmV0fUyI8Y3dCxTXVaDGl0C6Hs9k/g6kBxalQa0fm3cPFM0zHMsD+vd9cJHfQS77RbpIlrdTb1hHpIAxL/QpBFLfv+tlB5/VMkyVwvC3sOtqzWhnBoSZz5dMjEDkvPj130KTuiNHLTB6dNJNzyCzdzbWQAYwmnfG4iOjXdszjOJV2MzLv1a/CXiFuGNhqimYJhBXV8b5zZxzXW1fkCE+AHAiDcf/kcLljEc/2y27bE4qr7FU5xIvUCVsCmVV2K5stm1sCxgIBTxMqsw7Wl8aoijevXgGDnhAeEF84xyAa89HD6HYxnaWfflr+d75UYIvPpux8ayK4i+WKGH6k01V4TREFZsr8VsxIoLJqRXbuHyGjEB1omD02/SN65zGH1dkMnC3Tu/S7sYUTEGjvRvOnh8Xg2a/vV3J7vDDETMMFTjpRRLpF+RVdhyucQGlUK7s1op5ILp5ZliwK4q4gQUbm4cyyZDIfgfIlq1kyp0JWj0s2NyM3+ZWH+06EZt255yllOzQWYdYUt3F7ycER/1PKXDqdHokiDjXxycPBo9KVlEHCNnuDAKl3AIdfHuxZd+MaSkF3H7OTRRBW4GZcvy6WdJroV3BP4Vm4MQ/E5aVg9oR7ebBn4cbB9tVwMRys9gOelGhHiUFM2rN04wDq3fx2xpZ9BMdFAbyOJIooAvj1kwnQUEMAfhIE0Hu/ffvNaJUX1RP7wkKIYRp2hXlnCBIYHeXanBAYpidHQJYL1s4ExEc5J6CD2LHQ4ZQ1e6xriB2aPwrOapwAHAOd5O6sL3SjfqG/oHqO6RkPsoJKa3aMYpY6pKhiUDy7Gci4PfZ0ig3LmVX2jDRkT7vFpiJ7/vL3JBz8+WYof4rilzeL8c+zb7eDnilKXGyM7FSkIilMP0Is1xEZwz8mURs+9s2zOGJ/N5/dsqOOr5gB7UMlKmmU0SZyxkgFXjevcwJM1VCGHztlIKJySqqGkEcOaYEj38vx5OguPxKwj49aFOj15uO9jAMWKwpFM1nXW9yUJn2a5EN2r2GEZ80ExScYV6NpczTG2x08RfsGT4n1Mcqoc8lTKMnbObeCjkIrn13zQIJzK1dpmHC7GE/uL7KmxdUXeTj9lP7HoH6Ew8ld+l8DMQEYqMweNSX0h+HH0cPz4e2X++Vjl9MHs4sza75zAeWBspME0juVnHe2T5cnLofJyqGiijtlMpxB3x5EqU6EyNBCZmgM5KhMbyiKVDbgEiaZVRm4WmqtFhDlNv99KmuKCBc3qmnGVnC3YesHwvIDjpq3Ezzd8OZp8WiqMitdt1J/X59+mKMmt8P5qPyVj7Ph5PbzhQEV2wCM/d8vf13wy19em/9cmv+8ept++i8k1T2ZX7G1YUFqCC3BJYEy5jkOyaYCiBa1z+yC6kczZBmsKWEa0h5GnxbkOurlIfPH4YQ8ZtnW9n39O5pzJtPZ1+FD9Um7rXYYDe8uiqB2Ia/vl1u9O/rY3MtxjpMrAAmeqj7MoFn+psifsTP2pCojp8Ce7MyeBHuiuRmO2JPaRgJXQljkT3drygyOiyw6lIGWfKtTWVMaiZI8hFydx7v5u5/GDw9ZKHKR3m0YhaNPRpYWs+mXUekr7Or55U7ebqZ/Dm7lCep0ykPZtl4x7pnyvP6Mk8u27DB56tHHZQAO1n4Vn0+GzGY8e8JmuJ8o6cxnKO7JgPJsbx7B78z01lfDT8R1464hbOpo/4SqifvQS4EHHAVliprAW7oPLyZL+7wcwuvlakKECmC+XpBP8+f62pKzkMBJzIxce+szVTic/mM2XozOpAM9khB2QxE4D55JR81YniAmozUsjwh4NQamEdHYLyhjNl5dpHH0XLBB2DdhtECAGFXXCAwCv6moDIzDjZspRdnNlNnXW4JDqxzMoG2N4NCmos3Wxqz8lXtqsQ7CZJOi5+VDG/uaaIdKbKAT2ub2rflUGqeZrp8mt+WNGAaSRA94coTaIIF79xLCWdJ+tQEOOl++epWe9cLYztz4znJLeNztY3BjHpOYQNTmJ4fm0iGKP2pa74JYWKXC62YrK+lVn4TKVnT1RoOHQQbGmjNOHHbvTQ/hnlPmeVRCsAQz2R5h9MucFa8Sth4h9DOGq18dETbkzJ37zffNIvmdFBTTw3SZILlNyTibPpjaidHx6W38WIxMpw7kqIeH8eN8VB8ZeW/QgePLG5iwmh5i2DdlzQ6IjN4Vhjp1msIBO0KbnO/RyUkRNSOFM59JuN1gy0QJpmDZjNM1FvpwATGJ47zY5ROJ8gCHzeDOHaRfm0/wwK4i79acWJxry4ds041XxOIQCjC55fmxepuuCJv+m/z35PNiJG7ef78aXP/5chp/+H3AsvC7L7wZQ4binTt/IwnmHsOGVc/2UKrIYSnjajd5oq62hLOdrZ8IhYfikiA2KtsTSFOSKap8xWpycDX9DCXnu0ZI+9m00LN4EcV3LOk8vhHClQzMlQDDn5S/tGNRoeYYb2dsUNtb1qxFbXh3l3q586qGr+i5ONZsVxLzMkEVMa7ntf4nQgcYq16SXUlk133piaaCe4+4sAb/wUWkg6yx0Ftay/6soF3+6jtDMJloTMYizkFHxDg0E2UO9swcnGAOKzbm3d08/a7thsbOTyrbq4qf1CMz5mAPZSQSwEgZ8NzezBpziuxyAmrHlE4pLWNZCaHW9z0oIQdNwIVNN5tU4ro/Q3Xad9Z7ftHZMxvHRXTjCTMtmT2bJwnCsISS2gzXtPWIJCoDZr9ENewqfCKKtydAkNVt/UD2I91GgS522VdVF8Ndlz/FvKSQzUa5PvfaN86j9GyvlEbdNJ0XDKJqKtpVaC2LAoerkro0KHwCLiRs8ds0fwIkTl1JNYEIPLqfz24vCkXk0BSRzUhgj9xWh13Z6c3DBZREy67XJrF85Ycb/1WUx+/isL26LLo4Kinrc9mtfIo0bT2Rj7gcGlUpiA4lJ5SxhkfZ0rUWykGsZjiJRVJvfcKR5uS4BSGbcRn1fcbF5UhLAq3rvqeRhNMt7SCYizppOou+Zk/UlUZOVgzC+O6o1UmsgkRXtua7zg8Qu9CB4K+lvncVK5c+k0xkkDW5bKZd9y76LnM5QPRZpzxOByenPkrsly4wFYsAoMKa6e0AHtU4Scjhfmw0C+5cCeDZ5F0Zq0o6O3BITwi/zBlbJTyadfZP+OrR5rL2PyHlzwXcUbF/zZ/pQNS0khUB+9pWYr8epwSs1WRjMXtLZ2TgIr0tx518l4nsOjmFu0xk5L3LRPjcM3OM5V6iyyQlo5suExl5Zg4qH2Cny6RkYc5tJq7bTDi0a9SCZK92zX5YUBjzKKHkDUwvQftJomKenucIDytFpkO7rQj12fjMVhxcSJuo7d0w0k43jNBloGj8Y/yqzoxe5z3vlnRYgr0lhnRYUrHk3Zkak9g9fze6H1zNlwQdPYxuF2kcyePhV3NFk4/zx+V1hE0+Or3wGJdETAoEUZmFXk2VdDlCC1Kjm3nabv084WpWcYMPq9vPU3nFzswEqCfmCldjuA4k3301Hq7NmIOTtn159uwTdu3PimuXog7estcP5eVuehMs6Qzbo/R2heNxUgrKBLQnmghv6UxEiNJDzdcmwe3WyCmy1cmCINmT8phy/RNwsJkIKhLYd+ZlFFoS852p0vxuyhofh7dfTjBlzjTEPBHZmH5R6TG/Sg8nF8r4M0cMC8dlAwwaaiOCDXLc/efm6vEHe/Pq2w9+M4iur15M3mfbj5s1zoan2BOC4x6ijdaZDJFEw3Fta7ehUAfIUR3WvkIepXRKx6mit2A3EVd0E8h7yYr0PfESTLE4iMu4KEwrFSRqZ0RWHokokDHc/6OSgCeJu1IEee04BH+W1Q72qSIsyD6P4WiIbggaZgPHk7xsKjRcguXdDRfDw7/wBIKDmHXoxFYrykg6u3Oq/a5ddjimksNXKcUGr168qgXHrUgg98j+2iC94jxPEOfUF0mQ4HIYpbSdUd/CxGDl9fTFUsF4FqP/NDdMMq45qnUwa9tg4WmxrPntOJQotFrk5JdXDWoDL6UIbVmaPjfbAuQuqflysiwS7ZNllVSrT7I3zYEx1TfvFnFZV0wfjsalEP6trV1WSNGFNXPq+AleHoLdOZ1FCwxODf/y6u3g9fUJJvB1DNulwzSGwgVmV+C9NIE8zmTsWnhUstzqtz6wt4VH2bPdkChpnvIfd1J3NAcX6o5JIyVoTefgzKzROZdnnZN+d6xVwBhadr839eMPx2Rn9ZOEZRyTsG6X01n9bFU/sU6CuKB+gJborn6WByeQxX1pHxyVGe3z11n7GMqoJIgYyhrvS/u4wPFwpX00EyXtkwr9PrVPX5RKIlI9jBhqM/lmPGwXHs7yYA+dVTTfuoNtNY3oZTNn+qVtNd2EupMUnMxYNmTfMAlUwY+2N6EdOtt0SDMsd8mwrIzvr5XuzrBmkINrwLXdlm+eCtdmbZ5F94tX68buXBtDF9E11+KKcNmVO6X+kZTUcWn6BeiqOP0ygQOzN9fOHcSwMYnlVHu4y0IRoGsST6rGHjhb/3QS1BsqDuBs1g5aSHnWQnQ66/X1xWk2sqX0FVsVkTYxJtI+XtsRCVyScgryxAjGg2gLwVQSZEvY90Uw4a8MshOa8u7LC52Yin5ZAC5gHbbzskIuEDqnu2WFNGc6GGI/Gs7sC8NxVFzv3HeEGC49KuCxX55zsHbqzHOueS7sujQP81x6lG+eI6bc23anJlR3KtFu0sM+1Pnj8HY8uV9/u0t0OJ7ADadEU53fVnBq9t0S5VOPeztuRSXwT5OfQHNVf1B/9shVGez3/riqGldqZ67668xVnrgK9mDrfXOVg1F3VxXj5ovIT7krBTWPwPTeDn0oZowtbtmH0rYVuPIXcNrXS0ypp4rxFFtcULI5SYJC8YtosKO42VliSzposDuqOkhP9JCB4gjUliSpKa911EypJmYBi+sPdB3ika1xJ5oSj7bWMOK6YqpXJZL9MCuT+iWNkdT0Fm1mpXhUVhAx75Q6cpn+rp99Ej2bfRICJhu7rgzkeGVew0R5+9knDDOkat4NPsHK01JufKSsCOkgAj2Hn17CTwX23PKsuXtfM9xRB7DsJY7qYL4CUjVUn0xnXw0MDiT8zWJ4+yX9+uX7pnSfTZ8md6O7NSlqAFttUAQW9pgi0kxMECSRzkjS+4zAEXZ944mPjmaLCNpTv1gXuhWauci7R+3pj10vZXNrlHDgvpT7wfSxr9G7BcWBB1FqHWyv3YqRg4LrOUp30luoEAar4SWhCvjy3VSRwZfPsFwbHu04Xo9x2Ad1xYkF7XLbsFEcxQGJF+9RkcScJln6kaGazfig17tO3O1WY5DonCI6tejEHa4XdkFv3vYIgdTGxUvYhm0gtTCill88NQu59QKApQRmOtoF7DoIY5gwE52M9TEuwjR4lgU9Xo7yU1ecBQIPKbdHA4p0ICST9FYapjkLpFEg9I+xlS2LMt+y8OsBzncQZsQWHNoCM5dYuQ6NtZL/Dg54VcQw3aG6joBGqbqUDPFgyqKJ5vBUW7yH3l/HbPtronBc+8jUJtjRPS9S2sVaIyC0MGaEtdYVq5SiACD/WjPZiYWxwGJkXcZkkCwbne84eVwGBEwPjDrZ7N5bYMV0oApJNhBR687jGkptW9FmDg5YNeSM43g6qQbgPasZG2qGaQJieQ9KxtLIjiW3u97tCfulHSLs9nTVBzHyJ1whcsZhxUtXvxusmIdhzRNRDFfSMB/ekcUwt01XaskybpahrmthqSW3aRmLTR5blXe9NPF+SRMWgc5zQniNACyruragNsLKXVgR9iG5i0VZ2K9GaR4pEYQKKqDU34q6Fjzi7ft0Q4Mt4ygrgnWvqolM0ROMe9C9iopMOzO8LAMlhR0qgY0U6G/y35PPi5G4ef/9anD958tp/OH3Ae9bcgUu++3e+xah+UlXvW8CbJaAKN71GZUuT8g6vwThnrd+IvSR58kqt7bg+5UqOyVCdNoUVYHfH7ZHtz53t27tbs0c7A7drQhRoqHn017C0TqCOllCT2SEcCtLDYLcLI+QHjd+nI8uUC9aRVg7mU5GRamr4t02qYIILDBTWZReZEaCF6u5bqccQQZ4Y0cVldRQjQo64MIdFGimOgs0PkrooNBoA6FiHQc22sL+99NjB7TQQG+lYXPmgAfvmTmw23L5LH2sL/2ahdTuQLtvypeQ6DFS5F7bQDRuv3n7pj+zsF6pIwSH1JF7ps656GK36BJHOgA9JZt+t73WXbSFukux6YSXwjtWLM92RGTIMfvNgUuo6ayA7GNHW756rTb5qHsWyaHkm+iMrxYjfLWGFSFr1txGOaW4QzACXMo7cWklWx0cs6iqHqIOzBJ3ZJbWYT98aZOsqHk3C0/4WAGobdRsTi20SfCMc1cexkclfhUey5T3DoPQinK43r34LX2hd7+9TD8YfjWuz+Tj3Pyv72h/Xl3yOJbYX+PYX/O7SDesBv07u+WdEpw6dcsLo2JJmeKMy140YLIQJzN2cX9iXWoMYdn6In/uT+8K9RLVA7o7y/5APdBL+ygIsrDB9H5tFWPVveCjiiFVPvSU31PYqI4BwHwtyrMF5Pzi2FKEcH5UF3n22T/ZOw2AHP2ws/cYJ/Aozy1fOX8X06tP88/pYW9PZaLVq78YKewvhhLn2L2OuLKwD02oTJZ1U8TsjmfUNqHmmqY+KdMzjQTVCINBaPN4FrViQK6z1iSIXnrdjthCW/rIsLAQp1hMbHyaFSg485PoPY+J5+73OQPWprifYZ1Z6PVAR/n2YTLUiKIP8/7m5xOVUFCBSSUUZ6OUXwnlZwltLaESjm2qzguK8VESHGVPQsnmdAvtV32nl4IDalHXspiCY0CJIw8MvXL2g2y5UyQv4ATlS6NwZ0+PJpK8nxjszJ4oa1vZ4wSh2DOskvM6jm2dTI+LNFDJ/cnMCVnOtzPNfLUX07fnoLzCOJU8eXu5S3Vln1BxyOmx4tygThUCHYwCqLUBCUezgoWCS99tG5dwGZ6ALn7zaAH2fAhX+QU0VCLqRj0QkHntE/i3kR5MKD83XS71ijOtwpUIuOd6Lk1pnJ3PvaWTgKP32/wO3AzOY5IPXEXPNAtYbWgEGfaa8Ln1ZRcT5wcxpsw12IHHo65jLfiohoMsrS0b+kkitAs6SAfxRMiQPH9lkFCX2uPS/JX3L9lmQzMkaE95hCM4V2lvmhqE37miBttQIzR/TY6SIHD4mEl/dQiaIBY6NSpvpi/qMoGBAGPA9WleaERL3d2VDWiCWZhn6T3BYI5vB4Kho7wTbE9NCpVErm0o6NvsBtKaKPhuLr5odsMVZEMC261EWLOQDD3By0BuTX4by9BvNENTsxsnGMcPmLLmF6AQjlhhpSrieBZEALLUmneQvcW2QP7j7KQ2zYFEjsvAXvHNGolNoBcFWaxXs5jIxnYzmitw40Jri3bAJW4F+7lMvkWIrv4JgskqZG88uSgZoF6xVWw0H51F3IOIJ1jEGSniFEu7E3ELvQ8HLeJgoIJHPAi7ptgUx6f5lW9qoKWdgxZTgvzmafH4tBi8nc4WlX4aYJoa92o4fxzdGmJ+Gv8wO0StrOhilSFggZ2kV/GyMR+Tx4QcIHjG7RE8La4DrUWckES7+la27YlW0BBYPu5aTmYMGX04i2NrpWjVOzd+NfiEo/YqnNVaK5fRZGm6+9IU62+zoIZgdLEoIyNzpMOoCp+zFhLprMLXGT+7J4oCGZzuYCOE7XI0bEv8pBroEBaiXHj7JywP9NKcahEgHsDx7p6BPQTLxxiiW+fd2hwmc5sytC1uyO7kMHpIWahhE2lE7bj02EYa4fTPylb3aLuo/W3hLC/VbqK4MEiapeKcGWFita+BvumLt+R3hEiVEyks0XjxE0UdZ8V1Ygdve8NzchNEMACxBeCLDvYG4EsyhyLbYcuQVW2raILK0vx89b7H2RkdgdFcmfmhNbAC0AOxJrVNQOwPvcMCDVGhpU1NxUrDwU3pqKKOX7km2oDV8fYPSB+pD2Uhju47u0F4Bqa6xg+Y3RoCF7ZlN/TK2Q9yygz6oIKThMH9GQpDwniMTOzuz3CwYHyrI9ATWWVoaWXSPXsFc5iRozw3fulsmVR1LqrmCUcCfgJD5Qwt8hISQM015qDQl3uBX5on8fZ3Q0CI7Z9guuYJOFbf/gk/XgyxjsTRbHG/mwJtjQqglCuLM+tWnL5XPIgFFuQ4DiBWhj0jewITA4xBuPjOQEMo4Y2PcpxoIDZghIhiXtOCVuQjgZBemcAUWIQTLOIs22dlh8Nue4gZB0CpItY1fmt3MMKtzmyt15sZjL5IPHIHO29+3TxZqNy78VnQS4u4xutF7yZ8VGBptP/OssE7CUdZNLqGc50kgO6D6pUAwAW/THYGCEeL8hxhZegEpB/quH9fzE/1y7d0hcldF9d9TuwzjRZMEJl9qmUJKl5rFpplPVM2o5ToQIMU5N/N00fHk/vfpumDV4PIEhdEoiykKS+LQOA0YTanXyqbsyCWznjBAgTSTu5aaUdFPapFd4uUK6BapywXkJ4YJQ7TP5x19soiOCzZFLS+tVemNVB8rM4rixCodOsnwqTuCQB4C59wZfxOoJrKIgaCUZ31HLZnU6nQUYEE02WOMwZWgPUPkWiddQsimtBBkqBebW/0s9DxenD0S91LHWhuiYTL05TckFD6JaENfPgDJCFPo/vuJESLkMx5rDAzwTwTcffIjxy8e/ZrGvmFg9lo/vTQePTu0BtwJcAPY5oby7ghLu72pHjXWS8uDRhvgdp/PD8VEkcAynRpR7eT2CtsLmPVEMpngW5N7YycObV1VDPh5lmgq4vaZ4FuKNAw6GR1Q4yeBdribFgYRDwu5IHMdrBIb08GEbPYxXreZpfYKklktml4reflGaHackaW5+uNbxkDTKWU2wJWcAbBkc3dTDgMFzasb1hzK7mF2KBUNY7LXMa03RV2h8c7cDmUjnQQxxve6YhGyKJEo4M9844F8KZKQveFfqhrDkF5NKaY7ooYaI9iVFhx/BSLVWfEHYJoxGnO6YZjhXfz2xlDxDu43iuNGl8zi1TDLc56rxix0MRcNpaUI7hsAsTb82XjudYXaZhz/erFq/TTd3fzxeEzOQ8FnPfmJC6b3w1YjNyicmTWgGN8JLm5+9b9SCEC1iVOc24NcB10KS7XJhlwvDKzvGlURNmj+JxAZZMQn5gkgwVJ2n6wa6HKckVEgq4SofR2NQ5pknOz+4//Z/qO0lPSFwgNhmv21/hf5u+G1uEyo/dp+HX88M/qsXxM3+AqSCNr04/TxRR9nJ+GvjKcjc3CyKrvnw8n88E8ja4/5S9hVMFgLf3mHR5Gnxb5Fz8Ob7/cz6ZPk7sB+O24ma5fnwr+/i8CmNVG69uLD7knsFRtK9rUNsP1Ev7V2uYPpqFmFCG5pMkrPgkTFpIB1gdme6JFmba2PhAfhXpcnWtKC0mEY6W0KUpYojQ+yj+lq0uUZ5vo3iaSBb+Cp3+2idVZOhFGBLSd172FjNhQhkm2K/x9ESavh9S2QFwRwjF0zSjcQgrZySFxLTQjgyp51ZJKrmSNWbRdQ+uXUWUKjVDHphdvA7cGltY031iJwIR2hsTdwQj/8vckHPz5Zih/iuKXN4vxz7Nvt4Pqtr/zmJGrMSMIkyoVOWYkMcdbGjMiOaHBkFF/8JxYxEDPhJA4Y+cG0OmN5rO/or++Pfw2+en3b/LF6/vLlwMbQUsG3ByEUXlPgo6yrzfvzam85NqtBz1Tz1zAQKX7vK/g0I9zNPCLf5IsQ/rtPMNEcqGNQcFN6BwLVQqegzDu5Clsus5MkLZhbBaYvkV/jM2zZphaD4X1DOkMA5113isp4TiecARLWPnOWzCndnuAS739AS5hdqv9E4J7kOMGaMzLhIGZgF8KRY2rY8Pi6myb5maoAVf383qO7eVE5DXZ2E1UERR1nnEu6pZttO2JZmFo7w6KUZrnjuFRaEzR2txy1U9yKpVUSA5ipcvrRuHMoTfL68zZ3ky/4ISJq/Z4kjZUsRzQ5q8ToY1uQBtKTTujDTW4AGjz+iRow0PeN7lpObwLI/ktScZArJz9jU01MzQ2E429MaGJDEJI2AhjITQ3pAk8jekgAi9mrzpHM0a7gvuZMcgSK8EYMTlW1qF8Cw/m6cGq8mDX7MJbsctBdqsxrUAIpDpj/KRH5foBBVS+aIbr7y+XVnSvZtdNATdClOPI8FKLdW1U+OjLJ8YAfnt5jFePhQZfPeXzuLt6C8uu+q6rsH3orKuWZoyANtib2rJQGt+kpFmU7aDOBqHDHQahAVIet5JGqkhm92wS1Xi8RRQiBrgkdWFjUdhh1tFwKgHYT4kYYSlZyzPBlLSKPOSZmA147o27rcNSD+TA9DZ0mpo+5FV9sMUj37jYvoAiUkYGeGxKqCBhbffztS4qot9CrXPybtkR529WbuJp7u7UEM0/awwrsHLi050h5uSX9Jk9PZq2nPuJaVbtCX2s7RzBkkAUo1wNbNFksBABw5xJ7qVoXV7nHWZf7gLWApIvJ2YLmEzUNkcljuJAqJ0dFaMpAt7qaMd+MzHlb6VlHCub/iNGObQQZv0ileHLmUBuVh7VmAxnWX9iNBuMxWPddWh93XjElxGW2rONOAGIaWKmN0w95q491HiQlzjNtebEARmYiD8GcUEXDQDwcKXSs/CcAFQ0ITw8CVQh+WZvIH77wfZE6j/T68Efzx7effzy3z9eX43DYTR4QXaqrtyGzwxOBmyfYfq+poLxTybT2delA7LjaBy5w+aP2XgxSr94N1wM0/+xtlNx+cfF37BWa5Cd9MW2+/VH62GFzD0vjS4s5xOpFsFpqh8+PSzF5XOqfEaTZbRWbCy0oFmUglDXDKsSSfTqsy3i01STkMxH5f8PhPlmo/vxfFmjOzNgcwaEEzcaM2BELCd1xoANOqLebQh9PX4ojuD2pD3KAmEgYBjTifA4eUmShmyIOhDlsLZM/KwYulqmiBrr9mqbtixi6D3/FYzTmQc7GieTtiB40Kt5stEgUez3g7t+pdYXNvv9Dg+1GW7a1hrYs8b18Bgtomg4Y24rkmPUFM6OI+SMU2rmbfqCz9PLvm6gXHriJDnoIZdwE5HgXvG5aCZokNjsz/Q4lwnav5Sv/9s+Px47ukACKH8JwTx9WgAUluNiZ8aAD8a0pNBXXJVHaGJgH2wJ0XyCxFBq78SoThU2NSc0uFGdD70VtKvJTzCFgcHw7i6l7LzG73X3EoZhayGc+l+wtd9DAlF/uMg2odYgernjdKtud9nljoTddTwHB/IUoVxT1zlnztBG451hnRq+dP6TbDX80XzYYK6+P84ckxo6c0xHlA/hBg6IvkKc4X03n92y43Yf4OgxDw2oOm6FqYlSnClYAoT73dX8uH06A1UJiaIJ4fBLCMLBPnpCRHF5cmGDX7M3MnBC0VvoCFzSMssBzYqeKIUm2luf0wbRpQJED4kmNFeDhzTRq9tAO+fryKqASdddL3N25sc1o/4J5O9ENt6TN+LEisrfeQ09CCzhm8Xw9kv60WD62KzcVB+Isl5jCXsdI4lCGaCZ5GyIfl+1b4Ed/3fLPc+D1dbn47bPksMoItm3VFYjTjWupITbZLGvhrhcrnUxls4jrqEAcp7NguzNNhOTn/2RORvXHofo2g2yYI6Fsa8ClsShoZUs8+XwoXogxqJV7atRLUuy08FMCBMcZmkrD9snaZ6qbuXZrRC+GtN5MVkSYrmgBIdaK67g4bvR8G79nRsWIb9z2cWz7Vv7aCmqywTufbgkjAkfjti7SaHtCWdch4P6pRIqud89IpnbUTy5bdQzEWHAC+lJbIMofeHM3ZNUZA4odZ4g3kZ3XxPEKsz3MOS8JMOAJZUQEM3HhiVk0u0Hu57TISZFP6xCwY3fkZsiKuWXKZ3rp8ntfhWPT+PAIgXxlzJApqJlYF4tQ3U4WXQYb8w9p8L2Y5EqG/OXKuJW+JsnaGh0DCZMEoWzvK62g9G0rgZEPgVaexV1gxhWjjyIwo5f6uPy85unxePTYrAmcF+ge/ZKNoCya/AB8mXr+0r5RTgP0f8+UCe4kaGAdRKOs3NeOxEjHM8viySmQtJTgXJq80C6PI7jINH7aPb45afZe/ae6T8m8a+vXobJ38mfgtxsByjTnyYmIcvMzlTir4OJvD6cRUBV4md3d40qttk1zxcjM1ZV3NtnPmqxsu/T+Mfo7sZqRlrC+ZkkUk3xeWwstiEv30IioDJYl12C9cqLLvaBbuOjnoTuIgLUVl0XaUm03spREyh65cRyDyhJtoPaBom1J1FJ96g7cR83vr1Dq9yJpEpyatbK2AhyyFs+ASwtoQBjJ13nRCWrO8leIpGkFs5HsMOXiRheKpH28SoTLiGyavdrsn4Jj4R73TvbejSujU5yLDwtl/EcpK6DmzZZkmz2Yu9MMeow10RrEEK17Qfg7ECXq1vQtlHIA138AytwilN9tDrMw7lSlSVH2bCfebAQvlXeV23AlbFdT8Q6gr45WhfSWKaRlx951sK7TyKT4xIPo+F8+XTq0ow/pd7N8qxlNvF52NcWTRc53wiullFJs0SMM3+KQMLJUEj2efn2u59ltvF8k2XAeBiuNlPSV487D7JhkiO/ehVSA3peL98G1i5q8MnzQaAqYT5dViUKmFFlxKialGUjY3kQW5RQWtF0R3czl5tgdMNXbjKU+KVleU0SMUIf7/pE/us1//3BEzsnTn+T/558XozEzfvvV4PrP19O4w+/NwJx6E/mlMsEVFkFsZHYDQ4SXflo4Dv36PqEBuh9TLNmdTtnF9ggc+9Ucysui7rbbNSLhbOa06FqdWi5m++/Q5uPvGn1kNfoaK53fSKHM6x+Atbd2j+R3Vj1HWcrzyqecFNyExbgf3aSXCbjs+RCIYD7GBhMOjT3x5DkQiVgTXLhS8saXwnJSPsn8t+m+vcXqErrQ6pqZ2hvc6nYJGYyuSl81BULYzQfmZ9yed33odsqDeF+GJclqJlCy4YYNc5SP9QsbifG6Zbp38ZM8fCrSbdPPs4fV6z517WlGVPypzaZMT3zc4mfJYe7/xId752jq9dO+FSFiHtfu+XeXYS2gcru4dD1PjlfIb7HeWSvXE9O9jt3qyvvsieOLbS4XHSFw0xgY5iGbbGW3FrkJGQ/yG0jZAUW9KBWOdHQvVDF1OADl9B7961T7NY9Ypif1Vk85GH4hqY134eqyGa0WRDyi+KItogv2o5o913tpDQPcD9A0LHLB6se+EaOOwLIif0zNnnTlzhjk1epxiSGjO0VI5Bm9ur2l879bNGBtrMh5iqvlIrssEECa56ax0HWC1psDZAEG7AcosI+J+w5U31RmmhiSl10SFJvoFGiotXdanIraVrsjd4qPMUMOL1Jp1f2WqHtUqpjmKAQL0OcC0thgkJhwhrmuPLN0AORj7iiAch+axnK53trZYiVZWizoa1KhHJpYbrkpCqt7HmptSMGmcNV2wWbyVtf5AjNIsCqbWM5quJW63IEBbaubIolXG9/IEkgEKT2IXi7g6qSXsv8+/BxMB89jG4XqdgdaK3HRU4wEXD9cuyzuEN2aemDQgdINLzBzOPbz3wrCS7U29uL0X4YLqIkIMCdfY4IU1lpKwnFJVyMm9C+U/y+bzXnNFDfoLrlrEXsd6BA3J2F6QRKze6OZefgTHcLzipJc3B7x+AUqkGZ6ub5bUYA8iYdRyEUfunsJzn1zCJ+SGaFSTCcb8aVqCSdT6uC89Fm7VifQOR9bFSRvFnN2Z0OttCEDZF8KxVsbFXB9kRvmkA3yEZZN3SNgjjZIIwBMWqsSJWC6o3LQPDNZDE42HEVKbKQTj1zC+YWkQQFcG+L3CJSNozQHLovbqESh+fI4dAihzQqAKixklHgBT6tFs6MvRvdD76bvRAfDc7lmjVYb7tSHJApgtIvJJk7IKG83ZEKZ2AOl1TWdjrpCJkAvNLBM6Gqe27P2vqA1ECS4HVhkkD096qwY5xEPIFwL9EKkyKbp91XxBcTbaKF1YlHRgIVhpgEIVGT8EoCB+tzKsKopK5cXnnJB9b/wXV2iRtJ61q4NktzxCYcY+Vzw8gsAdx8GaBe2BqN1AkK/WsGHdETcV0dHLbWt34g9NHYHuMcFelC8tNyIRG/R/v29WMLnUJVes3MeK+6zgs5ImcFm8NQeCjbIyFSYGOVB8FVwgidZU2xRThLVaPY4BPx2p+t/HXghs2Ybf8R6IEwLv0ER4qtLo3RY//YiUpDidEMtnhvcUtd9oKdFIUEgzpHSApFyCuNEhxbWhltObfJVXCBYmWPmKlsXtv+FrH0n7OpIctG786Gj59fTe9G5jv+Hw==</diagram></mxfile>
>>>>>>> InstructionMemory
